# Blender v3.6.4 OBJ File: ''
# www.blender.org
mtllib ExitSign.mtl
o Cube.001_Cube.003
v -0.846642 0.416686 0.015276
v -0.983170 0.416686 0.015276
v -1.459040 0.416686 0.015276
v -1.595567 0.416686 0.015276
v -1.566915 1.121743 0.062629
v -1.487693 1.121743 0.062629
v -0.954517 1.121743 0.062629
v -0.875295 1.121743 0.062629
v -1.595567 0.416686 0.204243
v -1.459040 0.416686 0.204243
v -0.983170 0.416686 0.204243
v -0.846642 0.416686 0.204243
v -0.875295 1.121743 0.156890
v -0.954517 1.121743 0.156890
v -1.487693 1.121743 0.156890
v -1.566915 1.121743 0.156890
v -1.595567 1.121743 0.015276
v -1.459040 1.121743 0.015276
v -0.983170 1.121743 0.015276
v -0.846642 1.121743 0.015276
v -0.846642 1.121743 0.204243
v -0.983170 1.121743 0.204243
v -1.459040 1.121743 0.204243
v -1.595567 1.121743 0.204243
v -1.566915 1.358403 0.062629
v -1.487693 1.358403 0.062629
v -0.954517 1.358403 0.062629
v -0.875295 1.358403 0.062629
v -0.875295 1.358403 0.156890
v -0.954517 1.358403 0.156890
v -1.487693 1.358403 0.156890
v -1.566915 1.358403 0.156890
v -1.986602 0.559880 0.204243
v -1.843408 0.416686 0.204243
v -1.967418 0.488283 0.204243
v -1.915005 0.435870 0.204243
v -1.843408 1.121743 0.204243
v -1.986602 0.978548 0.204243
v -1.915005 1.102558 0.204243
v -1.967418 1.050145 0.204243
v -1.843408 0.416686 0.015276
v -1.986602 0.559880 0.015276
v -1.915005 0.435870 0.015276
v -1.967418 0.488283 0.015276
v -1.986602 0.978548 0.015276
v -1.843408 1.121743 0.015276
v -1.967418 1.050145 0.015276
v -1.915005 1.102558 0.015276
v -0.598802 0.416686 0.204243
v -0.455608 0.559880 0.204243
v -0.527205 0.435870 0.204243
v -0.474792 0.488283 0.204243
v -0.455608 0.978548 0.204243
v -0.598802 1.121743 0.204243
v -0.474792 1.050145 0.204243
v -0.527205 1.102558 0.204243
v -0.455608 0.559880 0.015276
v -0.598802 0.416686 0.015276
v -0.474792 0.488283 0.015276
v -0.527205 0.435870 0.015276
v -0.598802 1.121743 0.015276
v -0.455608 0.978548 0.015276
v -0.527205 1.102558 0.015276
v -0.474792 1.050145 0.015276
vt 0.375000 0.950000
vt 0.625000 0.950000
vt 0.625000 0.981690
vt 0.618198 0.990845
vt 0.599613 0.997547
vt 0.574226 1.000000
vt 0.425774 1.000000
vt 0.400387 0.997547
vt 0.381802 0.990845
vt 0.375000 0.981690
vt 0.375000 0.768310
vt 0.381802 0.759155
vt 0.400387 0.752453
vt 0.425774 0.750000
vt 0.574226 0.750000
vt 0.599613 0.752453
vt 0.618198 0.759155
vt 0.625000 0.768310
vt 0.625000 0.800000
vt 0.375000 0.800000
vt 0.825000 0.500000
vt 0.856690 0.500000
vt 0.856690 0.750000
vt 0.825000 0.750000
vt 0.425774 0.500000
vt 0.574226 0.500000
vt 0.375000 0.268310
vt 0.381802 0.259155
vt 0.400387 0.252453
vt 0.425774 0.250000
vt 0.574226 0.250000
vt 0.599613 0.252453
vt 0.618198 0.259155
vt 0.625000 0.268310
vt 0.625000 0.300000
vt 0.375000 0.300000
vt 0.375000 0.450000
vt 0.625000 0.450000
vt 0.625000 0.481690
vt 0.618198 0.490845
vt 0.599613 0.497547
vt 0.400387 0.497547
vt 0.381802 0.490845
vt 0.375000 0.481690
vt 0.685493 0.712093
vt 0.685493 0.537907
vt 0.685493 0.537907
vt 0.685493 0.712093
vt 0.725000 0.500000
vt 0.775000 0.500000
vt 0.775000 0.750000
vt 0.725000 0.750000
vt 0.785493 0.712093
vt 0.785493 0.537907
vt 0.785493 0.537907
vt 0.785493 0.712093
vt 0.425774 0.000000
vt 0.574226 0.000000
vt 0.175000 0.500000
vt 0.225000 0.500000
vt 0.225000 0.750000
vt 0.175000 0.750000
vt 0.275000 0.500000
vt 0.275000 0.750000
vt 0.325000 0.500000
vt 0.325000 0.750000
vt 0.643310 0.500000
vt 0.675000 0.500000
vt 0.675000 0.750000
vt 0.643310 0.750000
vt 0.625000 0.850000
vt 0.375000 0.850000
vt 0.625000 0.900000
vt 0.375000 0.900000
vt 0.356690 0.500000
vt 0.356690 0.750000
vt 0.625000 0.350000
vt 0.375000 0.350000
vt 0.625000 0.400000
vt 0.375000 0.400000
vt 0.814507 0.537907
vt 0.714507 0.537907
vt 0.714507 0.712093
vt 0.814507 0.712093
vt 0.714507 0.537907
vt 0.714507 0.712093
vt 0.814507 0.537907
vt 0.814507 0.712093
vt 0.143310 0.500000
vt 0.143310 0.750000
vt 0.134155 0.750000
vt 0.134155 0.500000
vt 0.125000 0.750000
vt 0.125000 0.500000
vt 0.375000 0.250000
vt 0.375000 0.000000
vt 0.875000 0.500000
vt 0.875000 0.750000
vt 0.625000 0.000000
vt 0.625000 0.250000
vt 0.599613 0.250000
vt 0.599613 0.000000
vt 0.365845 0.500000
vt 0.365845 0.750000
vt 0.400387 0.500000
vt 0.400387 0.750000
vt 0.634155 0.750000
vt 0.634155 0.500000
vt 0.599613 0.750000
vt 0.599613 0.500000
vn -0.0000 0.0000 1.0000
vn 0.0000 1.0000 0.0000
vn 1.0000 0.0000 0.0000
vn 0.0000 0.0000 -1.0000
vn -1.0000 0.0000 0.0000
vn 0.0000 -1.0000 0.0000
vn -0.2588 -0.9659 0.0000
vn -0.7071 -0.7071 0.0000
vn -0.9659 -0.2588 0.0000
vn -0.2588 0.9659 0.0000
vn -0.7071 0.7071 0.0000
vn -0.9659 0.2588 0.0000
vn 0.2588 -0.9659 0.0000
vn 0.7071 -0.7071 -0.0000
vn 0.9659 -0.2588 0.0000
vn 0.2588 0.9659 0.0000
vn 0.7071 0.7071 0.0000
vn 0.9659 0.2588 0.0000
usemtl None
s off
f 9/1/1 24/2/1 37/3/1 39/4/1 40/5/1 38/6/1 33/7/1 35/8/1 36/9/1 34/10/1
f 49/11/1 51/12/1 52/13/1 50/14/1 53/15/1 55/16/1 56/17/1 54/18/1 21/19/1 12/20/1
f 17/21/2 46/22/2 37/23/2 24/24/2
f 57/25/3 62/26/3 53/15/3 50/14/3
f 41/27/4 43/28/4 44/29/4 42/30/4 45/31/4 47/32/4 48/33/4 46/34/4 17/35/4 4/36/4
f 1/37/4 20/38/4 61/39/4 63/40/4 64/41/4 62/26/4 57/25/4 59/42/4 60/43/4 58/44/4
f 13/45/3 8/46/3 28/47/3 29/48/3
f 19/49/2 18/50/2 23/51/2 22/52/2
f 15/53/3 6/54/3 26/55/3 31/56/3
f 33/57/5 38/58/5 45/31/5 42/30/5
f 4/59/6 3/60/6 10/61/6 9/62/6
f 3/60/6 2/63/6 11/64/6 10/61/6
f 2/63/6 1/65/6 12/66/6 11/64/6
f 61/67/2 20/68/2 21/69/2 54/70/2
f 12/20/1 21/19/1 22/71/1 11/72/1
f 11/72/1 22/71/1 23/73/1 10/74/1
f 10/74/1 23/73/1 24/2/1 9/1/1
f 1/65/6 58/75/6 49/76/6 12/66/6
f 4/36/4 17/35/4 18/77/4 3/78/4
f 3/78/4 18/77/4 19/79/4 2/80/4
f 2/80/4 19/79/4 20/38/4 1/37/4
f 5/81/2 6/54/2 18/50/2 17/21/2
f 7/82/2 8/46/2 20/68/2 19/49/2
f 13/45/2 14/83/2 22/52/2 21/69/2
f 15/53/2 16/84/2 24/24/2 23/51/2
f 8/46/2 13/45/2 21/69/2 20/68/2
f 14/83/2 7/82/2 19/49/2 22/52/2
f 6/54/2 15/53/2 23/51/2 18/50/2
f 16/84/2 5/81/2 17/21/2 24/24/2
f 28/47/2 27/85/2 30/86/2 29/48/2
f 26/55/2 25/87/2 32/88/2 31/56/2
f 14/83/1 13/45/1 29/48/1 30/86/1
f 6/54/4 5/81/4 25/87/4 26/55/4
f 5/81/5 16/84/5 32/88/5 25/87/5
f 7/82/5 14/83/5 30/86/5 27/85/5
f 16/84/1 15/53/1 31/56/1 32/88/1
f 8/46/4 7/82/4 27/85/4 28/47/4
f 41/89/7 34/90/7 36/91/7 43/92/7
f 43/92/8 36/91/8 35/93/8 44/94/8
f 44/95/9 35/96/9 33/57/9 42/30/9
f 37/23/10 46/22/10 48/97/10 39/98/10
f 39/99/11 48/100/11 47/101/11 40/102/11
f 40/102/12 47/101/12 45/31/12 38/58/12
f 49/76/13 58/75/13 60/103/13 51/104/13
f 51/104/14 60/103/14 59/105/14 52/106/14
f 52/106/15 59/105/15 57/25/15 50/14/15
f 61/67/16 54/70/16 56/107/16 63/108/16
f 63/108/17 56/107/17 55/109/17 64/110/17
f 64/110/18 55/109/18 53/15/18 62/26/18
f 41/89/6 4/59/6 9/62/6 34/90/6
o Text
v -0.567666 0.977978 0.222607
v -0.924392 0.977978 0.222607
v -0.924392 0.922905 0.222607
v -0.776695 0.922905 0.222607
v -0.776695 0.551158 0.222607
v -0.715363 0.551158 0.222607
v -0.715363 0.922905 0.222607
v -0.567666 0.922905 0.222607
v -0.982595 0.977978 0.222607
v -1.043927 0.977978 0.222607
v -1.043927 0.551158 0.222607
v -0.982595 0.551158 0.222607
v -1.104633 0.977978 0.222607
v -1.178481 0.977978 0.222607
v -1.311784 0.815261 0.222607
v -1.445713 0.977978 0.222607
v -1.520187 0.977978 0.222607
v -1.349334 0.772078 0.222607
v -1.533330 0.551158 0.222607
v -1.458856 0.551158 0.222607
v -1.311784 0.727644 0.222607
v -1.166590 0.551158 0.222607
v -1.092742 0.551158 0.222607
v -1.274860 0.772078 0.222607
v -1.558363 0.977978 0.222607
v -1.800562 0.977978 0.222607
v -1.800562 0.551158 0.222607
v -1.552731 0.551158 0.222607
v -1.552731 0.606232 0.222607
v -1.739230 0.606232 0.222607
v -1.739230 0.738909 0.222607
v -1.564622 0.738909 0.222607
v -1.564622 0.793983 0.222607
v -1.739230 0.793983 0.222607
v -1.739230 0.922905 0.222607
v -1.558363 0.922905 0.222607
v -0.567666 0.977978 0.163152
v -0.924392 0.977978 0.163152
v -0.924392 0.922905 0.163152
v -0.776695 0.922905 0.163152
v -0.776695 0.551158 0.163152
v -0.715363 0.551158 0.163152
v -0.715363 0.922905 0.163152
v -0.567666 0.922905 0.163152
v -0.982595 0.977978 0.163152
v -1.043927 0.977978 0.163152
v -1.043927 0.551158 0.163152
v -0.982595 0.551158 0.163152
v -1.104633 0.977978 0.163152
v -1.178481 0.977978 0.163152
v -1.311784 0.815261 0.163152
v -1.445713 0.977978 0.163152
v -1.520187 0.977978 0.163152
v -1.349334 0.772078 0.163152
v -1.533330 0.551158 0.163152
v -1.458856 0.551158 0.163152
v -1.311784 0.727644 0.163152
v -1.166590 0.551158 0.163152
v -1.092742 0.551158 0.163152
v -1.274860 0.772078 0.163152
v -1.558363 0.977978 0.163152
v -1.800562 0.977978 0.163152
v -1.800562 0.551158 0.163152
v -1.552731 0.551158 0.163152
v -1.552731 0.606232 0.163152
v -1.739230 0.606232 0.163152
v -1.739230 0.738909 0.163152
v -1.564622 0.738909 0.163152
v -1.564622 0.793983 0.163152
v -1.739230 0.793983 0.163152
v -1.739230 0.922905 0.163152
v -1.558363 0.922905 0.163152
vt 0.285714 0.000000
vt 0.000000 0.000000
vt 0.142857 0.000000
vt 1.000000 0.000000
vt 0.428571 0.000000
vt 0.571429 0.000000
vt 0.857143 0.000000
vt 0.714286 0.000000
vt 0.666667 0.000000
vt 0.000000 0.000000
vt 0.333333 0.000000
vt 1.000000 0.000000
vt 0.454545 0.000000
vt 0.272727 0.000000
vt 0.363636 0.000000
vt 0.181818 0.000000
vt 0.000000 0.000000
vt 0.090909 0.000000
vt 1.000000 0.000000
vt 0.545455 0.000000
vt 0.727273 0.000000
vt 0.909091 0.000000
vt 0.636364 0.000000
vt 0.818182 0.000000
vt 0.181818 0.000000
vt 0.909091 0.000000
vt 0.090909 0.000000
vt 0.000000 0.000000
vt 1.000000 0.000000
vt 0.818182 0.000000
vt 0.545455 0.000000
vt 0.727273 0.000000
vt 0.636364 0.000000
vt 0.454545 0.000000
vt 0.363636 0.000000
vt 0.272727 0.000000
vt 0.285714 0.000000
vt 0.142857 0.000000
vt 0.000000 0.000000
vt 1.000000 0.000000
vt 0.428571 0.000000
vt 0.571429 0.000000
vt 0.857143 0.000000
vt 0.714286 0.000000
vt 0.666667 0.000000
vt 0.333333 0.000000
vt 0.000000 0.000000
vt 1.000000 0.000000
vt 0.454545 0.000000
vt 0.363636 0.000000
vt 0.272727 0.000000
vt 0.181818 0.000000
vt 0.090909 0.000000
vt 0.000000 0.000000
vt 1.000000 0.000000
vt 0.545455 0.000000
vt 0.727273 0.000000
vt 0.909091 0.000000
vt 0.636364 0.000000
vt 0.818182 0.000000
vt 0.181818 0.000000
vt 0.090909 0.000000
vt 0.909091 0.000000
vt 0.000000 0.000000
vt 1.000000 0.000000
vt 0.818182 0.000000
vt 0.545455 0.000000
vt 0.727273 0.000000
vt 0.636364 0.000000
vt 0.454545 0.000000
vt 0.363636 0.000000
vt 0.272727 0.000000
vn 0.0000 0.0000 1.0000
vn 0.0000 0.0000 -1.0000
vn 0.0000 1.0000 0.0000
vn -1.0000 0.0000 0.0000
vn 0.0000 -1.0000 0.0000
vn -0.7736 0.6337 0.0000
vn 0.7721 0.6355 0.0000
vn -0.7696 -0.6386 0.0000
vn -0.7684 0.6400 0.0000
vn -0.7722 -0.6353 0.0000
vn 1.0000 0.0000 0.0000
vn 0.7707 -0.6372 0.0000
vn 0.7716 0.6361 0.0000
vn 0.7682 -0.6402 0.0000
usemtl None
s off
f 67/111/19 65/112/19 66/113/19
f 67/111/19 72/114/19 65/112/19
f 68/115/19 72/114/19 67/111/19
f 69/116/19 71/117/19 68/115/19
f 71/117/19 72/114/19 68/115/19
f 69/116/19 70/118/19 71/117/19
f 75/119/19 73/120/19 74/121/19
f 75/119/19 76/122/19 73/120/19
f 82/123/19 80/124/19 81/125/19
f 82/123/19 79/126/19 80/124/19
f 79/126/19 77/127/19 78/128/19
f 79/126/19 88/129/19 77/127/19
f 82/123/19 88/129/19 79/126/19
f 83/130/19 88/129/19 82/123/19
f 83/130/19 85/131/19 88/129/19
f 85/131/19 87/132/19 88/129/19
f 83/130/19 84/133/19 85/131/19
f 86/134/19 87/132/19 85/131/19
f 91/135/19 99/136/19 90/137/19
f 99/136/19 89/138/19 90/137/19
f 99/136/19 100/139/19 89/138/19
f 91/135/19 98/140/19 99/136/19
f 91/135/19 95/141/19 98/140/19
f 95/141/19 97/142/19 98/140/19
f 95/141/19 96/143/19 97/142/19
f 91/135/19 94/144/19 95/141/19
f 91/135/19 93/145/19 94/144/19
f 91/135/19 92/146/19 93/145/19
f 103/147/20 102/148/20 101/149/20
f 103/147/20 101/149/20 108/150/20
f 104/151/19 103/147/19 108/150/19
f 105/152/20 104/151/20 107/153/20
f 107/153/19 104/151/19 108/150/19
f 105/152/20 107/153/20 106/154/20
f 111/155/20 110/156/20 109/157/20
f 111/155/20 109/157/20 112/158/20
f 118/159/20 117/160/20 116/161/20
f 118/159/20 116/161/20 115/162/20
f 115/162/20 114/163/20 113/164/20
f 115/162/20 113/164/20 124/165/20
f 118/159/20 115/162/20 124/165/20
f 119/166/20 118/159/20 124/165/20
f 119/166/20 124/165/20 121/167/20
f 121/167/20 124/165/20 123/168/20
f 119/166/20 121/167/20 120/169/20
f 122/170/20 121/167/20 123/168/20
f 127/171/20 126/172/20 135/173/20
f 135/173/20 126/172/20 125/174/20
f 135/173/20 125/174/20 136/175/20
f 127/171/20 135/173/20 134/176/20
f 127/171/20 134/176/20 131/177/20
f 131/177/20 134/176/20 133/178/20
f 131/177/20 133/178/20 132/179/20
f 127/171/20 131/177/20 130/180/20
f 127/171/20 130/180/20 129/181/20
f 127/171/20 129/181/20 128/182/20
f 66/113/21 65/112/21 101/149/21 102/148/21
f 67/111/22 66/113/22 102/148/22 103/147/22
f 68/115/23 67/111/23 103/147/23 104/151/23
f 69/116/22 68/115/22 104/151/22 105/152/22
f 70/118/23 69/116/23 105/152/23 106/154/23
f 76/122/23 75/119/23 111/155/23 112/158/23
f 74/121/21 73/120/21 109/157/21 110/156/21
f 75/119/22 74/121/22 110/156/22 111/155/22
f 78/128/21 77/127/21 113/164/21 114/163/21
f 79/126/24 78/128/24 114/163/24 115/162/24
f 80/124/25 79/126/25 115/162/25 116/161/25
f 81/125/21 80/124/21 116/161/21 117/160/21
f 82/123/26 81/125/26 117/160/26 118/159/26
f 83/130/27 82/123/27 118/159/27 119/166/27
f 84/133/23 83/130/23 119/166/23 120/169/23
f 86/134/28 85/131/28 121/167/28 122/170/28
f 91/135/22 90/137/22 126/172/22 127/171/22
f 92/146/23 91/135/23 127/171/23 128/182/23
f 96/143/23 95/141/23 131/177/23 132/179/23
f 100/139/23 99/136/23 135/173/23 136/175/23
f 65/112/29 72/114/29 108/150/29 101/149/29
f 77/127/30 88/129/30 124/165/30 113/164/30
f 97/142/29 96/143/29 132/179/29 133/178/29
f 99/136/29 98/140/29 134/176/29 135/173/29
f 88/129/31 87/132/31 123/168/31 124/165/31
f 90/137/21 89/138/21 125/174/21 126/172/21
f 71/117/29 70/118/29 106/154/29 107/153/29
f 98/140/21 97/142/21 133/178/21 134/176/21
f 72/114/23 71/117/23 107/153/23 108/150/23
f 93/145/29 92/146/29 128/182/29 129/181/29
f 89/138/29 100/139/29 136/175/29 125/174/29
f 94/144/21 93/145/21 129/181/21 130/180/21
f 73/120/29 76/122/29 112/158/29 109/157/29
f 87/132/23 86/134/23 122/170/23 123/168/23
f 85/131/32 84/133/32 120/169/32 121/167/32
f 95/141/29 94/144/29 130/180/29 131/177/29
