# Blender 4.0.2
# www.blender.org
mtllib CrumpledPaper.mtl
o Plane
v -0.870021 0.000000 1.000000
v 0.903558 0.304895 1.116737
v -0.984447 0.203698 -1.131520
v 1.054351 0.130732 -1.063844
v -0.927234 0.101849 -0.065760
v 0.968135 0.089200 0.112772
v 0.098114 0.089200 1.112772
v -0.043251 0.131977 -0.989698
v 0.052570 0.227024 -0.069771
v -1.010919 0.129311 0.583528
v 1.017192 0.133799 0.669158
v 0.028080 0.137725 0.623295
v 0.919078 0.044600 -0.443614
v -1.031143 0.086985 -0.679790
v -0.024001 0.076308 -0.504976
vn 0.0168 0.9915 0.1290
vn 0.0701 0.9970 0.0343
vn -0.0667 0.9969 0.0406
vn 0.0121 0.9833 0.1814
vn -0.0632 0.9764 0.2064
vn -0.1125 0.9846 -0.1340
vn -0.0442 0.9880 -0.1483
vn 0.1157 0.9717 -0.2060
vt 0.500000 0.750000
vt 1.000000 0.750000
vt 1.000000 1.000000
vt 0.500000 1.000000
vt 0.500000 0.250000
vt 1.000000 0.250000
vt 1.000000 0.500000
vt 0.500000 0.500000
vt 0.000000 0.250000
vt 0.000000 0.500000
vt 0.000000 0.750000
vt 0.000000 1.000000
vt 0.000000 0.000000
vt 0.500000 0.000000
vt 1.000000 0.000000
s 0
f 15/1/1 13/2/1 4/3/1 8/4/1
f 12/5/2 11/6/2 6/7/2 9/8/2
f 10/9/3 12/5/3 9/8/3 5/10/3
f 14/11/4 15/1/4 8/4/4 3/12/4
f 1/13/5 7/14/5 12/5/5 10/9/5
f 7/14/6 2/15/6 11/6/6 12/5/6
f 5/10/7 9/8/7 15/1/7 14/11/7
f 9/8/8 6/7/8 13/2/8 15/1/8
