# Blender 4.0.2
# www.blender.org
mtllib Sink.mtl
o SinkBody
v 1.490160 1.000000 -0.656945
v 1.833216 -1.000000 -1.000000
v 1.490160 1.000000 0.656945
v 1.833216 -1.000000 1.000000
v 0.063838 1.000000 -0.610373
v -0.166784 -1.000000 -1.000000
v 0.063838 1.000000 0.610373
v -0.166784 -1.000000 1.000000
v 1.833216 1.000000 1.000000
v -0.054351 1.000000 0.728562
v 1.833216 1.000000 -1.000000
v -0.054351 1.000000 -0.728562
v 1.490160 0.618716 0.656945
v 0.176271 0.618716 0.656945
v 1.490160 0.618716 -0.656945
v 0.176271 0.618716 -0.656945
v 1.490160 0.509262 0.656945
v 0.176271 0.509262 0.656945
v 1.490160 0.509262 -0.656945
v 0.176271 0.509262 -0.656945
v -0.166784 1.000000 1.000000
v -0.166784 1.000000 -1.000000
v 0.176271 1.000000 0.656945
v 0.176271 1.000000 -0.656945
v -0.166784 1.000000 1.000000
v -0.166784 1.000000 -1.000000
v 0.176271 1.000000 0.656945
v 0.176271 1.000000 -0.656945
v -0.054351 1.130694 0.728562
v -0.054351 1.130694 -0.728562
v 0.063838 1.130694 0.610373
v 0.063838 1.130694 -0.610373
v -0.054351 1.130694 0.728562
v -0.054351 1.130694 -0.728562
v 0.063838 1.130694 0.610373
v 0.063838 1.130694 -0.610373
v -0.054351 1.130694 0.728562
v -0.054351 1.130694 -0.728562
v 0.063838 1.130694 0.610373
v 0.063838 1.130694 -0.610373
vn -0.0000 -0.0000 1.0000
vn -1.0000 -0.0000 -0.0000
vn -0.0000 -1.0000 -0.0000
vn 1.0000 -0.0000 -0.0000
vn -0.0000 -0.0000 -1.0000
vn -0.0000 1.0000 -0.0000
vn 0.7071 -0.0000 0.7071
vn 0.7071 -0.0000 -0.7071
vt 0.667882 0.542882
vt 0.832118 0.542882
vt 0.375000 0.750000
vt 0.625000 0.750000
vt 0.625000 1.000000
vt 0.375000 1.000000
vt 0.375000 0.000000
vt 0.625000 0.000000
vt 0.625000 0.250000
vt 0.375000 0.250000
vt 0.125000 0.500000
vt 0.375000 0.500000
vt 0.125000 0.750000
vt 0.625000 0.500000
vt 0.667882 0.707118
vt 0.832118 0.707118
vt 0.875000 0.750000
vt 0.860946 0.716070
vt 0.846172 0.701297
vt 0.875000 0.500000
vt 0.860946 0.533930
vt 0.846172 0.548703
s 0
usemtl Material
f 1/1/1 24/2/1 16/2/1 15/1/1
f 4/3/1 9/4/1 21/5/1 8/6/1
f 8/7/2 21/8/2 22/9/2 6/10/2
f 6/11/3 2/12/3 4/3/3 8/13/3
f 2/12/4 11/14/4 9/4/4 4/3/4
f 6/10/5 22/9/5 11/14/5 2/12/5
f 3/15/6 23/16/6 21/17/6 9/4/6
f 1/1/6 3/15/6 9/4/6 11/14/6
f 10/18/7 7/19/7 35/19/7 33/18/7
f 24/2/6 1/1/6 11/14/6 22/20/6
f 13/15/2 15/1/2 19/1/2 17/15/2
f 3/15/2 1/1/2 15/1/2 13/15/2
f 24/2/4 23/16/4 14/16/4 16/2/4
f 23/16/5 3/15/5 13/15/5 14/16/5
f 19/1/6 20/2/6 18/16/6 17/15/6
f 16/2/4 14/16/4 18/16/4 20/2/4
f 14/16/5 13/15/5 17/15/5 18/16/5
f 15/1/1 16/2/1 20/2/1 19/1/1
f 25/17/6 26/20/6 22/20/6 21/17/6
f 28/2/6 27/16/6 23/16/6 24/2/6
f 27/16/6 25/17/6 21/17/6 23/16/6
f 26/20/6 28/2/6 24/2/6 22/20/6
f 10/18/6 12/21/6 26/20/6 25/17/6
f 5/22/6 7/19/6 27/16/6 28/2/6
f 7/19/6 10/18/6 25/17/6 27/16/6
f 12/21/6 5/22/6 28/2/6 26/20/6
f 31/19/6 32/22/6 30/21/6 29/18/6
f 12/21/2 10/18/2 33/18/2 34/21/2
f 5/22/8 12/21/8 34/21/8 36/22/8
f 7/19/4 5/22/4 36/22/4 35/19/4
f 37/18/6 38/21/6 34/21/6 33/18/6
f 40/22/6 39/19/6 35/19/6 36/22/6
f 39/19/6 37/18/6 33/18/6 35/19/6
f 38/21/6 40/22/6 36/22/6 34/21/6
f 29/18/6 30/21/6 38/21/6 37/18/6
f 32/22/6 31/19/6 39/19/6 40/22/6
f 31/19/6 29/18/6 37/18/6 39/19/6
f 30/21/6 32/22/6 40/22/6 38/21/6
o Facuet
v -0.034652 1.076909 0.038216
v -0.034652 1.384120 0.038216
v -0.034652 1.076909 -0.074306
v -0.034652 1.384120 -0.074306
v 0.086027 1.076909 0.038216
v 0.086027 1.481866 0.038216
v 0.086027 1.076909 -0.074306
v 0.086027 1.481866 -0.074306
v -0.034652 1.230514 0.038216
v -0.034652 1.230514 -0.074306
v 0.086027 1.230514 -0.074306
v 0.086027 1.230514 0.038216
v -0.034652 1.307317 0.038216
v -0.034652 1.307317 -0.074306
v 0.086027 1.399470 -0.074306
v 0.086027 1.399470 0.038216
v 0.184466 1.481866 -0.074306
v 0.184466 1.481866 0.038216
v 0.184466 1.399470 -0.074306
v 0.184466 1.399470 0.038216
vn -1.0000 -0.0000 -0.0000
vn -0.0000 -0.0000 -1.0000
vn -0.0000 1.0000 -0.0000
vn -0.0000 -0.0000 1.0000
vn -0.0000 -1.0000 -0.0000
vn 1.0000 -0.0000 -0.0000
vn -0.6294 0.7771 -0.0000
vt 0.562500 0.000000
vt 0.625000 0.000000
vt 0.625000 0.250000
vt 0.562500 0.250000
vt 0.625000 0.500000
vt 0.562500 0.500000
vt 0.625000 0.750000
vt 0.562500 0.750000
vt 0.625000 1.000000
vt 0.562500 1.000000
vt 0.125000 0.500000
vt 0.375000 0.500000
vt 0.375000 0.750000
vt 0.125000 0.750000
vt 0.500000 0.750000
vt 0.500000 1.000000
vt 0.375000 1.000000
vt 0.500000 0.500000
vt 0.375000 0.250000
vt 0.500000 0.250000
vt 0.375000 0.000000
vt 0.500000 0.000000
s 0
usemtl Material
f 53/23/9 42/24/9 44/25/9 54/26/9
f 54/26/10 44/25/10 48/27/10 55/28/10
f 48/27/11 46/29/11 58/29/11 57/27/11
f 56/30/12 46/29/12 42/31/12 53/32/12
f 43/33/13 47/34/13 45/35/13 41/36/13
f 45/35/12 52/37/12 49/38/12 41/39/12
f 47/34/14 51/40/14 52/37/14 45/35/14
f 43/41/10 50/42/10 51/40/10 47/34/10
f 41/43/9 49/44/9 50/42/9 43/41/9
f 52/37/12 56/30/12 53/32/12 49/38/12
f 51/40/14 55/28/14 56/30/14 52/37/14
f 50/42/10 54/26/10 55/28/10 51/40/10
f 49/44/9 53/23/9 54/26/9 50/42/9
f 59/28/14 57/27/14 58/29/14 60/30/14
f 55/28/10 48/27/10 57/27/10 59/28/10
f 56/30/13 55/28/13 59/28/13 60/30/13
f 46/29/12 56/30/12 60/30/12 58/29/12
f 42/31/15 46/29/15 48/27/15 44/25/15
