# Blender v3.6.4 OBJ File: 'miningscene.blend'
# www.blender.org
mtllib pickaxe.mtl
o Cube_Cube.001
v -0.121651 1.243007 0.121651
v -0.121651 1.486310 0.121651
v -0.121651 1.243007 -0.121651
v -0.121651 1.486310 -0.121651
v -0.136784 1.329293 -0.033546
v -0.136784 1.329293 0.033546
v -0.136784 1.400024 0.033546
v -0.136784 1.400024 -0.033546
v -0.319329 1.347918 -0.120244
v -0.319329 1.347918 0.120244
v -0.319329 1.381399 0.120244
v -0.319329 1.381399 -0.120244
v -0.416316 1.337564 -0.114507
v -0.416316 1.337564 0.114507
v -0.422130 1.370536 0.114507
v -0.422130 1.370536 -0.114507
v -0.513023 1.310890 -0.121651
v -0.513024 1.310890 0.121651
v -0.524475 1.342352 0.121651
v -0.524475 1.342352 -0.121651
v -0.594950 1.316701 0.121651
v -0.594950 1.316701 -0.121651
v -0.179627 1.398317 -0.031927
v -0.179627 1.398317 0.031927
v -0.179627 1.331000 0.031927
v -0.179627 1.331000 -0.031927
v -0.192675 1.395754 -0.110414
v -0.192675 1.333563 0.110414
v -0.192675 1.395754 0.110414
v -0.192675 1.333563 -0.110414
v -0.593959 1.313980 -0.121651
v -0.593960 1.313980 0.121651
v -0.527458 1.305637 -0.121651
v -0.527458 1.305637 0.121651
v -0.570888 1.307533 -0.121651
v -0.590343 1.312294 -0.121651
v -0.590343 1.312294 0.121651
v -0.570888 1.307533 0.121651
v 0.121651 1.449167 -0.059610
v 0.121651 1.280152 -0.059609
v 0.121651 1.280150 0.059611
v 0.121651 1.449167 0.059611
v 0.121651 1.243012 0.121647
v 0.121651 1.486305 0.121647
v 0.121651 1.486305 -0.121647
v 0.121651 1.243010 -0.121649
v 0.121651 1.486310 -0.121651
v 0.222533 1.449167 -0.059610
v 0.121651 1.486310 0.121651
v 0.121651 1.243007 0.121651
v 0.222533 1.299001 -0.059609
v 0.222533 1.449167 0.059611
v 0.222533 1.298999 0.059611
v 0.672246 1.325263 -0.015998
v 0.672246 1.312414 -0.015998
v 0.672246 1.325263 0.015999
v 0.672246 1.312414 0.015999
v 0.447390 1.397156 -0.046070
v 0.447390 1.306710 -0.046069
v 0.447390 1.306709 0.046071
v 0.447390 1.397156 0.046071
v -0.000000 -1.310261 -0.088882
v -0.000000 1.310261 -0.088882
v 0.017340 -1.310261 -0.087174
v 0.017340 1.310261 -0.087174
v 0.034014 -1.310261 -0.082116
v 0.034014 1.310261 -0.082116
v 0.049380 -1.310261 -0.073903
v 0.049380 1.310261 -0.073903
v 0.062849 -1.310261 -0.062849
v 0.062849 1.310261 -0.062849
v 0.073903 -1.310261 -0.049380
v 0.073903 1.310261 -0.049380
v 0.082116 -1.310261 -0.034014
v 0.082116 1.310261 -0.034014
v 0.087174 -1.310261 -0.017340
v 0.087174 1.310261 -0.017340
v 0.088882 -1.310261 0.000000
v 0.088882 1.310261 0.000000
v 0.087174 -1.310261 0.017340
v 0.087174 1.310261 0.017340
v 0.082116 -1.310261 0.034014
v 0.082116 1.310261 0.034014
v 0.073903 -1.310261 0.049380
v 0.073903 1.310261 0.049380
v 0.062849 -1.310261 0.062849
v 0.062849 1.310261 0.062849
v 0.049380 -1.310261 0.073903
v 0.049380 1.310261 0.073903
v 0.034014 -1.310261 0.082116
v 0.034014 1.310261 0.082116
v 0.017340 -1.310261 0.087174
v 0.017340 1.310261 0.087174
v -0.000000 -1.310261 0.088882
v -0.000000 1.310261 0.088882
v -0.017340 -1.310261 0.087174
v -0.017340 1.310261 0.087174
v -0.034014 -1.310261 0.082116
v -0.034014 1.310261 0.082116
v -0.049380 -1.310261 0.073903
v -0.049380 1.310261 0.073903
v -0.062849 -1.310261 0.062849
v -0.062849 1.310261 0.062849
v -0.073903 -1.310261 0.049380
v -0.073903 1.310261 0.049380
v -0.082116 -1.310261 0.034014
v -0.082116 1.310261 0.034014
v -0.087174 -1.310261 0.017340
v -0.087174 1.310261 0.017340
v -0.088882 -1.310261 0.000000
v -0.088882 1.310261 0.000000
v -0.087174 -1.310261 -0.017340
v -0.087174 1.310261 -0.017340
v -0.082116 -1.310261 -0.034014
v -0.082116 1.310261 -0.034014
v -0.073903 -1.310261 -0.049380
v -0.073903 1.310261 -0.049380
v -0.062849 -1.310261 -0.062849
v -0.062849 1.310261 -0.062849
v -0.049380 -1.310261 -0.073903
v -0.049380 1.310261 -0.073903
v -0.034014 -1.310261 -0.082116
v -0.034014 1.310261 -0.082116
v -0.017340 -1.310261 -0.087174
v -0.017340 1.310261 -0.087174
vt 0.625000 0.250000
vt 0.375000 0.250000
vt 0.375000 0.250000
vt 0.625000 0.250000
vt 0.625000 0.500000
vt 0.375000 0.500000
vt 0.375000 0.750000
vt 0.625000 0.750000
vt 0.625000 1.000000
vt 0.375000 1.000000
vt 0.125000 0.500000
vt 0.000000 0.000000
vt 0.875000 0.500000
vt 0.875000 0.750000
vt 0.875000 0.750000
vt 0.875000 0.500000
vt 0.875000 0.500000
vt 0.875000 0.750000
vt 0.625000 1.000000
vt 0.375000 1.000000
vt 0.875000 0.500000
vt 0.875000 0.750000
vt 0.125000 0.750000
vt 0.125000 0.750000
vt 0.125000 0.500000
vt 0.625000 0.250000
vt 0.375000 0.250000
vt 0.375000 0.250000
vt 0.625000 0.250000
vt 0.125000 0.500000
vt 0.125000 0.750000
vt 0.125000 0.750000
vt 0.125000 0.500000
vt 0.625000 0.250000
vt 0.375000 0.250000
vt 0.375000 1.000000
vt 0.625000 1.000000
vt 0.625000 1.000000
vt 0.375000 1.000000
vt 0.875000 0.750000
vt 0.875000 0.500000
vt 0.875000 0.500000
vt 0.875000 0.750000
vt 0.625000 1.000000
vt 0.375000 1.000000
vt 0.125000 0.750000
vt 0.125000 0.500000
vt 0.125000 0.750000
vt 0.125000 0.500000
vt 0.375000 0.250000
vt 0.625000 0.250000
vt 0.625000 1.000000
vt 0.375000 1.000000
vt 0.625000 1.000000
vt 0.603379 1.000000
vt 0.582312 1.000000
vt 0.499221 1.000000
vt 0.375000 1.000000
vt 0.875000 0.500000
vt 0.875000 0.750000
vt 0.625000 1.000000
vt 0.375000 1.000000
vt 0.375000 0.250000
vt 0.625000 0.250000
vt 0.125000 0.750000
vt 0.125000 0.500000
vt 0.875000 0.500000
vt 0.875000 0.750000
vt 0.125000 0.750000
vt 0.125000 0.500000
vt 0.603379 0.000000
vt 0.625000 0.000000
vt 0.625000 0.250000
vt 0.603379 0.250000
vt 0.125000 0.500000
vt 0.125000 0.750000
vt 0.125000 0.750000
vt 0.125000 0.500000
vt 0.375000 0.250000
vt 0.499221 0.250000
vt 0.582312 0.250000
vt 0.125000 0.500000
vt 0.125000 0.750000
vt 0.586835 0.711835
vt 0.413165 0.711835
vt 0.413165 0.711835
vt 0.586835 0.711835
vt 0.586835 0.538165
vt 0.413165 0.538165
vt 0.413165 0.538165
vt 0.586835 0.538165
vt 0.586835 0.538165
vt 0.413165 0.538165
vt 0.586835 0.538165
vt 0.413165 0.538165
vt 0.586835 0.711835
vt 0.413165 0.711835
vt 0.413165 0.711835
vt 0.586835 0.711835
vt 1.000000 0.500000
vt 1.000000 1.000000
vt 0.968750 1.000000
vt 0.968750 0.500000
vt 0.937500 1.000000
vt 0.937500 0.500000
vt 0.906250 1.000000
vt 0.906250 0.500000
vt 0.875000 1.000000
vt 0.875000 0.500000
vt 0.843750 1.000000
vt 0.843750 0.500000
vt 0.812500 1.000000
vt 0.812500 0.500000
vt 0.781250 1.000000
vt 0.781250 0.500000
vt 0.750000 1.000000
vt 0.750000 0.500000
vt 0.718750 1.000000
vt 0.718750 0.500000
vt 0.687500 1.000000
vt 0.687500 0.500000
vt 0.656250 1.000000
vt 0.656250 0.500000
vt 0.625000 1.000000
vt 0.625000 0.500000
vt 0.593750 1.000000
vt 0.593750 0.500000
vt 0.562500 1.000000
vt 0.562500 0.500000
vt 0.531250 1.000000
vt 0.531250 0.500000
vt 0.500000 1.000000
vt 0.500000 0.500000
vt 0.468750 1.000000
vt 0.468750 0.500000
vt 0.437500 1.000000
vt 0.437500 0.500000
vt 0.406250 1.000000
vt 0.406250 0.500000
vt 0.375000 1.000000
vt 0.375000 0.500000
vt 0.343750 1.000000
vt 0.343750 0.500000
vt 0.312500 1.000000
vt 0.312500 0.500000
vt 0.281250 1.000000
vt 0.281250 0.500000
vt 0.250000 1.000000
vt 0.250000 0.500000
vt 0.218750 1.000000
vt 0.218750 0.500000
vt 0.187500 1.000000
vt 0.187500 0.500000
vt 0.156250 1.000000
vt 0.156250 0.500000
vt 0.125000 1.000000
vt 0.125000 0.500000
vt 0.093750 1.000000
vt 0.093750 0.500000
vt 0.062500 1.000000
vt 0.062500 0.500000
vt 0.296822 0.485388
vt 0.250000 0.490000
vt 0.203178 0.485388
vt 0.158156 0.471731
vt 0.116663 0.449553
vt 0.080294 0.419706
vt 0.050447 0.383337
vt 0.028269 0.341844
vt 0.014612 0.296822
vt 0.010000 0.250000
vt 0.014612 0.203178
vt 0.028269 0.158156
vt 0.050447 0.116663
vt 0.080294 0.080294
vt 0.116663 0.050447
vt 0.158156 0.028269
vt 0.203178 0.014612
vt 0.250000 0.010000
vt 0.296822 0.014612
vt 0.341844 0.028269
vt 0.383337 0.050447
vt 0.419706 0.080294
vt 0.449553 0.116663
vt 0.471731 0.158156
vt 0.485388 0.203178
vt 0.490000 0.250000
vt 0.485388 0.296822
vt 0.471731 0.341844
vt 0.449553 0.383337
vt 0.419706 0.419706
vt 0.383337 0.449553
vt 0.341844 0.471731
vt 0.031250 1.000000
vt 0.031250 0.500000
vt 0.000000 1.000000
vt 0.000000 0.500000
vt 0.750000 0.490000
vt 0.796822 0.485388
vt 0.841844 0.471731
vt 0.883337 0.449553
vt 0.919706 0.419706
vt 0.949553 0.383337
vt 0.971731 0.341844
vt 0.985388 0.296822
vt 0.990000 0.250000
vt 0.985388 0.203178
vt 0.971731 0.158156
vt 0.949553 0.116663
vt 0.919706 0.080294
vt 0.883337 0.050447
vt 0.841844 0.028269
vt 0.796822 0.014612
vt 0.750000 0.010000
vt 0.703178 0.014612
vt 0.658156 0.028269
vt 0.616663 0.050447
vt 0.580294 0.080294
vt 0.550447 0.116663
vt 0.528269 0.158156
vt 0.514612 0.203178
vt 0.510000 0.250000
vt 0.514612 0.296822
vt 0.528269 0.341844
vt 0.550447 0.383337
vt 0.580294 0.419706
vt 0.616663 0.449553
vt 0.658156 0.471731
vt 0.703178 0.485388
vn -0.9856 0.0000 -0.1693
vn 0.0000 -0.0000 -1.0000
vn 0.0000 0.0000 1.0000
vn 0.0000 -1.0000 -0.0000
vn 0.0000 1.0000 0.0000
vn -0.1126 0.9936 -0.0000
vn -0.9856 0.0000 0.1693
vn -0.9850 0.1727 0.0000
vn -0.9850 -0.1727 0.0000
vn -0.0568 -0.0050 -0.9984
vn -0.1126 -0.9936 0.0000
vn 0.0774 -0.0000 -0.9970
vn 0.0774 0.0000 0.9970
vn -0.2655 0.9641 0.0000
vn -0.0568 -0.0050 0.9984
vn -0.1051 0.9945 0.0000
vn 0.1062 -0.9943 0.0000
vn 0.2659 -0.9640 0.0000
vn 0.0667 0.0179 -0.9976
vn 0.0667 0.0179 0.9976
vn -0.3420 0.9397 0.0000
vn -0.0378 0.0000 0.9993
vn -0.0378 0.0000 -0.9993
vn -0.0398 -0.9992 0.0000
vn -0.0398 0.9992 0.0000
vn 0.9865 0.0000 0.1640
vn 0.9865 -0.0000 -0.1640
vn -0.1928 -0.9812 0.0000
vn -0.1928 0.9812 -0.0000
vn 0.3420 -0.9397 0.0000
vn -0.9397 -0.3420 -0.0000
vn -0.4226 -0.9063 -0.0000
vn -0.2377 -0.9713 -0.0000
vn -0.0436 -0.9990 0.0000
vn 1.0000 0.0000 0.0000
vn 0.1326 -0.0000 -0.9912
vn 0.1837 -0.9830 -0.0000
vn 0.0254 -0.9997 -0.0000
vn 0.3045 0.9525 0.0000
vn 0.1326 0.0000 0.9912
vn 0.0601 0.0000 0.9982
vn 0.2254 0.9743 0.0000
vn 0.0343 -0.9994 -0.0000
vn 0.0601 -0.0000 -0.9982
vn 0.0980 0.0000 -0.9952
vn 0.2903 0.0000 -0.9569
vn 0.4714 0.0000 -0.8819
vn 0.6344 0.0000 -0.7730
vn 0.7730 0.0000 -0.6344
vn 0.8819 0.0000 -0.4714
vn 0.9569 0.0000 -0.2903
vn 0.9952 0.0000 -0.0980
vn 0.9952 0.0000 0.0980
vn 0.9569 0.0000 0.2903
vn 0.8819 0.0000 0.4714
vn 0.7730 0.0000 0.6344
vn 0.6344 0.0000 0.7730
vn 0.4714 0.0000 0.8819
vn 0.2903 0.0000 0.9569
vn 0.0980 0.0000 0.9952
vn -0.0980 0.0000 0.9952
vn -0.2903 0.0000 0.9569
vn -0.4714 0.0000 0.8819
vn -0.6344 0.0000 0.7730
vn -0.7730 0.0000 0.6344
vn -0.8819 0.0000 0.4714
vn -0.9569 0.0000 0.2903
vn -0.9952 0.0000 0.0980
vn -0.9952 0.0000 -0.0980
vn -0.9569 0.0000 -0.2903
vn -0.8819 0.0000 -0.4714
vn -0.7730 0.0000 -0.6344
vn -0.6344 0.0000 -0.7730
vn -0.4714 0.0000 -0.8819
vn -0.2903 0.0000 -0.9569
vn -0.0980 0.0000 -0.9952
g Cube_Cube.001_pickaxe_head
usemtl pickaxe_head
s off
f 4/1/1 3/2/1 5/3/1 8/4/1
f 3/2/2 4/1/2 47/5/2 46/6/2
f 50/7/3 49/8/3 2/9/3 1/10/3
f 1/10/4 3/11/4 46/12/4 50/7/4
f 47/5/5 4/13/5 2/14/5 49/8/5
f 29/15/6 27/16/6 12/17/6 11/18/6
f 1/10/7 2/9/7 7/19/7 6/20/7
f 2/14/8 4/13/8 8/21/8 7/22/8
f 3/11/9 1/23/9 6/24/9 5/25/9
f 12/26/10 9/27/10 13/28/10 16/29/10
f 30/30/11 28/31/11 10/32/11 9/33/11
f 27/34/12 30/35/12 9/27/12 12/26/12
f 28/36/13 29/37/13 11/38/13 10/39/13
f 15/40/14 16/41/14 20/42/14 19/43/14
f 10/39/15 11/38/15 15/44/15 14/45/15
f 11/18/16 12/17/16 16/41/16 15/40/16
f 9/33/17 10/32/17 14/46/17 13/47/17
f 13/47/18 14/46/18 18/48/18 17/49/18
f 16/29/19 13/28/19 17/50/19 20/51/19
f 14/45/20 15/44/20 19/52/20 18/53/20
f 18/53/3 19/52/3 21/54/3 32/55/3 37/56/3 38/57/3 34/58/3
f 19/43/21 20/42/21 22/59/21 21/60/21
f 6/20/22 7/19/22 24/61/22 25/62/22
f 8/4/23 5/3/23 26/63/23 23/64/23
f 5/25/24 6/24/24 25/65/24 26/66/24
f 7/22/25 8/21/25 23/67/25 24/68/25
f 25/62/26 24/61/26 29/37/26 28/36/26
f 23/64/27 26/63/27 30/35/27 27/34/27
f 26/66/28 25/65/28 28/31/28 30/30/28
f 24/68/29 23/67/29 27/16/29 29/15/29
f 17/49/30 18/48/30 34/69/30 33/70/30
f 32/71/31 21/72/31 22/73/31 31/74/31
f 36/75/32 37/76/32 32/77/32 31/78/32
f 20/51/2 17/50/2 33/79/2 35/80/2 36/81/2 31/74/2 22/73/2
f 37/76/33 36/75/33 35/82/33 38/83/33
f 33/70/34 34/69/34 38/83/34 35/82/34
f 42/84/3 41/85/3 53/86/3 52/87/3
f 39/88/35 40/89/35 46/6/35 47/5/35
f 42/84/35 39/88/35 47/5/35 49/8/35
f 41/85/35 42/84/35 49/8/35 50/7/35
f 40/89/35 41/85/35 50/7/35 46/6/35
f 59/90/36 58/91/36 54/92/36 55/93/36
f 40/89/2 39/88/2 48/94/2 51/95/2
f 41/85/37 40/89/37 51/95/37 53/86/37
f 39/88/5 42/84/5 52/87/5 48/94/5
f 54/92/35 56/96/35 57/97/35 55/93/35
f 60/98/38 59/90/38 55/93/38 57/97/38
f 58/91/39 61/99/39 56/96/39 54/92/39
f 61/99/40 60/98/40 57/97/40 56/96/40
f 52/87/41 53/86/41 60/98/41 61/99/41
f 48/94/42 52/87/42 61/99/42 58/91/42
f 53/86/43 51/95/43 59/90/43 60/98/43
f 51/95/44 48/94/44 58/91/44 59/90/44
g Cube_Cube.001_pickaxe_handle
usemtl pickaxe_handle
f 62/100/45 63/101/45 65/102/45 64/103/45
f 64/103/46 65/102/46 67/104/46 66/105/46
f 66/105/47 67/104/47 69/106/47 68/107/47
f 68/107/48 69/106/48 71/108/48 70/109/48
f 70/109/49 71/108/49 73/110/49 72/111/49
f 72/111/50 73/110/50 75/112/50 74/113/50
f 74/113/51 75/112/51 77/114/51 76/115/51
f 76/115/52 77/114/52 79/116/52 78/117/52
f 78/117/53 79/116/53 81/118/53 80/119/53
f 80/119/54 81/118/54 83/120/54 82/121/54
f 82/121/55 83/120/55 85/122/55 84/123/55
f 84/123/56 85/122/56 87/124/56 86/125/56
f 86/125/57 87/124/57 89/126/57 88/127/57
f 88/127/58 89/126/58 91/128/58 90/129/58
f 90/129/59 91/128/59 93/130/59 92/131/59
f 92/131/60 93/130/60 95/132/60 94/133/60
f 94/133/61 95/132/61 97/134/61 96/135/61
f 96/135/62 97/134/62 99/136/62 98/137/62
f 98/137/63 99/136/63 101/138/63 100/139/63
f 100/139/64 101/138/64 103/140/64 102/141/64
f 102/141/65 103/140/65 105/142/65 104/143/65
f 104/143/66 105/142/66 107/144/66 106/145/66
f 106/145/67 107/144/67 109/146/67 108/147/67
f 108/147/68 109/146/68 111/148/68 110/149/68
f 110/149/69 111/148/69 113/150/69 112/151/69
f 112/151/70 113/150/70 115/152/70 114/153/70
f 114/153/71 115/152/71 117/154/71 116/155/71
f 116/155/72 117/154/72 119/156/72 118/157/72
f 118/157/73 119/156/73 121/158/73 120/159/73
f 120/159/74 121/158/74 123/160/74 122/161/74
f 65/162/5 63/163/5 125/164/5 123/165/5 121/166/5 119/167/5 117/168/5 115/169/5 113/170/5 111/171/5 109/172/5 107/173/5 105/174/5 103/175/5 101/176/5 99/177/5 97/178/5 95/179/5 93/180/5 91/181/5 89/182/5 87/183/5 85/184/5 83/185/5 81/186/5 79/187/5 77/188/5 75/189/5 73/190/5 71/191/5 69/192/5 67/193/5
f 122/161/75 123/160/75 125/194/75 124/195/75
f 124/195/76 125/194/76 63/196/76 62/197/76
f 62/198/4 64/199/4 66/200/4 68/201/4 70/202/4 72/203/4 74/204/4 76/205/4 78/206/4 80/207/4 82/208/4 84/209/4 86/210/4 88/211/4 90/212/4 92/213/4 94/214/4 96/215/4 98/216/4 100/217/4 102/218/4 104/219/4 106/220/4 108/221/4 110/222/4 112/223/4 114/224/4 116/225/4 118/226/4 120/227/4 122/228/4 124/229/4
l 43 50
l 44 49
l 45 47
