# Blender 4.0.2
# www.blender.org
mtllib rock.mtl
o Cube
v 0.087494 -0.243062 -0.288728
v 0.111264 -0.758470 -0.334007
v 0.111775 -0.212428 0.172278
v 0.117871 -0.735541 0.225465
v -0.302565 -0.232058 -0.282097
v -0.389946 -0.759789 -0.334506
v -0.278026 -0.229620 0.195764
v -0.385287 -0.743953 0.256930
v -0.483553 -0.783770 -0.054298
v -0.179654 -0.752860 -0.428107
v 0.145722 -0.495642 -0.385050
v -0.390391 -0.491841 0.280334
v 0.173604 -0.441911 0.253753
v -0.401919 -0.488809 -0.364344
v -0.096112 -0.185262 0.212615
v 0.136857 -0.185806 -0.058870
v -0.129673 -0.768707 0.310022
v -0.324921 -0.200927 -0.037804
v -0.113366 -0.192382 -0.310681
v 0.164606 -0.767225 -0.074076
v -0.100876 -0.171816 -0.056623
v -0.102035 -0.462925 0.387972
v -0.501904 -0.496082 -0.047802
v -0.146448 -0.805329 -0.084559
v 0.274742 -0.487398 -0.071302
v -0.144945 -0.486561 -0.502331
vn 0.1513 0.9727 -0.1758
vn -0.1750 0.9790 -0.1050
vn -0.1767 0.9791 0.1002
vn 0.0995 0.9915 0.0834
vn 0.3956 -0.2133 0.8933
vn 0.3072 0.4567 0.8349
vn -0.2936 0.4661 0.8346
vn -0.2785 -0.1608 0.9469
vn -0.9473 -0.0586 0.3149
vn -0.8429 0.4721 0.2583
vn -0.8604 0.4655 -0.2075
vn -0.9482 -0.0645 -0.3110
vn -0.0551 -0.9904 -0.1267
vn 0.0728 -0.9912 -0.1110
vn 0.1393 -0.9849 0.1029
vn -0.0819 -0.9893 0.1205
vn 0.9174 -0.2704 -0.2919
vn 0.8678 0.3718 -0.3296
vn 0.9097 0.3673 0.1940
vn 0.9254 -0.2814 0.2539
vn -0.4364 -0.1533 -0.8866
vn -0.3458 0.4823 -0.8049
vn 0.2934 0.4566 -0.8399
vn 0.3243 -0.2579 -0.9101
vt 0.625000 0.500000
vt 0.750000 0.500000
vt 0.750000 0.625000
vt 0.625000 0.625000
vt 0.875000 0.500000
vt 0.875000 0.625000
vt 0.875000 0.750000
vt 0.750000 0.750000
vt 0.625000 0.750000
vt 0.375000 0.750000
vt 0.500000 0.750000
vt 0.500000 0.875000
vt 0.375000 0.875000
vt 0.625000 0.875000
vt 0.625000 1.000000
vt 0.500000 1.000000
vt 0.375000 1.000000
vt 0.375000 0.000000
vt 0.500000 0.000000
vt 0.500000 0.125000
vt 0.375000 0.125000
vt 0.625000 0.000000
vt 0.625000 0.125000
vt 0.625000 0.250000
vt 0.500000 0.250000
vt 0.375000 0.250000
vt 0.125000 0.500000
vt 0.250000 0.500000
vt 0.250000 0.625000
vt 0.125000 0.625000
vt 0.375000 0.500000
vt 0.375000 0.625000
vt 0.250000 0.750000
vt 0.125000 0.750000
vt 0.500000 0.500000
vt 0.500000 0.625000
vt 0.500000 0.375000
vt 0.375000 0.375000
vt 0.625000 0.375000
s 0
usemtl Material
f 1/1/1 19/2/1 21/3/1 16/4/1
f 19/2/2 5/5/2 18/6/2 21/3/2
f 21/3/3 18/6/3 7/7/3 15/8/3
f 16/4/4 21/3/4 15/8/4 3/9/4
f 4/10/5 13/11/5 22/12/5 17/13/5
f 13/11/6 3/9/6 15/14/6 22/12/6
f 22/12/7 15/14/7 7/15/7 12/16/7
f 17/13/8 22/12/8 12/16/8 8/17/8
f 8/18/9 12/19/9 23/20/9 9/21/9
f 12/19/10 7/22/10 18/23/10 23/20/10
f 23/20/11 18/23/11 5/24/11 14/25/11
f 9/21/12 23/20/12 14/25/12 6/26/12
f 6/27/13 10/28/13 24/29/13 9/30/13
f 10/28/14 2/31/14 20/32/14 24/29/14
f 24/29/15 20/32/15 4/10/15 17/33/15
f 9/30/16 24/29/16 17/33/16 8/34/16
f 2/31/17 11/35/17 25/36/17 20/32/17
f 11/35/18 1/1/18 16/4/18 25/36/18
f 25/36/19 16/4/19 3/9/19 13/11/19
f 20/32/20 25/36/20 13/11/20 4/10/20
f 6/26/21 14/25/21 26/37/21 10/38/21
f 14/25/22 5/24/22 19/39/22 26/37/22
f 26/37/23 19/39/23 1/1/23 11/35/23
f 10/38/24 26/37/24 11/35/24 2/31/24
