# Blender v3.6.4 OBJ File: 'tv.blend'
# www.blender.org
mtllib book.mtl
o Cube.044_Cube.034
v 2.788239 29.661348 0.625630
v 2.788239 30.523874 0.625630
v 2.788239 29.661348 0.032416
v 2.788239 30.523874 0.032416
v 2.860289 29.661348 0.625630
v 2.860289 30.523874 0.625630
v 2.860289 29.661348 0.032416
v 2.860289 30.523874 0.032416
v 2.846693 29.661348 0.032416
v 2.801835 29.661348 0.032416
v 2.801835 30.523874 0.032416
v 2.846693 30.523874 0.032416
v 2.801835 29.661348 0.625630
v 2.846693 29.661348 0.625630
v 2.846693 30.523874 0.625630
v 2.801835 30.523874 0.625630
v 2.788239 29.661348 0.612782
v 2.788239 30.523874 0.612782
v 2.860289 29.661348 0.612782
v 2.860289 30.523874 0.612782
v 2.846693 30.523874 0.612782
v 2.801835 30.523874 0.612782
v 2.801835 29.661348 0.612782
v 2.846693 29.661348 0.612782
v 2.846693 29.676041 0.042522
v 2.801835 29.676041 0.042522
v 2.801835 30.509182 0.042522
v 2.846693 30.509182 0.042522
v 2.846693 30.509182 0.612782
v 2.801835 30.509182 0.612782
v 2.801835 29.676041 0.612782
v 2.846693 29.676041 0.612782
v 2.788239 29.733944 0.625630
v 2.788239 30.451279 0.625630
v 2.788239 30.451279 0.032416
v 2.788239 29.733944 0.032416
v 2.860289 30.451279 0.032416
v 2.860289 29.733944 0.032416
v 2.860289 30.451279 0.625630
v 2.860289 29.733944 0.625630
v 2.846693 30.451279 0.625630
v 2.846693 29.733944 0.625630
v 2.801835 30.451279 0.625630
v 2.801835 29.733944 0.625630
v 2.801835 30.451279 0.032416
v 2.801835 29.733944 0.032416
v 2.846693 30.451279 0.032416
v 2.846693 29.733944 0.032416
v 2.860289 30.451279 0.612782
v 2.860289 29.733944 0.612782
v 2.788239 30.451279 0.612782
v 2.788239 29.733944 0.612782
v 2.801835 30.439060 0.042522
v 2.801835 29.746162 0.042522
v 2.846693 30.439060 0.042522
v 2.846693 29.746162 0.042522
vt 0.541667 0.005415
vt 0.625000 0.005415
vt 0.625000 0.250000
vt 0.541667 0.250000
vt 0.541667 0.416667
vt 0.625000 0.416667
vt 0.625000 0.500000
vt 0.541667 0.500000
vt 0.541667 0.744586
vt 0.625000 0.744586
vt 0.625000 0.750000
vt 0.541667 0.750000
vt 0.541667 0.916667
vt 0.625000 0.916667
vt 0.625000 1.000000
vt 0.541667 1.000000
vt 0.291667 0.744586
vt 0.375000 0.744586
vt 0.375000 0.750000
vt 0.291667 0.750000
vt 0.791667 0.744586
vt 0.875000 0.744586
vt 0.875000 0.750000
vt 0.791667 0.750000
vt 0.708333 0.744586
vt 0.708333 0.750000
vt 0.125000 0.744586
vt 0.208333 0.744586
vt 0.208333 0.750000
vt 0.125000 0.750000
vt 0.625000 0.833333
vt 0.541667 0.833333
vt 0.625000 0.333333
vt 0.541667 0.333333
vt 0.791667 0.500000
vt 0.791667 0.744586
vt 0.791667 0.500000
vt 0.291667 0.500000
vt 0.291667 0.744586
vt 0.291667 0.500000
vt 0.125000 0.500000
vt 0.208333 0.500000
vt 0.625000 0.333333
vt 0.541667 0.333333
vt 0.708333 0.500000
vt 0.875000 0.500000
vt 0.375000 0.500000
vt 0.541667 0.000000
vt 0.625000 0.000000
vt 0.208333 0.500000
vt 0.208333 0.744586
vt 0.708333 0.744586
vt 0.458333 0.416667
vt 0.375000 0.416667
vt 0.375000 0.416667
vt 0.458333 0.416667
vt 0.708333 0.500000
vt 0.541667 0.416667
vt 0.625000 0.416667
vt 0.375000 0.333333
vt 0.458333 0.333333
vt 0.375000 0.000000
vt 0.458333 0.000000
vt 0.458333 0.005415
vt 0.375000 0.005415
vt 0.458333 0.500000
vt 0.458333 0.744586
vt 0.375000 0.333333
vt 0.458333 0.333333
vt 0.375000 0.250000
vt 0.458333 0.250000
vt 0.375000 0.833333
vt 0.458333 0.833333
vt 0.458333 0.916667
vt 0.375000 0.916667
vt 0.458333 0.750000
vt 0.458333 1.000000
vt 0.375000 1.000000
vn -1.0000 0.0000 0.0000
vn 0.0000 0.0000 -1.0000
vn 1.0000 -0.0000 0.0000
vn 0.0000 0.0000 1.0000
vn 0.0000 -1.0000 0.0000
vn 0.0000 1.0000 0.0000
usemtl gray_book
s off
f 51/1/1 18/2/1 4/3/1 35/4/1
f 47/5/2 12/6/2 8/7/2 37/8/2
f 49/9/3 20/10/3 6/11/3 39/12/3
f 43/13/4 16/14/4 2/15/4 34/16/4
f 24/17/5 19/18/5 5/19/5 14/20/5
f 22/21/6 18/22/6 2/23/6 16/24/6
f 20/10/6 21/25/6 15/26/6 6/11/6
f 21/25/6 22/21/6 16/24/6 15/26/6
f 17/27/5 23/28/5 13/29/5 1/30/5
f 23/28/5 24/17/5 14/20/5 13/29/5
f 39/12/4 6/11/4 15/31/4 41/32/4
f 41/32/4 15/31/4 16/14/4 43/13/4
f 35/4/2 4/3/2 11/33/2 45/34/2
f 11/35/3 22/21/3 30/36/3 27/37/3
f 9/38/1 24/17/1 32/39/1 25/40/1
f 3/41/5 10/42/5 23/28/5 17/27/5
f 45/34/3 11/33/3 27/43/3 53/44/3
f 8/7/6 12/45/6 21/25/6 20/10/6
f 11/35/6 4/46/6 18/22/6 22/21/6
f 9/38/5 7/47/5 19/18/5 24/17/5
f 37/8/3 8/7/3 20/10/3 49/9/3
f 34/48/1 2/49/1 18/2/1 51/1/1
f 26/50/5 25/40/5 32/39/5 31/51/5
f 22/21/2 21/25/2 29/52/2 30/36/2
f 48/53/1 9/54/1 25/55/1 56/56/1
f 24/17/2 23/28/2 31/51/2 32/39/2
f 23/28/3 10/42/3 26/50/3 31/51/3
f 21/25/1 12/45/1 28/57/1 29/52/1
f 12/6/1 47/5/1 55/58/1 28/59/1
f 47/5/1 48/53/1 56/56/1 55/58/1
f 26/60/2 54/61/2 56/56/2 25/55/2
f 1/62/1 33/63/1 52/64/1 17/65/1
f 33/63/1 34/48/1 51/1/1 52/64/1
f 7/47/3 38/66/3 50/67/3 19/18/3
f 38/66/3 37/8/3 49/9/3 50/67/3
f 10/68/3 46/69/3 54/61/3 26/60/3
f 46/69/3 45/34/3 53/44/3 54/61/3
f 3/70/2 36/71/2 46/69/2 10/68/2
f 36/71/2 35/4/2 45/34/2 46/69/2
f 14/72/4 42/73/4 44/74/4 13/75/4
f 42/73/4 41/32/4 43/13/4 44/74/4
f 5/19/4 40/76/4 42/73/4 14/72/4
f 40/76/4 39/12/4 41/32/4 42/73/4
f 13/75/4 44/74/4 33/77/4 1/78/4
f 44/74/4 43/13/4 34/16/4 33/77/4
f 19/18/3 50/67/3 40/76/3 5/19/3
f 50/67/3 49/9/3 39/12/3 40/76/3
f 9/54/2 48/53/2 38/66/2 7/47/2
f 48/53/2 47/5/2 37/8/2 38/66/2
f 17/65/1 52/64/1 36/71/1 3/70/1
f 52/64/1 51/1/1 35/4/1 36/71/1
usemtl paper
f 53/44/2 27/43/2 28/59/2 55/58/2
f 28/57/6 27/37/6 30/36/6 29/52/6
f 54/61/2 53/44/2 55/58/2 56/56/2
