# Blender v3.6.4 OBJ File: 'schoolitems.blend'
# www.blender.org
mtllib schooldoor.mtl
o door_Cube.003
v 0.024228 1.608944 14.576209
v 0.024228 3.077506 14.576209
v 0.024228 1.608944 14.339344
v 0.024228 3.077506 14.339344
v 0.000000 -0.708576 13.956257
v 0.000000 3.418983 13.956257
v 0.000000 -0.708576 15.956257
v 0.000000 3.418983 15.956257
v 0.088056 3.418983 13.956257
v 0.088056 -0.708576 13.956257
v 0.088056 -0.708576 15.956257
v 0.088056 3.418983 15.956257
v 0.088056 3.153626 14.263224
v 0.088056 1.532824 14.263224
v 0.088056 1.532824 14.652329
v 0.088056 3.153626 14.652329
v 0.062476 1.171179 14.303212
v 0.062476 1.243410 14.303212
v 0.062476 1.171179 14.266870
v 0.062476 1.243410 14.266870
v 0.098818 1.171179 14.303212
v 0.098818 1.243410 14.303212
v 0.098818 1.171179 14.266870
v 0.098818 1.243410 14.266870
v 0.233145 1.243410 14.266870
v 0.233145 1.171179 14.266870
v 0.233145 1.171179 14.303212
v 0.233145 1.243410 14.303212
v 0.204860 1.243410 14.303212
v 0.204860 1.243410 14.266870
v 0.204860 1.171179 14.266870
v 0.204860 1.171179 14.303212
v 0.233145 1.243410 14.548999
v 0.233145 1.171179 14.548999
v 0.204860 1.243410 14.548999
v 0.204860 1.171179 14.548999
v 0.181138 1.243410 14.622107
v 0.181138 1.171179 14.622107
v 0.152853 1.243410 14.622107
v 0.152853 1.171179 14.622107
v -0.024228 1.608944 14.576209
v -0.024228 3.077506 14.576209
v -0.024228 1.608944 14.339344
v -0.024228 3.077506 14.339344
v -0.088056 3.418983 13.956257
v -0.088056 -0.708576 13.956257
v -0.088056 -0.708576 15.956257
v -0.088056 3.418983 15.956257
v -0.088056 3.153626 14.263224
v -0.088056 1.532824 14.263224
v -0.088056 1.532824 14.652329
v -0.088056 3.153626 14.652329
v -0.062476 1.171179 14.303212
v -0.062476 1.243410 14.303212
v -0.062476 1.171179 14.266870
v -0.062476 1.243410 14.266870
v -0.098818 1.171179 14.303212
v -0.098818 1.243410 14.303212
v -0.098818 1.171179 14.266870
v -0.098818 1.243410 14.266870
v -0.233145 1.243410 14.266870
v -0.233145 1.171179 14.266870
v -0.233145 1.171179 14.303212
v -0.233145 1.243410 14.303212
v -0.204860 1.243410 14.303212
v -0.204860 1.243410 14.266870
v -0.204860 1.171179 14.266870
v -0.204860 1.171179 14.303212
v -0.233145 1.243410 14.548999
v -0.233145 1.171179 14.548999
v -0.204860 1.243410 14.548999
v -0.204860 1.171179 14.548999
v -0.181138 1.243410 14.622107
v -0.181138 1.171179 14.622107
v -0.152853 1.243410 14.622107
v -0.152853 1.171179 14.622107
vt 0.375000 0.375000
vt 0.625000 0.375000
vt 0.625000 0.500000
vt 0.375000 0.500000
vt 0.436468 0.617856
vt 0.563532 0.617856
vt 0.563532 0.632144
vt 0.436468 0.632144
vt 0.250000 0.500000
vt 0.375000 0.750000
vt 0.250000 0.750000
vt 0.750000 0.500000
vt 0.750000 0.750000
vt 0.625000 0.750000
vt 0.625000 0.875000
vt 0.375000 0.875000
vt 0.570118 0.613265
vt 0.429882 0.613265
vt 0.429882 0.636735
vt 0.570118 0.636735
vt 0.375000 0.000000
vt 0.625000 0.000000
vt 0.625000 0.250000
vt 0.375000 0.250000
vt 0.625000 0.500000
vt 0.375000 0.500000
vt 0.625000 0.500000
vt 0.625000 0.750000
vt 0.625000 0.750000
vt 0.625000 0.500000
vt 0.375000 0.750000
vt 0.625000 0.750000
vt 0.625000 1.000000
vt 0.375000 1.000000
vt 0.125000 0.500000
vt 0.125000 0.750000
vt 0.875000 0.500000
vt 0.875000 0.750000
vt 0.375000 0.500000
vt 0.375000 0.750000
vt 0.375000 0.500000
vt 0.375000 0.750000
vt 0.375000 0.750000
vt 0.625000 0.750000
vt 0.375000 0.750000
vt 0.375000 0.750000
vt 0.375000 0.750000
vt 0.625000 0.750000
vt 0.625000 0.750000
vt 0.625000 0.750000
vt 0.375000 0.500000
vt 0.625000 0.500000
vt 0.436468 0.617856
vt 0.436468 0.632144
vt 0.563532 0.632144
vt 0.563532 0.617856
vt 0.375000 0.750000
vt 0.625000 0.750000
vt 0.570118 0.613265
vt 0.429882 0.613265
vt 0.429882 0.636735
vt 0.570118 0.636735
vt 0.375000 0.000000
vt 0.375000 0.250000
vt 0.625000 0.250000
vt 0.625000 0.000000
vt 0.375000 0.500000
vt 0.625000 0.500000
vt 0.625000 0.500000
vt 0.625000 0.500000
vt 0.625000 0.750000
vt 0.625000 0.750000
vt 0.375000 0.750000
vt 0.375000 1.000000
vt 0.625000 1.000000
vt 0.625000 0.750000
vt 0.125000 0.500000
vt 0.125000 0.750000
vt 0.875000 0.750000
vt 0.875000 0.500000
vt 0.375000 0.500000
vt 0.375000 0.750000
vt 0.375000 0.500000
vt 0.625000 0.750000
vt 0.375000 0.750000
vt 0.375000 0.750000
vt 0.375000 0.750000
vt 0.375000 0.750000
vt 0.375000 0.750000
vt 0.625000 0.750000
vt 0.625000 0.750000
vt 0.625000 0.750000
vn 0.0000 0.0000 -1.0000
vn 1.0000 0.0000 0.0000
vn 0.0000 -1.0000 0.0000
vn 0.0000 1.0000 0.0000
vn 0.0000 0.0000 1.0000
vn 0.7663 0.0000 0.6425
vn 0.7663 0.6425 0.0000
vn 0.7663 -0.6425 0.0000
vn 0.7663 0.0000 -0.6425
vn -1.0000 0.0000 0.0000
vn 0.8149 0.0000 0.5797
vn -0.8149 0.0000 -0.5797
vn -0.7663 0.0000 0.6425
vn -0.7663 0.6425 0.0000
vn -0.7663 -0.6425 0.0000
vn -0.7663 0.0000 -0.6425
vn -0.8149 0.0000 0.5797
vn 0.8149 0.0000 -0.5797
usemtl None
s off
f 5/1/1 6/2/1 9/3/1 10/4/1
f 3/5/2 4/6/2 2/7/2 1/8/2
f 5/9/3 10/4/3 11/10/3 7/11/3
f 9/3/4 6/12/4 8/13/4 12/14/4
f 11/10/5 12/14/5 8/15/5 7/16/5
f 13/17/2 14/18/2 10/4/2 9/3/2
f 14/18/2 15/19/2 11/10/2 10/4/2
f 16/20/2 13/17/2 9/3/2 12/14/2
f 15/19/2 16/20/2 12/14/2 11/10/2
f 4/6/6 3/5/6 14/18/6 13/17/6
f 3/5/7 1/8/7 15/19/7 14/18/7
f 2/7/8 4/6/8 13/17/8 16/20/8
f 1/8/9 2/7/9 16/20/9 15/19/9
f 17/21/10 18/22/10 20/23/10 19/24/10
f 19/24/1 20/23/1 24/25/1 23/26/1
f 30/27/4 29/28/4 28/29/4 25/30/4
f 21/31/5 22/32/5 18/33/5 17/34/5
f 19/35/3 23/26/3 21/31/3 17/36/3
f 24/25/4 20/37/4 18/38/4 22/32/4
f 26/39/2 25/30/2 28/29/2 27/40/2
f 31/41/1 30/27/1 25/30/1 26/39/1
f 29/28/10 32/42/10 36/43/10 35/44/10
f 32/42/3 31/41/3 26/39/3 27/40/3
f 21/31/3 23/26/3 31/41/3 32/42/3
f 22/32/5 21/31/5 32/42/5 29/28/5
f 23/26/1 24/25/1 30/27/1 31/41/1
f 24/25/4 22/32/4 29/28/4 30/27/4
f 36/43/3 34/45/3 38/46/3 40/47/3
f 32/42/3 27/40/3 34/45/3 36/43/3
f 27/40/2 28/29/2 33/48/2 34/45/2
f 28/29/4 29/28/4 35/44/4 33/48/4
f 39/49/5 40/47/5 38/46/5 37/50/5
f 34/45/11 33/48/11 37/50/11 38/46/11
f 35/44/12 36/43/12 40/47/12 39/49/12
f 33/48/4 35/44/4 39/49/4 37/50/4
f 5/1/1 46/51/1 45/52/1 6/2/1
f 43/53/10 41/54/10 42/55/10 44/56/10
f 5/9/3 7/11/3 47/57/3 46/51/3
f 45/52/4 48/58/4 8/13/4 6/12/4
f 47/57/5 7/16/5 8/15/5 48/58/5
f 49/59/10 45/52/10 46/51/10 50/60/10
f 50/60/10 46/51/10 47/57/10 51/61/10
f 52/62/10 48/58/10 45/52/10 49/59/10
f 51/61/10 47/57/10 48/58/10 52/62/10
f 44/56/13 49/59/13 50/60/13 43/53/13
f 43/53/14 50/60/14 51/61/14 41/54/14
f 42/55/15 52/62/15 49/59/15 44/56/15
f 41/54/16 51/61/16 52/62/16 42/55/16
f 53/63/2 55/64/2 56/65/2 54/66/2
f 55/64/1 59/67/1 60/68/1 56/65/1
f 66/69/4 61/70/4 64/71/4 65/72/4
f 57/73/5 53/74/5 54/75/5 58/76/5
f 55/77/3 53/78/3 57/73/3 59/67/3
f 60/68/4 58/76/4 54/79/4 56/80/4
f 62/81/10 63/82/10 64/71/10 61/70/10
f 67/83/1 62/81/1 61/70/1 66/69/1
f 65/72/2 71/84/2 72/85/2 68/86/2
f 68/86/3 63/82/3 62/81/3 67/83/3
f 57/73/3 68/86/3 67/83/3 59/67/3
f 58/76/5 65/72/5 68/86/5 57/73/5
f 59/67/1 67/83/1 66/69/1 60/68/1
f 60/68/4 66/69/4 65/72/4 58/76/4
f 72/85/3 76/87/3 74/88/3 70/89/3
f 68/86/3 72/85/3 70/89/3 63/82/3
f 63/82/10 70/89/10 69/90/10 64/71/10
f 64/71/4 69/90/4 71/84/4 65/72/4
f 75/91/5 73/92/5 74/88/5 76/87/5
f 70/89/17 74/88/17 73/92/17 69/90/17
f 71/84/18 75/91/18 76/87/18 72/85/18
f 69/90/4 73/92/4 75/91/4 71/84/4
