# Blender v3.6.4 OBJ File: ''
# www.blender.org
mtllib Diamond.mtl
o Diamond_Cylinder
v 2.095323 0.501322 -0.448387
v 2.095323 1.747573 -1.448387
v 2.478006 1.747573 -1.372266
v 2.802430 1.747573 -1.155494
v 3.019202 1.747573 -0.831070
v 3.095323 1.747573 -0.448387
v 3.019202 1.747573 -0.065703
v 2.802430 1.747573 0.258720
v 2.478006 1.747573 0.475493
v 2.095323 1.747573 0.551613
v 1.712639 1.747573 0.475493
v 1.388216 1.747573 0.258720
v 1.171443 1.747573 -0.065703
v 1.095323 1.747573 -0.448387
v 1.171443 1.747573 -0.831070
v 1.388216 1.747573 -1.155494
v 1.712639 1.747573 -1.372266
v 2.095323 2.076703 -0.448387
v 2.326087 2.076703 -1.005501
v 2.095323 2.076703 -1.051403
v 2.521719 2.076703 -0.874783
v 2.652437 2.076703 -0.679151
v 2.698339 2.076703 -0.448387
v 2.652437 2.076703 -0.217623
v 2.521719 2.076703 -0.021990
v 2.326087 2.076703 0.108727
v 2.095323 2.076703 0.154629
v 1.864559 2.076703 0.108727
v 1.668926 2.076703 -0.021990
v 1.538209 2.076703 -0.217623
v 1.492307 2.076703 -0.448387
v 1.538209 2.076703 -0.679151
v 1.668926 2.076703 -0.874783
v 1.864559 2.076703 -1.005501
v 2.245122 2.076703 -0.810035
v 2.095323 2.076703 -0.839832
v 2.372116 2.076703 -0.725180
v 2.456971 2.076703 -0.598186
v 2.486768 2.076703 -0.448387
v 2.456971 2.076703 -0.298587
v 2.372116 2.076703 -0.171593
v 2.245122 2.076703 -0.086739
v 2.095323 2.076703 -0.056942
v 1.945523 2.076703 -0.086739
v 1.818529 2.076703 -0.171593
v 1.733675 2.076703 -0.298587
v 1.703878 2.076703 -0.448387
v 1.733675 2.076703 -0.598186
v 1.818529 2.076703 -0.725180
v 1.945523 2.076703 -0.810035
vt 1.000000 0.500000
vt 1.000000 1.000000
vt 0.937500 1.000000
vt 0.937500 0.500000
vt 0.875000 1.000000
vt 0.875000 0.500000
vt 0.812500 1.000000
vt 0.812500 0.500000
vt 0.750000 1.000000
vt 0.750000 0.500000
vt 0.687500 1.000000
vt 0.687500 0.500000
vt 0.625000 1.000000
vt 0.625000 0.500000
vt 0.562500 1.000000
vt 0.562500 0.500000
vt 0.500000 1.000000
vt 0.500000 0.500000
vt 0.437500 1.000000
vt 0.437500 0.500000
vt 0.375000 1.000000
vt 0.375000 0.500000
vt 0.312500 1.000000
vt 0.312500 0.500000
vt 0.250000 1.000000
vt 0.250000 0.500000
vt 0.187500 1.000000
vt 0.187500 0.500000
vt 0.125000 1.000000
vt 1.000000 1.000000
vt 0.937500 1.000000
vt 0.125000 0.500000
vt 0.062500 1.000000
vt 0.062500 0.500000
vt 0.000000 1.000000
vt 0.250000 1.000000
vt 0.187500 1.000000
vt 0.687500 1.000000
vt 0.625000 1.000000
vt 0.375000 1.000000
vt 0.312500 1.000000
vt 0.062500 1.000000
vt 0.000000 1.000000
vt 0.812500 1.000000
vt 0.750000 1.000000
vt 0.500000 1.000000
vt 0.437500 1.000000
vt 0.125000 1.000000
vt 0.875000 1.000000
vt 0.562500 1.000000
vt 0.250000 0.405795
vt 0.309620 0.393936
vt 0.341844 0.471731
vt 0.250000 0.490000
vt 0.360164 0.360164
vt 0.419706 0.419706
vt 0.393936 0.309620
vt 0.471731 0.341844
vt 0.405795 0.250000
vt 0.490000 0.250000
vt 0.393936 0.190380
vt 0.471731 0.158156
vt 0.360164 0.139836
vt 0.419706 0.080294
vt 0.309620 0.106064
vt 0.341844 0.028269
vt 0.250000 0.094205
vt 0.250000 0.010000
vt 0.190380 0.106064
vt 0.158156 0.028269
vt 0.139836 0.139836
vt 0.080294 0.080294
vt 0.106064 0.190380
vt 0.028269 0.158156
vt 0.094205 0.250000
vt 0.010000 0.250000
vt 0.106064 0.309620
vt 0.028269 0.341844
vt 0.139836 0.360164
vt 0.080294 0.419706
vt 0.190380 0.393936
vt 0.158156 0.471731
vt 0.288875 0.343853
vt 0.321832 0.321832
vt 0.343853 0.288875
vt 0.351586 0.250000
vt 0.343853 0.211125
vt 0.321832 0.178168
vt 0.288875 0.156147
vt 0.250000 0.148414
vt 0.211125 0.156147
vt 0.178168 0.178168
vt 0.156147 0.211125
vt 0.148414 0.250000
vt 0.156147 0.288875
vt 0.178168 0.321832
vt 0.211125 0.343853
vt 0.250000 0.351586
vn 0.1533 -0.6184 -0.7707
vn 0.4366 -0.6184 -0.6534
vn 0.6534 -0.6184 -0.4366
vn 0.7707 -0.6184 -0.1533
vn 0.7707 -0.6184 0.1533
vn 0.6534 -0.6184 0.4366
vn 0.4366 -0.6184 0.6534
vn 0.1533 -0.6184 0.7707
vn -0.1533 -0.6184 0.7707
vn -0.4366 -0.6184 0.6534
vn -0.6534 -0.6184 0.4366
vn -0.7707 -0.6184 0.1533
vn -0.7707 -0.6184 -0.1533
vn -0.6534 -0.6184 -0.4366
vn 0.1259 0.7637 -0.6332
vn -0.4366 -0.6184 -0.6534
vn -0.1533 -0.6184 -0.7707
vn -0.6332 0.7637 -0.1259
vn 0.5368 0.7637 0.3587
vn -0.5368 0.7637 0.3587
vn -0.1259 0.7637 -0.6332
vn 0.6332 0.7637 -0.1259
vn -0.1259 0.7637 0.6332
vn -0.5368 0.7637 -0.3587
vn 0.3587 0.7637 -0.5368
vn 0.3587 0.7637 0.5368
vn -0.6332 0.7637 0.1259
vn 0.6332 0.7637 0.1259
vn -0.3587 0.7637 0.5368
vn -0.3587 0.7637 -0.5368
vn 0.5368 0.7637 -0.3587
vn 0.1259 0.7637 0.6332
vn 0.0000 1.0000 0.0000
usemtl Material.002
s off
f 1/1/1 2/2/1 3/3/1
f 1/4/2 3/3/2 4/5/2
f 1/6/3 4/5/3 5/7/3
f 1/8/4 5/7/4 6/9/4
f 1/10/5 6/9/5 7/11/5
f 1/12/6 7/11/6 8/13/6
f 1/14/7 8/13/7 9/15/7
f 1/16/8 9/15/8 10/17/8
f 1/18/9 10/17/9 11/19/9
f 1/20/10 11/19/10 12/21/10
f 1/22/11 12/21/11 13/23/11
f 1/24/12 13/23/12 14/25/12
f 1/26/13 14/25/13 15/27/13
f 1/28/14 15/27/14 16/29/14
f 3/3/15 2/2/15 20/30/15 19/31/15
f 1/32/16 16/29/16 17/33/16
f 1/34/17 17/33/17 2/35/17
f 15/27/18 14/25/18 31/36/18 32/37/18
f 8/13/19 7/11/19 24/38/19 25/39/19
f 13/23/20 12/21/20 29/40/20 30/41/20
f 2/35/21 17/33/21 34/42/21 20/43/21
f 6/9/22 5/7/22 22/44/22 23/45/22
f 11/19/23 10/17/23 27/46/23 28/47/23
f 16/29/24 15/27/24 32/37/24 33/48/24
f 4/5/25 3/3/25 19/31/25 21/49/25
f 9/15/26 8/13/26 25/39/26 26/50/26
f 14/25/27 13/23/27 30/41/27 31/36/27
f 7/11/28 6/9/28 23/45/28 24/38/28
f 12/21/29 11/19/29 28/47/29 29/40/29
f 17/33/30 16/29/30 33/48/30 34/42/30
f 5/7/31 4/5/31 21/49/31 22/44/31
f 10/17/32 9/15/32 26/50/32 27/46/32
f 36/51/33 35/52/33 19/53/33 20/54/33
f 35/52/33 37/55/33 21/56/33 19/53/33
f 37/55/33 38/57/33 22/58/33 21/56/33
f 38/57/33 39/59/33 23/60/33 22/58/33
f 39/59/33 40/61/33 24/62/33 23/60/33
f 40/61/33 41/63/33 25/64/33 24/62/33
f 41/63/33 42/65/33 26/66/33 25/64/33
f 42/65/33 43/67/33 27/68/33 26/66/33
f 43/67/33 44/69/33 28/70/33 27/68/33
f 44/69/33 45/71/33 29/72/33 28/70/33
f 45/71/33 46/73/33 30/74/33 29/72/33
f 46/73/33 47/75/33 31/76/33 30/74/33
f 47/75/33 48/77/33 32/78/33 31/76/33
f 48/77/33 49/79/33 33/80/33 32/78/33
f 49/79/33 50/81/33 34/82/33 33/80/33
f 50/81/33 36/51/33 20/54/33 34/82/33
f 18/83/33 35/52/33 36/51/33
f 18/84/33 37/55/33 35/52/33
f 18/85/33 38/57/33 37/55/33
f 18/86/33 39/59/33 38/57/33
f 18/87/33 40/61/33 39/59/33
f 18/88/33 41/63/33 40/61/33
f 18/89/33 42/65/33 41/63/33
f 18/90/33 43/67/33 42/65/33
f 18/91/33 44/69/33 43/67/33
f 18/92/33 45/71/33 44/69/33
f 18/93/33 46/73/33 45/71/33
f 18/94/33 47/75/33 46/73/33
f 18/95/33 48/77/33 47/75/33
f 18/96/33 49/79/33 48/77/33
f 18/97/33 50/81/33 49/79/33
f 18/98/33 36/51/33 50/81/33
