# Blender 3.6.4
# www.blender.org
mtllib paintingframe.mtl
o Cube
v 6.900000 5.690000 8.958779
v 6.900000 -5.690000 8.958779
v 5.310271 4.379049 9.758779
v 5.310271 -4.379049 9.758779
v -6.900000 5.690000 8.958779
v -6.900000 -5.690000 8.958779
v -5.310271 4.379049 9.758779
v -5.310271 -4.379049 9.758779
v 0.000000 0.000000 -0.000001
v 0.000000 0.000000 -0.000001
v 0.000000 0.000000 -0.000001
v 0.000000 0.000000 -0.000001
v 0.000000 0.000000 -0.000001
v 0.000000 0.000000 -0.000001
v 0.000000 0.000000 -0.000001
v 0.000000 0.000000 -0.000001
v -6.900000 -5.690000 9.758779
v -6.900000 5.690000 9.758779
v 6.900000 5.690000 9.758779
v 6.900000 -5.690000 9.758779
v -5.310271 -4.379049 9.154684
v -5.310271 4.379049 9.154684
v 5.310271 4.379049 9.154684
v 5.310271 -4.379049 9.154684
vn -0.0000 1.0000 -0.0000
vn -0.0000 -1.0000 -0.0000
vn -1.0000 -0.0000 -0.0000
vn 1.0000 -0.0000 -0.0000
vn -0.0000 -0.0000 -1.0000
vn -0.0000 -0.0000 1.0000
vt 0.625000 0.500000
vt 0.875000 0.500000
vt 0.875000 0.750000
vt 0.625000 0.750000
vt 0.596201 0.778799
vt 0.596201 0.971201
vt 0.375000 0.000000
vt 0.625000 0.000000
vt 0.625000 0.250000
vt 0.375000 0.250000
vt 0.125000 0.500000
vt 0.375000 0.500000
vt 0.375000 0.750000
vt 0.125000 0.750000
vt 0.625000 1.000000
vt 0.375000 1.000000
vt 0.403799 0.971201
vt 0.403799 0.778799
s 0
usemtl Material
f 1/1/1 5/2/1 18/3/1 19/4/1
f 3/5/2 7/6/2 22/6/2 23/5/2
f 17/7/3 18/8/3 5/9/3 6/10/3
f 6/11/2 2/12/2 20/13/2 17/14/2
f 2/12/4 1/1/4 19/4/4 20/13/4
f 6/10/5 5/9/5 1/1/5 2/12/5
f 9/7/1 10/8/1 12/9/1 11/10/1
f 11/10/1 12/9/1 16/1/1 15/12/1
f 15/12/1 16/1/1 14/4/1 13/13/1
f 13/13/1 14/4/1 10/15/1 9/16/1
f 11/11/1 15/12/1 13/13/1 9/14/1
f 16/1/1 12/2/1 10/3/1 14/4/1
f 8/17/6 7/6/6 18/15/6 17/16/6
f 3/5/6 4/18/6 20/13/6 19/4/6
f 7/6/6 3/5/6 19/4/6 18/15/6
f 4/18/6 8/17/6 17/16/6 20/13/6
f 24/18/6 23/5/6 22/6/6 21/17/6
f 7/6/4 8/17/4 21/17/4 22/6/4
f 8/17/1 4/18/1 24/18/1 21/17/1
f 4/18/3 3/5/3 23/5/3 24/18/3
