# Blender 3.6.4
# www.blender.org
mtllib potentialDeadTree.mtl
o Cube
v 0.743284 0.991358 -0.755636
v 1.000000 -1.000000 -1.000000
v 0.671391 0.996520 0.924607
v 1.000000 -1.000000 1.000000
v -0.750683 0.990898 -0.778981
v -1.000000 -1.000000 -1.000000
v -0.806194 0.988195 0.600785
v -1.000000 -1.000000 1.000000
v -0.956474 -0.956474 0.056920
v 1.123909 0.968596 -0.112051
v -0.981707 0.977382 0.235116
v 0.956474 -0.956474 0.056920
v 0.675695 3.048324 0.918320
v -0.801889 3.039999 0.594497
v 1.128213 3.020400 -0.118339
v -0.977403 3.029185 0.228829
v -0.746378 3.042702 -0.785268
v 0.747589 3.043161 -0.761924
v 0.170862 5.202199 0.922615
v -1.067610 5.195220 0.651195
v 0.550151 5.178793 0.053716
v -1.214721 5.186156 0.344702
v -1.021082 5.197486 -0.505287
v 0.231121 5.197871 -0.485720
v 0.174063 6.727985 0.917939
v -1.064409 6.721006 0.646519
v 0.553351 6.704579 0.049040
v -1.211520 6.711943 0.340026
v -1.017881 6.723272 -0.509963
v 0.234322 6.723657 -0.490397
v 0.174152 6.770236 0.917810
v -1.064320 6.763257 0.646390
v 0.553440 6.746830 0.048910
v -1.211431 6.754193 0.339897
v -1.017793 6.765523 -0.510093
v 0.234411 6.765908 -0.490526
v 1.399486 9.257961 1.305777
v 0.462952 9.252684 1.100529
v 1.686304 9.240261 0.648714
v 0.351706 9.245830 0.868758
v 0.498136 9.254396 0.225995
v 1.445054 9.254688 0.240791
v 2.420512 10.035005 3.724318
v 1.900689 10.032075 3.610395
v 2.579711 10.025180 3.359615
v 1.838943 10.028271 3.481750
v 2.915663 10.319471 6.275789
v 2.515994 10.317219 6.188199
v 3.038064 10.311917 5.995386
v 2.468519 10.314294 6.089290
v 3.602785 10.718446 9.764019
v 3.375229 10.717164 9.714149
v 3.672475 10.714146 9.604369
v 3.348199 10.715498 9.657835
v 1.546042 12.004770 -2.309156
v 1.642936 12.010439 -2.734480
v 2.269523 12.010632 -2.724689
v 2.429161 12.001085 -2.454762
v -0.035145 14.386274 -4.751555
v 0.012515 14.389062 -4.960759
v 0.320713 14.389157 -4.955943
v 0.399234 14.384461 -4.823174
v 0.189784 8.807425 1.019301
v 0.072123 8.800175 0.774166
v 0.226997 8.809237 0.094338
v 1.228518 8.809545 0.109988
v 1.483680 8.794286 0.541433
v 1.180322 8.813006 1.236385
v 0.091798 9.420957 0.811882
v 0.238227 9.429523 0.169119
v -0.032912 8.984364 0.037462
v -0.187785 8.975302 0.717289
v -3.432667 8.974711 -1.988073
v -3.369261 8.978420 -2.266396
v -3.486667 8.785662 -2.323405
v -3.553729 8.781737 -2.029032
v -6.757241 9.980807 -0.425982
v -6.693836 9.984516 -0.704306
v -6.811242 9.791758 -0.761315
v -6.878304 9.787833 -0.466942
v 0.200542 8.700851 0.978710
v 0.567174 9.298454 1.087729
v -0.372630 9.628855 1.205098
v -0.652213 9.183200 1.110506
v -5.933247 11.944368 3.826885
v -5.566615 12.541971 3.935904
v -4.942765 12.045519 3.327203
v -5.222348 11.599864 3.232610
v 1.633730 11.252038 1.187559
v 1.780160 11.260605 0.544796
v 1.373821 11.427165 1.130682
v 1.520251 11.435732 0.487919
v 4.351529 10.368831 0.754581
v 4.427483 10.373274 0.421175
v 4.216712 10.459670 0.725079
v 4.292666 10.464114 0.391673
v 4.540465 8.205871 -1.561519
v 4.684214 8.197274 -1.318460
v 4.563480 7.931540 -1.382383
v 4.411443 7.940632 -1.639458
v 4.913344 8.090487 -1.786126
v 5.057093 8.081890 -1.543066
v 4.936360 7.816157 -1.606989
v 4.784322 7.825249 -1.864065
v 4.547883 8.005486 -3.347311
v 4.691632 7.996890 -3.104252
v 4.570899 7.731156 -3.168175
v 4.418861 7.740248 -3.425251
v 4.950190 9.885975 -1.744415
v 5.093938 9.877378 -1.501355
v 5.323069 9.770591 -1.969021
v 5.466818 9.761994 -1.725961
v 6.111855 9.496365 1.086984
v 6.255603 9.487768 1.330044
v 6.484734 9.380980 0.862378
v 6.628483 9.372384 1.105438
v 2.072194 9.106008 0.395500
v 1.843494 9.119685 0.008798
v 1.638223 8.697699 -0.115200
v 1.880111 8.683233 0.293800
v 0.012520 10.888241 -3.402707
v -0.104531 10.647614 -3.473414
v 0.227901 10.815263 -3.528113
v 0.116939 10.587154 -3.595141
v -0.995116 9.500965 -4.811550
v -1.073306 9.340225 -4.858783
v -0.851242 9.452215 -4.895322
v -0.925364 9.299838 -4.940097
v 3.349721 9.293424 -4.353957
v 3.401743 9.407924 -4.326413
v 3.510388 9.243707 -4.450735
v 3.562410 9.358207 -4.423192
v -0.271898 8.251806 0.657772
v 0.962075 8.261805 -0.050963
v 0.910646 8.265499 1.151000
v -0.146344 8.259542 0.919353
v -0.106634 8.261476 -0.067663
v 1.234355 8.245522 0.409426
v -1.192054 8.029557 5.696778
v -0.855927 8.577439 5.796727
v 0.134612 8.583021 6.013811
v -0.135064 8.035514 5.928425
v -1.236970 8.019679 5.901979
v -0.900842 8.567561 6.001928
v 0.089697 8.573143 6.219012
v -0.179980 8.025636 6.133626
v -2.563260 9.403541 8.078046
v -2.354075 9.744509 8.140248
v -1.737624 9.747982 8.275348
v -1.905454 9.407248 8.222209
v 5.338908 6.069836 2.486765
v 5.461547 6.339763 2.551697
v 5.312330 6.348971 2.893532
v 5.179681 6.079662 2.851533
v 4.939422 4.522095 3.512068
v 4.841011 4.528168 3.737515
v 4.922996 4.694618 3.763474
v 5.015221 4.688926 3.552199
v 4.903866 6.683877 2.269866
v 4.733038 6.694419 2.661207
v 4.581179 6.386107 2.613125
v 4.763466 6.374858 2.195530
v 6.928808 6.495395 -1.332332
v 7.099364 6.390154 -1.246140
v 6.885870 6.400888 -1.355066
v 7.061857 6.307603 -1.265998
v 5.184574 6.079250 2.838719
v 4.586072 6.385695 2.600311
v 5.317223 6.348559 2.880718
v 4.737932 6.694007 2.648393
v 3.726334 6.344176 3.885590
v 3.334562 6.544772 3.729531
v 3.813165 6.520463 3.913083
v 3.433968 6.746590 3.761005
v 2.595042 6.550097 6.572049
v 2.441225 6.628855 6.510777
v 2.629133 6.619311 6.582843
v 2.480253 6.708092 6.523135
v 0.506736 8.664863 4.313728
v 0.237060 8.117356 4.228343
v -0.819931 8.111400 3.996696
v -0.483803 8.659282 4.096645
v 0.423814 8.158429 3.375140
v -0.633177 8.152472 3.143493
v 0.693490 8.705936 3.460525
v -0.297049 8.700355 3.243441
v -2.865053 8.339433 2.442896
v -2.978876 8.314400 2.962908
v -3.183739 7.980475 2.901990
v -3.069916 8.005508 2.381979
v -4.751581 9.232050 1.279880
v -4.789554 9.223699 1.453364
v -4.857900 9.112297 1.433041
v -4.819927 9.120648 1.259558
v 2.286073 7.873391 3.769040
v 2.099319 7.832317 4.622243
v 1.829643 7.284811 4.536858
v 2.016397 7.325884 3.683655
v 3.828861 7.606105 3.011978
v 3.674997 7.572265 3.714921
v 3.452815 7.121181 3.644573
v 3.606679 7.155021 2.941631
v 4.684908 7.470569 4.807221
v 4.570297 7.445362 5.330834
v 4.404796 7.109355 5.278433
v 4.519407 7.134562 4.754820
v 1.893366 8.261476 -3.067662
v 2.226997 8.809237 -2.905662
v 3.228518 8.809545 -2.890012
v 2.962075 8.261805 -3.050963
v 4.109641 6.309035 -5.856295
v 4.290430 6.605857 -5.768509
v 4.833136 6.606024 -5.760029
v 4.688756 6.309214 -5.847246
v -0.794822 7.481434 0.515146
v 0.512177 7.348102 -0.330837
v 0.522525 7.345006 0.990155
v -0.642702 7.471459 0.795040
v -0.653334 7.479731 -0.289553
v 0.832115 7.291600 0.158773
v -3.114180 4.876063 0.231338
v -2.985014 4.883620 -0.335645
v -2.836282 5.361167 0.348238
v -2.741903 5.360031 -0.188535
v 0.181451 5.633448 -2.759202
v 0.895278 5.633667 -2.748048
v 1.053620 5.965551 -2.657016
v 0.389213 6.040587 -2.633482
v 3.727647 3.546388 -0.070787
v 4.046677 3.527311 0.468650
v 4.005413 4.128583 0.088902
v 4.325351 4.072081 0.578513
v 5.247234 0.423493 -1.155297
v 5.433833 0.412334 -0.839784
v 5.409698 0.764015 -1.061896
v 5.596828 0.730967 -0.775525
vn -0.2141 0.0034 0.9768
vn -0.0924 0.1147 0.9891
vn -0.9937 0.0660 -0.0909
vn -0.0000 -0.9989 -0.0461
vn 0.9779 0.0528 0.2024
vn 0.0066 0.1161 -0.9932
vn 0.9805 0.0261 -0.1947
vn -0.0000 -0.9992 0.0411
vn -0.9937 0.0484 0.1014
vn 0.0156 -0.0031 -0.9999
vn 0.8347 0.2622 -0.4844
vn 0.8982 0.2097 0.3864
vn 0.8607 -0.0034 -0.5091
vn -0.9750 0.0014 -0.2221
vn 0.9165 -0.0007 0.4001
vn -0.9016 0.0032 0.4326
vn -0.9704 -0.0948 -0.2223
vn -0.2135 -0.0520 0.9756
vn -0.8934 -0.1215 0.4324
vn 0.0154 0.1308 -0.9913
vn 0.0149 0.2752 -0.9613
vn -0.4169 -0.8926 -0.1717
vn 0.4389 0.8758 0.2009
vn 0.8195 -0.4559 0.3473
vn 0.8108 -0.4565 0.3662
vn 0.2565 0.9593 -0.1178
vn 0.2825 0.1098 -0.9530
vn -0.7650 0.4568 -0.4540
vn 0.4548 0.0076 -0.8906
vn 0.4520 0.8749 0.1738
vn 0.9095 -0.3657 -0.1976
vn -0.8670 0.3760 0.3271
vn -0.4021 -0.9030 -0.1512
vn 0.8254 -0.4580 0.3299
vn 0.9164 -0.0052 0.4002
vn -0.9164 -0.0280 -0.3993
vn -0.3566 0.0300 0.9338
vn 0.1113 0.7466 0.6559
vn 0.6541 -0.6361 -0.4093
vn -0.9619 0.1665 -0.2169
vn 0.0108 -0.7340 -0.6791
vn 0.0042 0.9998 0.0215
vn 0.0117 -0.6790 -0.7340
vn 0.8412 0.2302 -0.4893
vn -0.7282 -0.6627 -0.1747
vn 0.8734 -0.4566 0.1692
vn -0.8160 0.5498 -0.1786
vn 0.8280 -0.2562 -0.4988
vn -0.8178 0.4324 0.3797
vn -0.6910 0.5571 -0.4606
vn -0.6229 0.2322 0.7471
vn -0.5337 -0.8352 -0.1327
vn 0.8160 -0.5498 0.1786
vn -0.2462 -0.0510 0.9679
vn 0.2992 -0.3741 0.8778
vn -0.1154 0.9932 -0.0131
vn 0.0576 -0.9983 -0.0002
vn 0.5654 -0.1023 -0.8185
vn 0.3257 0.9415 0.0867
vn -0.3257 -0.9415 -0.0867
vn -0.2770 0.4238 -0.8624
vn -0.5017 -0.8590 -0.1022
vn -0.2534 0.3219 -0.9122
vn 0.3044 0.8138 -0.4951
vn -0.2401 0.3433 -0.9080
vn -0.4416 0.4275 -0.7888
vn 0.2460 0.8592 -0.4486
vn 0.2534 -0.3219 0.9122
vn 0.3277 0.6944 0.6406
vn -0.2221 -0.0130 0.9749
vn 0.2221 0.0130 -0.9749
vn 0.5337 0.8352 0.1327
vn 0.3322 0.9391 0.0882
vn -0.2367 -0.5995 -0.7646
vn -0.3202 -0.9435 -0.0855
vn -0.2356 -0.9661 0.1052
vn -0.3481 0.4162 -0.8400
vn -0.2146 -0.9723 0.0925
vn 0.4090 -0.3849 0.8274
vn 0.9100 -0.3670 -0.1930
vn -0.8132 0.2421 0.5293
vn -0.3682 0.4225 -0.8282
vn 0.5088 -0.0304 0.8603
vn -0.9036 0.3835 0.1907
vn 0.2423 0.9640 -0.1092
vn -0.2423 -0.9640 0.1092
vn 0.3001 0.9539 0.0081
vn -0.5088 0.0304 -0.8603
vn -0.8280 0.2562 0.4988
vn 0.2356 0.9661 -0.1052
vn -0.4679 0.8291 0.3061
vn -0.3001 -0.9539 -0.0081
vn 0.4679 -0.8291 -0.3061
vn 0.4275 0.8757 0.2246
vn 0.8721 -0.3139 -0.3754
vn -0.8454 0.2771 0.4566
vn -0.3997 -0.8675 -0.2963
vn 0.8273 -0.2554 -0.5003
vn -0.1242 0.7500 -0.6497
vn 0.1360 -0.7662 0.6280
vn -0.8903 0.3461 0.2959
vn 0.3888 -0.3787 0.8399
vn -0.3945 -0.8983 -0.1934
vn 0.8417 -0.2700 -0.4675
vn 0.4134 0.8799 0.2344
vn 0.0059 0.2806 -0.9598
vn -0.7942 0.4493 0.4091
vn 0.8311 -0.4283 0.3546
vn 0.8193 -0.2239 -0.5279
vn -0.7957 0.5851 -0.1565
vn -0.1916 -0.0643 0.9794
vn 0.0154 -0.9989 -0.0447
vn -0.0154 0.9989 0.0447
vn -0.8291 0.5370 -0.1556
vn 0.5652 -0.3916 0.7260
vn -0.2136 -0.0470 0.9758
vn -0.5821 0.4772 -0.6583
vn -0.1022 -0.8664 0.4887
vn 0.0898 0.8970 -0.4327
vn -0.3651 -0.9034 -0.2248
vn 0.4974 -0.3675 0.7858
vn -0.4620 -0.8744 -0.1483
vn -0.8254 0.4580 -0.3300
vn 0.4111 0.9025 0.1280
vn 0.8072 -0.4560 0.3749
vn -0.3535 -0.8970 -0.2655
vn -0.5859 0.3986 -0.7055
vn 0.3574 0.8538 0.3785
vn -0.4189 -0.9017 -0.1073
vn -0.8418 0.4589 -0.2843
vn 0.4540 0.8749 0.1689
vn -0.4227 0.0949 0.9013
vn 0.2136 0.0470 -0.9758
vn 0.4741 -0.1321 -0.8705
vn 0.2988 -0.0092 -0.9543
vn 0.0703 -0.9970 -0.0326
vn -0.1441 0.9894 0.0161
vn -0.5657 0.2012 0.7997
vn -0.4646 -0.8738 -0.1438
vn 0.3612 0.9243 0.1235
vn -0.1427 -0.9866 -0.0787
vn -0.4376 -0.8884 -0.1386
vn 0.4376 0.8884 0.1386
vn 0.8366 -0.3458 -0.4250
vn 0.2144 0.9722 0.0937
vn -0.3723 0.3193 -0.8715
vn 0.4263 -0.3407 0.8380
vn -0.8154 0.3272 0.4775
vn 0.0509 -0.9980 -0.0369
vn 0.0392 0.9976 0.0566
vn 0.5629 -0.4730 0.6778
vn -0.0003 1.0000 -0.0002
vn 0.7236 -0.4937 0.4824
vn 0.0003 -1.0000 0.0002
vn -0.4711 0.5016 -0.7256
vn -0.0086 -0.8224 0.5689
vn 0.0092 0.7956 -0.6057
vn -0.1928 -0.0531 0.9798
vn -0.7096 0.6932 -0.1262
vn -0.2027 -0.0929 0.9748
vn 0.7941 -0.5008 0.3444
vn -0.8218 0.3851 0.4199
vn 0.0801 0.8649 -0.4954
vn -0.8465 0.5050 -0.1685
vn 0.3513 -0.4047 0.8443
vn 0.6905 -0.7081 0.1479
vn -0.5252 0.4841 -0.6999
vn 0.0065 0.2785 -0.9604
vn -0.0067 -0.8946 0.4467
vn 0.7457 -0.4820 0.4600
vn -0.6307 0.5040 -0.5900
vn 0.7627 0.4702 -0.4441
vn 0.2481 0.1444 -0.9579
vn -0.6546 -0.6628 0.3637
vn 0.6568 0.6667 -0.3523
vn 0.8079 -0.2741 -0.5218
vn -0.0721 0.2957 -0.9526
vn 0.2125 -0.2965 0.9311
vn -0.7476 -0.5111 0.4241
vt 0.625000 1.000000
vt 0.625000 0.750000
vt 0.375000 0.750000
vt 0.375000 1.000000
vt 0.375000 0.117885
vt 0.625000 0.117885
vt 0.625000 0.250000
vt 0.375000 0.250000
vt 0.125000 0.632115
vt 0.375000 0.632115
vt 0.125000 0.750000
vt 0.625000 0.632115
vt 0.625000 0.500000
vt 0.375000 0.500000
vt 0.125000 0.500000
vt 0.375000 0.000000
vt 0.625000 0.000000
vt 0.625000 0.117885
vt 0.625000 0.632115
vt 0.625000 0.632115
vt 0.625000 0.632115
vt 0.875000 0.632115
vt 0.875000 0.500000
vt 0.625000 0.750000
vt 0.625000 0.117885
vt 0.625000 0.500000
vt 0.625000 0.000000
vt 0.625000 0.500000
vt 0.625000 0.000000
s 0
usemtl Material
f 7/1/1 3/2/1 13/2/1 14/1/1
f 4/3/2 3/2/2 7/1/2 8/4/2
f 9/5/3 11/6/3 5/7/3 6/8/3
f 9/9/4 12/10/4 4/3/4 8/11/4
f 12/10/5 10/12/5 3/2/5 4/3/5
f 6/8/6 5/7/6 1/13/6 2/14/6
f 2/14/7 1/13/7 10/12/7 12/10/7
f 6/15/8 2/14/8 12/10/8 9/9/8
f 8/16/9 7/17/9 11/6/9 9/5/9
f 1/13/10 5/7/10 17/7/10 18/13/10
f 15/12/11 18/13/11 24/13/11 21/12/11
f 13/2/12 15/12/12 21/12/12 19/2/12
f 10/12/13 1/13/13 18/13/13 15/12/13
f 5/7/14 11/6/14 16/6/14 17/7/14
f 3/2/15 10/12/15 15/12/15 13/2/15
f 11/6/16 7/17/16 14/17/16 16/6/16
f 22/6/16 20/17/16 26/17/16 28/6/16
f 20/1/1 19/2/1 25/2/1 26/1/1
f 17/7/17 16/6/17 22/6/17 23/7/17
f 14/1/18 13/2/18 19/2/18 20/1/18
f 16/6/19 14/17/19 20/17/19 22/6/19
f 18/13/20 17/7/20 23/7/20 24/13/20
f 29/7/14 28/6/14 34/6/14 35/7/14
f 27/12/13 30/13/13 36/13/13 33/12/13
f 24/13/10 23/7/10 29/7/10 30/13/10
f 19/2/15 21/12/15 27/12/15 25/2/15
f 21/12/13 24/13/13 30/13/13 27/12/13
f 23/7/14 22/6/14 28/6/14 29/7/14
f 66/13/21 65/7/21 41/7/21 42/13/21
f 64/18/22 63/17/22 81/17/22 84/18/22
f 26/1/1 25/2/1 31/2/1 32/1/1
f 28/6/16 26/17/16 32/17/16 34/6/16
f 30/13/10 29/7/10 35/7/10 36/13/10
f 25/2/15 27/12/15 33/12/15 31/2/15
f 159/19/23 152/19/23 164/19/23 163/19/23
f 152/19/24 151/12/24 166/12/24 164/19/24
f 68/2/25 67/19/25 39/12/25 37/2/25
f 118/13/26 117/20/26 98/12/26 97/13/26
f 41/7/27 65/7/27 71/7/27 70/7/27
f 162/21/28 159/19/28 163/19/28 165/21/28
f 165/21/29 163/19/29 164/19/29 166/12/29
f 159/19/30 160/2/30 153/2/30 152/19/30
f 138/12/29 67/19/29 159/19/29 162/21/29
f 67/19/30 68/2/30 160/2/30 159/19/30
f 151/12/31 152/19/31 158/19/31 155/12/31
f 153/2/32 154/2/32 156/2/32 157/2/32
f 135/2/33 138/12/33 162/21/33 161/2/33
f 160/2/34 161/2/34 168/2/34 170/2/34
f 152/19/35 153/2/35 157/2/35 158/19/35
f 154/2/36 151/12/36 155/12/36 156/2/36
f 68/2/37 135/2/37 161/2/37 160/2/37
f 156/2/25 155/12/25 158/19/25 157/2/25
f 55/22/38 58/12/38 62/12/38 59/22/38
f 39/12/39 42/13/39 57/13/39 58/12/39
f 41/7/40 40/6/40 55/6/40 56/7/40
f 42/13/41 41/7/41 56/7/41 57/13/41
f 61/13/42 60/23/42 59/22/42 62/12/42
f 57/13/43 56/7/43 60/7/43 61/13/43
f 58/12/44 57/13/44 61/13/44 62/12/44
f 56/7/45 55/6/45 59/6/45 60/7/45
f 180/24/46 179/2/46 141/2/46 142/2/46
f 137/7/47 133/25/47 64/18/47 65/7/47
f 138/12/48 134/26/48 66/13/48 67/19/48
f 161/2/33 162/21/33 151/12/33 154/2/33
f 133/25/49 136/27/49 63/17/49 64/18/49
f 137/7/50 65/7/50 208/7/50 207/7/50
f 72/18/51 69/6/51 73/6/51 76/18/51
f 65/7/52 64/18/52 72/18/52 71/7/52
f 40/6/53 41/7/53 90/7/53 89/6/53
f 64/18/54 40/6/54 69/6/54 72/18/54
f 76/18/55 73/6/55 77/6/55 80/18/55
f 69/6/56 70/7/56 74/7/56 73/6/56
f 71/7/57 72/18/57 76/18/57 75/7/57
f 70/7/58 71/7/58 75/7/58 74/7/58
f 79/7/47 80/18/47 77/6/47 78/7/47
f 73/6/59 74/7/59 78/7/59 77/6/59
f 75/7/60 76/18/60 80/18/60 79/7/60
f 74/7/61 75/7/61 79/7/61 78/7/61
f 84/18/62 81/17/62 85/17/62 88/18/62
f 63/1/63 38/1/63 82/1/63 81/1/63
f 38/17/64 40/6/64 83/6/64 82/17/64
f 40/6/65 64/18/65 84/18/65 83/6/65
f 88/18/66 85/17/66 86/17/66 87/6/66
f 82/17/67 83/6/67 87/6/67 86/17/67
f 83/6/65 84/18/65 88/18/65 87/6/65
f 81/1/68 82/1/68 86/1/68 85/1/68
f 91/6/69 89/6/69 93/6/69 95/6/69
f 70/7/47 69/6/47 91/6/47 92/7/47
f 69/6/70 40/6/70 89/6/70 91/6/70
f 41/7/71 70/7/71 92/7/71 90/7/71
f 93/6/72 94/7/72 96/7/72 95/6/72
f 92/7/73 91/6/73 95/6/73 96/7/73
f 90/7/74 92/7/74 96/7/74 94/7/74
f 89/6/75 90/7/75 94/7/75 93/6/75
f 99/19/76 100/13/76 104/13/76 103/19/76
f 119/13/77 118/13/77 97/13/77 100/13/77
f 120/19/78 119/13/78 100/13/78 99/19/78
f 117/20/79 120/19/79 99/19/79 98/12/79
f 102/12/80 103/19/80 107/19/80 106/12/80
f 103/19/81 102/12/81 132/12/81 131/19/81
f 100/13/82 97/13/82 101/13/82 104/13/82
f 98/12/83 102/12/83 112/12/83 110/12/83
f 107/19/48 108/13/48 105/13/48 106/12/48
f 104/13/84 101/13/84 105/13/84 108/13/84
f 101/13/85 102/12/85 106/12/85 105/13/85
f 103/19/86 104/13/86 108/13/86 107/19/86
f 111/13/87 109/13/87 113/13/87 115/13/87
f 102/12/48 101/13/48 111/13/48 112/12/48
f 101/13/88 97/13/88 109/13/88 111/13/88
f 97/13/89 98/12/89 110/12/89 109/13/89
f 113/13/90 114/12/90 116/12/90 115/13/90
f 112/12/91 111/13/91 115/13/91 116/12/91
f 110/12/92 112/12/92 116/12/92 114/12/92
f 109/13/93 110/12/93 114/12/93 113/13/93
f 39/12/79 67/19/79 120/19/79 117/20/79
f 67/19/78 66/13/78 119/13/78 120/19/78
f 42/13/94 118/13/94 123/13/94 121/13/94
f 42/13/26 39/12/26 117/20/26 118/13/26
f 123/13/95 124/13/95 128/13/95 127/13/95
f 66/13/96 42/13/96 121/13/96 122/13/96
f 119/13/97 66/13/97 122/13/97 124/13/97
f 118/13/98 119/13/98 124/13/98 123/13/98
f 126/13/77 125/13/77 127/13/77 128/13/77
f 121/13/99 123/13/99 127/13/99 125/13/99
f 124/13/100 122/13/100 126/13/100 128/13/100
f 122/13/101 121/13/101 125/13/101 126/13/101
f 130/12/102 129/19/102 131/19/102 132/12/102
f 102/12/103 98/12/103 130/12/103 132/12/103
f 98/12/104 99/19/104 129/19/104 130/12/104
f 99/19/105 103/19/105 131/19/105 129/19/105
f 216/28/106 219/7/106 137/7/106 134/26/106
f 215/25/107 218/17/107 136/27/107 133/25/107
f 217/2/108 220/12/108 138/12/108 135/2/108
f 220/12/109 216/28/109 134/26/109 138/12/109
f 219/7/110 215/25/110 133/25/110 137/7/110
f 218/1/111 217/2/111 135/2/111 136/1/111
f 139/1/112 142/2/112 146/2/112 143/1/112
f 181/1/112 180/24/112 142/2/112 139/1/112
f 179/2/113 182/1/113 140/1/113 141/2/113
f 182/17/114 181/29/114 139/27/114 140/17/114
f 146/2/115 145/2/115 149/2/115 150/2/115
f 141/2/113 140/1/113 144/1/113 145/2/113
f 142/2/46 141/2/46 145/2/46 146/2/46
f 140/17/114 139/27/114 143/27/114 144/17/114
f 147/1/116 150/2/116 149/2/116 148/1/116
f 144/17/117 143/27/117 147/27/117 148/17/117
f 143/1/118 146/2/118 150/2/118 147/1/118
f 145/2/119 144/1/119 148/1/119 149/2/119
f 151/12/120 162/21/120 165/21/120 166/12/120
f 167/2/121 169/2/121 173/2/121 171/2/121
f 153/2/122 160/2/122 170/2/122 169/2/122
f 154/2/123 153/2/123 169/2/123 167/2/123
f 161/2/124 154/2/124 167/2/124 168/2/124
f 171/2/125 173/2/125 177/2/125 175/2/125
f 168/2/126 167/2/126 171/2/126 172/2/126
f 170/2/127 168/2/127 172/2/127 174/2/127
f 169/2/128 170/2/128 174/2/128 173/2/128
f 178/2/37 176/2/37 175/2/37 177/2/37
f 172/2/129 171/2/129 175/2/129 176/2/129
f 174/2/130 172/2/130 176/2/130 178/2/130
f 173/2/131 174/2/131 178/2/131 177/2/131
f 181/29/132 182/17/132 188/17/132 189/29/132
f 185/2/113 186/1/113 182/1/113 179/2/113
f 184/1/112 183/2/112 180/24/112 181/1/112
f 183/2/133 185/2/133 195/2/133 198/2/133
f 135/2/46 68/2/46 185/2/46 183/2/46
f 136/1/112 135/2/112 183/2/112 184/1/112
f 68/2/113 63/1/113 186/1/113 185/2/113
f 63/17/114 136/27/114 184/29/114 186/17/114
f 187/17/134 190/29/134 194/29/134 191/17/134
f 186/17/135 184/29/135 190/29/135 187/17/135
f 184/1/136 181/1/136 189/1/136 190/1/136
f 182/1/137 186/1/137 187/1/137 188/1/137
f 191/17/114 194/29/114 193/29/114 192/17/114
f 189/29/138 188/17/138 192/17/138 193/29/138
f 190/1/139 189/1/139 193/1/139 194/1/139
f 188/1/140 187/1/140 191/1/140 192/1/140
f 197/24/141 198/2/141 202/2/141 201/24/141
f 180/24/142 183/2/142 198/2/142 197/24/142
f 185/2/143 179/2/143 196/2/143 195/2/143
f 179/2/116 180/24/116 197/24/116 196/2/116
f 202/2/144 199/2/144 203/2/144 206/2/144
f 195/2/145 196/2/145 200/2/145 199/2/145
f 198/2/146 195/2/146 199/2/146 202/2/146
f 196/2/147 197/24/147 201/24/147 200/2/147
f 206/2/46 203/2/46 204/2/46 205/24/46
f 200/2/148 201/24/148 205/24/148 204/2/148
f 201/24/149 202/2/149 206/2/149 205/24/149
f 199/2/150 200/2/150 204/2/150 203/2/150
f 209/13/151 210/26/151 214/26/151 213/13/151
f 65/7/152 66/13/152 209/13/152 208/7/152
f 66/13/153 134/26/153 210/26/153 209/13/153
f 134/26/154 137/7/154 207/7/154 210/26/154
f 214/26/21 211/7/21 212/7/21 213/13/21
f 207/7/155 208/7/155 212/7/155 211/7/155
f 210/26/156 207/7/156 211/7/156 214/26/156
f 208/7/157 209/13/157 213/13/157 212/7/157
f 32/1/158 31/2/158 217/2/158 218/1/158
f 215/25/159 219/7/159 224/7/159 223/25/159
f 220/12/160 33/12/160 230/12/160 232/12/160
f 31/2/161 33/12/161 220/12/161 217/2/161
f 34/6/162 32/17/162 218/17/162 215/25/162
f 219/7/163 216/28/163 227/28/163 228/7/163
f 222/7/164 221/6/164 223/25/164 224/7/164
f 34/6/165 215/25/165 223/25/165 221/6/165
f 35/7/166 34/6/166 221/6/166 222/7/166
f 219/7/167 35/7/167 222/7/167 224/7/167
f 226/13/168 225/7/168 228/7/168 227/28/168
f 36/13/169 35/7/169 225/7/169 226/13/169
f 216/28/170 36/13/170 226/13/170 227/28/170
f 35/7/171 219/7/171 228/7/171 225/7/171
f 231/28/172 232/12/172 236/12/172 235/28/172
f 36/13/173 216/28/173 231/28/173 229/13/173
f 33/12/174 36/13/174 229/13/174 230/12/174
f 216/28/175 220/12/175 232/12/175 231/28/175
f 234/12/176 233/13/176 235/28/176 236/12/176
f 229/13/177 231/28/177 235/28/177 233/13/177
f 232/12/178 230/12/178 234/12/178 236/12/178
f 230/12/179 229/13/179 233/13/179 234/12/179
l 45 43
l 44 46
l 49 47
l 48 50
l 53 51
l 52 54
