# Blender v3.6.4 OBJ File: ''
# www.blender.org
mtllib Grave2.mtl
o Cube.002
v -1.000000 -1.000001 -7.971328
v -1.000000 -1.000000 -6.696328
v -1.000000 -1.000000 -5.421328
v 0.744207 1.165868 -7.626941
v 0.744207 1.255393 -6.696328
v 0.744207 1.165869 -5.765715
v -0.744207 1.156839 -5.765715
v -0.744207 1.225379 -6.696328
v -0.744207 1.156838 -7.626941
v 0.680402 1.031100 -8.557554
v 0.744207 1.054793 -8.394852
v 0.787926 1.025916 -8.675276
v 1.000000 -0.936196 -9.083626
v 0.936195 -1.000001 -9.246328
v 0.744207 1.054794 -4.997805
v 0.680402 1.031101 -4.835102
v 0.787926 1.025917 -4.717381
v 1.000000 -0.936195 -4.309031
v 0.936195 -1.000000 -4.146328
v -0.744207 1.050151 -8.394852
v -0.680402 1.027706 -8.557554
v -0.787960 1.022835 -8.675367
v -1.000000 -1.000001 -9.083626
v -0.936195 -1.000001 -9.246328
v -0.680402 1.027707 -4.835102
v -0.744207 1.050152 -4.997805
v -0.787960 1.022836 -4.717289
v -0.936195 -1.000000 -4.146328
v -1.000000 -1.000000 -4.309031
v 1.000000 0.948687 -4.309031
v 0.937380 1.007653 -4.314944
v 0.936195 0.936195 -4.146328
v -1.000000 0.947910 -4.309031
v -0.936195 0.936195 -4.146328
v -0.937293 1.006753 -4.315181
v 1.000000 0.948686 -9.083626
v 0.936195 0.936194 -9.246328
v 0.937380 1.007652 -9.077712
v -0.936195 0.936194 -9.246328
v -1.000000 0.947909 -9.083626
v -0.937293 1.006752 -9.077476
v 0.680402 6.404291 -4.835103
v 0.744207 6.705293 -4.997806
v 0.680402 6.664101 -4.913031
v -0.680402 6.655291 -4.913028
v -0.744207 6.692460 -4.997806
v -0.680402 6.394849 -4.835103
v 0.680402 6.664101 -8.479628
v 0.744207 6.705293 -8.394853
v 0.680402 6.404291 -8.557555
v -0.744207 6.692459 -8.394853
v -0.680402 6.655290 -8.479631
v -0.680402 6.394849 -8.557555
v 0.937200 1.124456 -7.886777
v 1.000000 1.045500 -7.971328
v 0.937218 1.236639 -6.696328
v 1.000000 1.165053 -6.696328
v 1.000000 1.045501 -5.421328
v 0.937200 1.124457 -5.505879
v -0.937129 1.116768 -5.505975
v -1.000000 1.038379 -5.421328
v -0.936900 1.221125 -6.696328
v -1.000000 1.154395 -6.696328
v -1.000000 1.038378 -7.971328
v -0.937129 1.116767 -7.886682
v 0.936195 -1.000000 -5.421328
v 1.000000 -0.936195 -5.421328
v 0.936195 -1.000000 -6.696328
v 1.000000 -0.936195 -6.696328
v 1.000000 -0.936196 -7.971328
v 0.936195 -1.000001 -7.971328
v 0.680402 8.347763 -7.626942
v 0.744207 8.240098 -7.626942
v 0.680406 9.093136 -6.696329
v 0.744207 9.002471 -6.696329
v 0.744207 8.240099 -5.765716
v 0.680402 8.347764 -5.765716
v -0.680402 8.344473 -5.765716
v -0.744207 8.232786 -5.765716
v -0.680406 9.112134 -6.696329
v -0.744207 9.021062 -6.696329
v -0.744207 8.232785 -7.626942
v -0.680402 8.344472 -7.626942
vt 0.686336 0.561336
vt 0.698980 0.578440
vt 0.698980 0.599490
vt 0.643163 0.571582
vt 0.643111 0.518111
vt 0.125000 0.687500
vt 0.367024 0.687500
vt 0.367024 0.750000
vt 0.132976 0.750000
vt 0.125000 0.742024
vt 0.813674 0.688674
vt 0.801020 0.671560
vt 0.801020 0.650510
vt 0.856816 0.678408
vt 0.856864 0.731864
vt 0.801020 0.578440
vt 0.801020 0.599490
vt 0.801020 0.599490
vt 0.801020 0.578440
vt 0.375000 0.757976
vt 0.617024 0.757976
vt 0.617024 0.992024
vt 0.375000 0.992024
vt 0.382850 0.507976
vt 0.616980 0.507976
vt 0.617245 0.562500
vt 0.382556 0.562500
vt 0.698980 0.671560
vt 0.698980 0.650510
vt 0.698980 0.650510
vt 0.698980 0.671560
vt 0.382556 0.687500
vt 0.617245 0.687500
vt 0.616980 0.742024
vt 0.382850 0.742024
vt 0.375000 0.187500
vt 0.617236 0.187500
vt 0.616986 0.242024
vt 0.375000 0.242024
vt 0.698980 0.578440
vt 0.698980 0.599490
vt 0.703354 0.576117
vt 0.796645 0.576116
vt 0.796645 0.599490
vt 0.703354 0.599490
vt 0.375000 0.007976
vt 0.616986 0.007976
vt 0.617236 0.062500
vt 0.375000 0.062500
vt 0.686336 0.688664
vt 0.703355 0.676020
vt 0.796645 0.676020
vt 0.643111 0.731889
vt 0.813674 0.561326
vt 0.796645 0.573980
vt 0.703355 0.573980
vt 0.856864 0.518136
vt 0.856816 0.571592
vt 0.801020 0.625000
vt 0.801020 0.625000
vt 0.617660 0.625000
vt 0.382151 0.625000
vt 0.698980 0.625000
vt 0.698980 0.625000
vt 0.801020 0.650510
vt 0.801020 0.671560
vt 0.375000 0.125000
vt 0.617641 0.125000
vt 0.125000 0.625000
vt 0.367024 0.625000
vt 0.125000 0.507976
vt 0.132976 0.500000
vt 0.367024 0.500000
vt 0.367024 0.562500
vt 0.125000 0.562500
vt 0.703355 0.676020
vt 0.796645 0.676020
vt 0.643158 0.625000
vt 0.643163 0.678419
vt 0.375000 0.257976
vt 0.617024 0.257976
vt 0.617024 0.492024
vt 0.375000 0.492024
vt 0.703355 0.650510
vt 0.796645 0.650510
vt 0.796645 0.673884
vt 0.703354 0.673883
vt 0.856750 0.625000
vt 0.703354 0.625000
vt 0.796646 0.625000
vt 0.698980 0.573980
vt 0.698980 0.676020
vt 0.801020 0.573980
vt 0.801020 0.676020
vt 0.618586 0.750000
vt 0.625000 0.757827
vt 0.618489 1.000000
vt 0.625000 0.992162
vt 0.618586 0.500000
vt 0.625000 0.492173
vt 0.618489 0.250000
vt 0.625000 0.257838
vt 0.703355 0.573980
vt 0.796645 0.573980
vt 0.375000 1.000000
vt 0.625000 0.187500
vt 0.625000 0.241896
vt 0.625000 0.008104
vt 0.625000 0.062500
vt 0.625000 0.066797
vt 0.625000 0.125000
vt 0.625000 0.183203
vn -0.0391 0.9957 -0.0842
vn -0.0699 0.9908 -0.1161
vn 0.0386 0.9940 -0.1021
vn -0.0133 0.9939 -0.1096
vn -0.0326 0.9964 -0.0781
vn 0.0000 -1.0000 0.0000
vn 0.0372 0.9960 0.0810
vn 0.0681 0.9915 0.1104
vn -0.0178 0.9957 0.0914
vn 0.0233 0.9946 0.1013
vn 0.0309 0.9967 0.0755
vn -1.0000 0.0000 0.0000
vn 0.0000 0.0000 1.0000
vn 1.0000 0.0000 0.0000
vn 0.4300 0.3237 -0.8428
vn -0.4375 0.3227 -0.8393
vn -0.4813 0.5999 -0.6391
vn 0.4795 0.6044 -0.6362
vn -0.0391 0.9957 0.0842
vn -0.0242 0.9976 0.0643
vn 0.0212 0.9978 0.0624
vn -0.0326 0.9964 0.0781
vn 0.0372 0.9961 -0.0805
vn 0.0212 0.9978 -0.0624
vn -0.0242 0.9976 -0.0643
vn 0.0309 0.9967 -0.0755
vn -0.0178 0.9957 -0.0914
vn 0.0680 0.9915 -0.1105
vn 0.0233 0.9946 -0.1013
vn 0.7065 0.0698 0.7042
vn -0.7070 0.0693 0.7038
vn 0.0915 0.9958 -0.0000
vn 0.0386 0.9940 0.1021
vn -0.0133 0.9939 0.1096
vn 0.0000 0.0000 -1.0000
vn 0.4795 0.6044 0.6362
vn -0.4813 0.5999 0.6391
vn -0.4375 0.3227 0.8393
vn 0.4300 0.3237 0.8428
vn -0.0599 0.9982 -0.0000
vn -0.0699 0.9908 0.1161
vn 0.0045 0.7759 0.6308
vn -0.7139 0.5382 0.4480
vn 0.0045 0.7759 -0.6308
vn 0.6376 0.7077 0.3044
vn -0.6367 0.7100 0.3008
vn 0.6376 0.7077 -0.3044
vn -0.6367 0.7100 -0.3008
vn 0.7095 0.2722 0.6500
vn -0.7195 0.2658 0.6416
vn 0.7095 0.2722 -0.6500
vn 0.7065 0.0698 -0.7042
vn -0.7195 0.2658 -0.6416
vn -0.7070 0.0693 -0.7038
vn 0.9310 0.0000 -0.3651
vn -0.9310 0.0000 0.3651
vn 0.9310 0.0000 0.3651
vn -0.9310 0.0000 -0.3651
vn -0.0002 0.9217 0.3879
vn 0.7383 0.6715 0.0628
vn 0.7169 0.6942 0.0643
vn 0.7281 0.6825 0.0635
vn -0.7293 0.6815 -0.0603
vn -0.7161 0.6953 -0.0605
vn -0.7231 0.6881 -0.0604
vn -0.0002 0.9217 -0.3879
vn 0.7071 -0.7071 0.0000
vn 0.6814 0.3911 0.6187
vn -0.6893 0.3825 -0.6153
vn 0.7169 0.6942 -0.0643
vn 0.7383 0.6715 -0.0628
vn 0.7281 0.6825 -0.0635
vn 0.7505 0.6609 -0.0000
vn -0.7161 0.6953 0.0605
vn -0.7294 0.6815 0.0603
vn -0.7231 0.6881 0.0604
vn -0.7375 0.6754 -0.0000
vn 0.6814 0.3911 -0.6187
vn 0.7702 0.4956 -0.4015
vn 0.7702 0.4956 0.4015
vn -0.6893 0.3825 0.6153
vn -0.7732 0.4866 0.4068
vn -0.7732 0.4866 -0.4068
usemtl Material.002
s 1
f 12/1/1 11/2/2 4/3/3 54/4/4 38/5/5
f 3/6/6 66/7/6 19/8/6 28/9/6 29/10/6
f 27/11/7 26/12/8 7/13/9 60/14/10 35/15/11
f 20/16/12 9/17/12 82/18/12 51/19/12
f 19/20/13 32/21/13 34/22/13 28/23/13
f 13/24/14 36/25/14 55/26/14 70/27/14
f 15/28/14 6/29/14 76/30/14 43/31/14
f 67/32/14 58/33/14 30/34/14 18/35/14
f 1/36/12 64/37/12 40/38/12 23/39/12
f 4/3/14 11/2/14 49/40/14 73/41/14
f 48/42/15 52/43/16 83/44/17 72/45/18
f 29/46/12 33/47/12 61/48/12 3/49/12
f 17/50/19 16/51/20 25/52/21 27/11/7 35/15/11 31/53/22
f 22/54/23 21/55/24 10/56/25 12/1/1 38/5/5 41/57/26
f 9/17/27 20/16/28 22/54/23 41/57/26 65/58/29
f 9/17/12 8/59/12 81/60/12 82/18/12
f 70/27/14 55/26/14 57/61/14 69/62/14
f 6/29/14 5/63/14 75/64/14 76/30/14
f 8/59/12 7/13/12 79/65/12 81/60/12
f 7/13/12 26/12/12 46/66/12 79/65/12
f 2/67/12 63/68/12 64/37/12 1/36/12
f 2/69/6 68/70/6 66/7/6 3/6/6
f 23/71/6 24/72/6 14/73/6 71/74/6 1/75/6
f 69/62/14 57/61/14 58/33/14 67/32/14
f 3/49/12 61/48/12 63/68/12 2/67/12
f 25/52/13 16/51/13 42/76/30 47/77/31
f 4/3/3 5/63/32 56/78/32 54/4/4
f 5/63/32 6/29/33 59/79/34 56/78/32
f 24/80/35 39/81/35 37/82/35 14/83/35
f 5/63/14 4/3/14 73/41/14 75/64/14
f 1/75/6 71/74/6 68/70/6 2/69/6
f 77/84/36 78/85/37 45/86/38 44/87/39
f 7/13/9 8/59/40 62/88/40 60/14/10
f 8/59/40 9/17/27 65/58/29 62/88/40
f 6/29/33 15/28/41 17/50/19 31/53/22 59/79/34
f 74/89/42 80/90/43 78/85/37 77/84/36
f 72/45/18 83/44/17 80/90/44 74/89/44
f 10/56/25 11/91/2 12/1/1
f 15/28/41 16/92/20 17/50/19
f 20/16/28 21/93/24 22/54/23
f 25/52/21 26/94/8 27/11/7
f 30/95/45 31/96/45 32/21/45
f 33/97/46 34/22/46 35/98/46
f 36/99/47 37/82/47 38/100/47
f 39/81/48 40/101/48 41/102/48
f 42/76/30 43/31/49 44/87/39
f 45/86/38 46/66/50 47/77/31
f 48/42/15 49/40/51 50/103/52
f 51/19/53 52/43/16 53/104/54
f 36/25/55 13/24/55 14/83/55 37/82/55
f 28/23/56 34/22/56 33/97/56 29/105/56
f 32/21/57 19/20/57 18/35/57 30/34/57
f 39/81/58 24/80/58 23/39/58 40/38/58
f 31/96/59 35/98/59 34/22/59 32/21/59
f 59/79/60 31/53/61 30/34/61 58/33/62
f 65/106/63 41/107/64 40/38/64 64/37/65
f 41/102/66 38/100/66 37/82/66 39/81/66
f 71/74/67 14/73/67 13/24/67 70/27/67
f 44/87/39 45/86/38 47/77/31 42/76/30
f 77/84/36 44/87/39 43/31/49 76/30/68
f 83/44/17 52/43/16 51/19/53 82/18/69
f 52/43/16 48/42/15 50/103/52 53/104/54
f 10/56/55 50/103/52 49/40/51 11/2/55
f 42/76/30 16/51/57 15/28/57 43/31/49
f 25/52/56 47/77/31 46/66/50 26/12/56
f 53/104/54 21/55/58 20/16/58 51/19/53
f 38/5/70 54/4/71 55/26/72 36/25/70
f 54/4/71 56/78/73 57/61/73 55/26/72
f 56/78/73 59/79/60 58/33/62 57/61/73
f 35/108/74 60/109/75 61/48/76 33/47/74
f 60/110/75 62/111/77 63/68/77 61/48/76
f 62/111/77 65/112/63 64/37/65 63/68/77
f 19/8/67 66/7/67 67/32/67 18/35/67
f 66/7/67 68/70/67 69/62/67 67/32/67
f 68/70/67 71/74/67 70/27/67 69/62/67
f 48/42/15 72/45/18 73/41/78 49/40/51
f 72/45/18 74/89/79 75/64/79 73/41/78
f 74/89/80 77/84/36 76/30/68 75/64/80
f 45/86/38 78/85/37 79/65/81 46/66/50
f 78/85/37 80/90/43 81/60/82 79/65/81
f 80/90/83 83/44/17 82/18/69 81/60/83
f 10/56/35 21/55/35 53/104/54 50/103/52
