# Blender v3.6.4 OBJ File: ''
# www.blender.org
mtllib Grave.mtl
o Cube.005
v -0.500000 5.999999 -15.239555
v -0.500000 11.999999 -15.239556
v -0.500000 5.999999 -16.239555
v -0.500000 11.999999 -16.239555
v 0.500000 5.999999 -15.239555
v 0.500000 11.999999 -15.239556
v 0.500000 5.999999 -16.239555
v 0.500000 11.999999 -16.239555
v -1.000000 -1.000001 -17.051638
v -1.000000 -1.000001 -15.776638
v -1.000000 -1.000001 -14.501638
v 0.744207 1.165868 -16.707251
v 0.744207 1.255392 -15.776638
v 0.744207 1.165868 -14.846025
v -0.744207 1.156838 -14.846025
v -0.744207 1.225379 -15.776638
v -0.744207 1.156838 -16.707251
v 0.680402 1.031100 -17.637863
v 0.744207 1.054793 -17.475163
v 0.787926 1.025916 -17.755585
v 1.000000 -0.936196 -18.163935
v 0.936195 -1.000001 -18.326637
v 0.744207 1.054793 -14.078115
v 0.680402 1.031100 -13.915412
v 0.787926 1.025916 -13.797691
v 1.000000 -0.936196 -13.389340
v 0.936195 -1.000001 -13.226638
v -0.744207 1.050151 -17.475163
v -0.680402 1.027706 -17.637863
v -0.787960 1.022835 -17.755678
v -1.000000 -1.000001 -18.163935
v -0.936195 -1.000001 -18.326637
v -0.680402 1.027706 -13.915412
v -0.744207 1.050151 -14.078115
v -0.787960 1.022835 -13.797599
v -0.936195 -1.000001 -13.226638
v -1.000000 -1.000001 -13.389340
v 1.000000 0.948686 -13.389340
v 0.937380 1.007652 -13.395254
v 0.936195 0.936194 -13.226638
v -1.000000 0.947909 -13.389340
v -0.936195 0.936194 -13.226638
v -0.937293 1.006752 -13.395491
v 1.000000 0.948686 -18.163935
v 0.936195 0.936194 -18.326637
v 0.937380 1.007652 -18.158022
v -0.936195 0.936194 -18.326637
v -1.000000 0.947909 -18.163935
v -0.937293 1.006752 -18.157785
v 0.680402 6.909375 -13.915413
v 0.744207 6.993607 -14.078116
v 0.680402 7.029190 -13.993340
v -0.680402 7.029240 -13.993339
v -0.744207 6.991535 -14.078116
v -0.680402 6.909424 -13.915413
v 0.680402 7.029190 -17.559937
v 0.744207 6.993607 -17.475163
v 0.680402 6.909375 -17.637863
v -0.744207 6.991534 -17.475163
v -0.680402 7.029240 -17.559938
v -0.680402 6.909423 -17.637863
v 0.937200 1.124456 -16.967087
v 1.000000 1.045500 -17.051638
v 0.937218 1.236638 -15.776638
v 1.000000 1.165053 -15.776638
v 1.000000 1.045500 -14.501638
v 0.937200 1.124456 -14.586189
v -0.937129 1.116767 -14.586285
v -1.000000 1.038378 -14.501638
v -0.936900 1.221124 -15.776638
v -1.000000 1.154394 -15.776638
v -1.000000 1.038378 -17.051638
v -0.937129 1.116767 -16.966991
v 0.936195 -1.000001 -14.501638
v 1.000000 -0.936196 -14.501638
v 0.936195 -1.000001 -15.776638
v 1.000000 -0.936196 -15.776638
v 1.000000 -0.936196 -17.051638
v 0.936195 -1.000001 -17.051638
v 0.680402 7.642056 -16.707251
v 0.744207 7.547008 -16.707251
v 0.680406 7.927890 -15.776639
v 0.744207 7.832497 -15.776639
v 0.744207 7.547008 -14.846026
v 0.680402 7.642056 -14.846026
v -0.680402 7.642130 -14.846026
v -0.744207 7.544873 -14.846026
v -0.680406 7.946888 -15.776639
v -0.744207 7.851058 -15.776639
v -0.744207 7.544873 -16.707251
v -0.680402 7.642129 -16.707251
v -0.500001 9.612903 -18.147369
v -0.500001 9.612903 -13.347371
v -0.500001 10.258063 -18.147369
v -0.500001 10.258063 -13.347371
v 0.499999 9.612903 -18.147369
v 0.499999 9.612903 -13.347371
v 0.499999 10.258063 -18.147369
v 0.499999 10.258063 -13.347371
vt 0.375000 0.000000
vt 0.625000 0.000000
vt 0.625000 0.250000
vt 0.375000 0.250000
vt 0.625000 0.500000
vt 0.375000 0.500000
vt 0.625000 0.750000
vt 0.375000 0.750000
vt 0.625000 1.000000
vt 0.375000 1.000000
vt 0.125000 0.500000
vt 0.125000 0.750000
vt 0.875000 0.500000
vt 0.875000 0.750000
vt 0.375000 0.000000
vt 0.625000 0.000000
vt 0.625000 0.250000
vt 0.375000 0.250000
vt 0.625000 0.500000
vt 0.375000 0.500000
vt 0.625000 0.750000
vt 0.375000 0.750000
vt 0.625000 1.000000
vt 0.375000 1.000000
vt 0.125000 0.500000
vt 0.125000 0.750000
vt 0.875000 0.500000
vt 0.875000 0.750000
vt 0.686336 0.561336
vt 0.698980 0.578440
vt 0.698980 0.599490
vt 0.643163 0.571582
vt 0.643111 0.518111
vt 0.125000 0.687500
vt 0.367024 0.687500
vt 0.367024 0.750000
vt 0.132976 0.750000
vt 0.125000 0.742024
vt 0.813674 0.688674
vt 0.801020 0.671560
vt 0.801020 0.650510
vt 0.856816 0.678408
vt 0.856864 0.731864
vt 0.801020 0.578440
vt 0.801020 0.599490
vt 0.801020 0.599490
vt 0.801020 0.578440
vt 0.375000 0.757976
vt 0.617024 0.757976
vt 0.617024 0.992024
vt 0.375000 0.992024
vt 0.382850 0.507976
vt 0.616980 0.507976
vt 0.617245 0.562500
vt 0.382556 0.562500
vt 0.698980 0.671560
vt 0.698980 0.650510
vt 0.698980 0.650510
vt 0.698980 0.671560
vt 0.382556 0.687500
vt 0.617245 0.687500
vt 0.616980 0.742024
vt 0.382850 0.742024
vt 0.375000 0.187500
vt 0.617236 0.187500
vt 0.616986 0.242024
vt 0.375000 0.242024
vt 0.698980 0.578440
vt 0.698980 0.599490
vt 0.703354 0.576117
vt 0.796645 0.576116
vt 0.796645 0.599490
vt 0.703354 0.599490
vt 0.375000 0.007976
vt 0.616986 0.007976
vt 0.617236 0.062500
vt 0.375000 0.062500
vt 0.686336 0.688664
vt 0.703355 0.676020
vt 0.796645 0.676020
vt 0.643111 0.731889
vt 0.813674 0.561326
vt 0.796645 0.573980
vt 0.703355 0.573980
vt 0.856864 0.518136
vt 0.856816 0.571592
vt 0.801020 0.625000
vt 0.801020 0.625000
vt 0.617660 0.625000
vt 0.382151 0.625000
vt 0.698980 0.625000
vt 0.698980 0.625000
vt 0.801020 0.650510
vt 0.801020 0.671560
vt 0.375000 0.125000
vt 0.617641 0.125000
vt 0.125000 0.625000
vt 0.367024 0.625000
vt 0.125000 0.507976
vt 0.132976 0.500000
vt 0.367024 0.500000
vt 0.367024 0.562500
vt 0.125000 0.562500
vt 0.703355 0.676020
vt 0.796645 0.676020
vt 0.643158 0.625000
vt 0.643163 0.678419
vt 0.375000 0.257976
vt 0.617024 0.257976
vt 0.617024 0.492024
vt 0.375000 0.492024
vt 0.703355 0.650510
vt 0.796645 0.650510
vt 0.796645 0.673884
vt 0.703354 0.673883
vt 0.856750 0.625000
vt 0.703354 0.625000
vt 0.796646 0.625000
vt 0.698980 0.573980
vt 0.698980 0.676020
vt 0.801020 0.573980
vt 0.801020 0.676020
vt 0.618586 0.750000
vt 0.625000 0.757827
vt 0.618489 1.000000
vt 0.625000 0.992162
vt 0.618586 0.500000
vt 0.625000 0.492173
vt 0.618489 0.250000
vt 0.625000 0.257838
vt 0.703355 0.573980
vt 0.796645 0.573980
vt 0.375000 1.000000
vt 0.625000 0.187500
vt 0.625000 0.241896
vt 0.625000 0.008104
vt 0.625000 0.062500
vt 0.625000 0.066797
vt 0.625000 0.125000
vt 0.625000 0.183203
vn -1.0000 0.0000 0.0000
vn 0.0000 0.0000 -1.0000
vn 1.0000 0.0000 0.0000
vn 0.0000 0.0000 1.0000
vn 0.0000 -1.0000 0.0000
vn 0.0000 1.0000 0.0000
vn -0.0391 0.9957 -0.0842
vn -0.0699 0.9908 -0.1161
vn 0.0386 0.9940 -0.1021
vn -0.0133 0.9939 -0.1096
vn -0.0326 0.9964 -0.0781
vn 0.0372 0.9960 0.0810
vn 0.0681 0.9915 0.1104
vn -0.0178 0.9957 0.0914
vn 0.0233 0.9946 0.1013
vn 0.0309 0.9967 0.0755
vn 0.0000 0.7080 -0.7062
vn 0.0039 0.9049 -0.4256
vn -0.0391 0.9957 0.0842
vn -0.0242 0.9976 0.0643
vn 0.0212 0.9978 0.0624
vn -0.0326 0.9964 0.0781
vn 0.0372 0.9960 -0.0810
vn 0.0212 0.9978 -0.0624
vn -0.0242 0.9976 -0.0643
vn 0.0309 0.9967 -0.0755
vn -0.0178 0.9957 -0.0914
vn 0.0681 0.9915 -0.1104
vn 0.0233 0.9946 -0.1013
vn 0.0000 0.3048 0.9524
vn 0.0915 0.9958 -0.0000
vn 0.0386 0.9940 0.1021
vn -0.0133 0.9939 0.1096
vn 0.0039 0.9049 0.4256
vn 0.0000 0.7080 0.7062
vn -0.0599 0.9982 -0.0000
vn -0.0699 0.9908 0.1161
vn 0.0067 0.9531 0.3024
vn 0.0067 0.9531 -0.3024
vn 0.6376 0.7077 0.3044
vn -0.6367 0.7100 0.3008
vn 0.6376 0.7077 -0.3044
vn -0.6367 0.7100 -0.3008
vn 0.9176 0.0631 0.3925
vn 0.8480 0.3275 0.4166
vn 0.7951 0.4413 0.4161
vn -0.8002 0.4373 0.4105
vn -0.8521 0.3213 0.4131
vn -0.9177 0.0640 0.3922
vn 0.7951 0.4413 -0.4161
vn 0.8480 0.3275 -0.4166
vn 0.9176 0.0631 -0.3925
vn -0.8521 0.3213 -0.4131
vn -0.8002 0.4373 -0.4105
vn -0.9177 0.0640 -0.3922
vn 0.9310 0.0000 -0.3651
vn -0.9310 0.0000 0.3651
vn 0.9310 0.0000 0.3651
vn -0.9310 0.0000 -0.3651
vn -0.0002 0.9217 0.3879
vn 0.7383 0.6715 0.0628
vn 0.7169 0.6942 0.0643
vn 0.7281 0.6825 0.0635
vn -0.7294 0.6815 -0.0603
vn -0.7161 0.6953 -0.0605
vn -0.7231 0.6881 -0.0604
vn -0.0002 0.9217 -0.3879
vn 0.7071 -0.7071 0.0000
vn 0.8117 0.5432 0.2147
vn 0.7930 0.5292 0.3017
vn -0.8145 0.5366 -0.2207
vn -0.7972 0.5218 -0.3036
vn -0.0000 0.3048 -0.9524
vn 0.7170 0.6942 -0.0643
vn 0.7383 0.6715 -0.0628
vn 0.7281 0.6825 -0.0635
vn 0.7505 0.6609 -0.0000
vn -0.7161 0.6953 0.0605
vn -0.7294 0.6815 0.0603
vn -0.7231 0.6881 0.0604
vn -0.7375 0.6754 -0.0000
vn 0.8117 0.5432 -0.2147
vn 0.7930 0.5292 -0.3017
vn 0.8189 0.5487 -0.1684
vn 0.8189 0.5487 0.1684
vn -0.8145 0.5366 0.2207
vn -0.7972 0.5218 0.3036
vn -0.8209 0.5425 0.1781
vn -0.8209 0.5425 -0.1781
usemtl Material.004
s off
f 1/1/1 2/2/1 4/3/1 3/4/1
f 3/4/2 4/3/2 8/5/2 7/6/2
f 7/6/3 8/5/3 6/7/3 5/8/3
f 5/8/4 6/7/4 2/9/4 1/10/4
f 3/11/5 7/6/5 5/8/5 1/12/5
f 8/5/6 4/13/6 2/14/6 6/7/6
f 92/15/1 93/16/1 95/17/1 94/18/1
f 94/18/6 95/17/6 99/19/6 98/20/6
f 98/20/3 99/19/3 97/21/3 96/22/3
f 96/22/5 97/21/5 93/23/5 92/24/5
f 94/25/2 98/20/2 96/22/2 92/26/2
f 99/19/4 95/27/4 93/28/4 97/21/4
s 1
f 20/29/7 19/30/8 12/31/9 62/32/10 46/33/11
f 11/34/5 74/35/5 27/36/5 36/37/5 37/38/5
f 35/39/12 34/40/13 15/41/14 68/42/15 43/43/16
f 28/44/1 17/45/1 90/46/1 59/47/1
f 27/48/4 40/49/4 42/50/4 36/51/4
f 21/52/3 44/53/3 63/54/3 78/55/3
f 23/56/3 14/57/3 84/58/3 51/59/3
f 75/60/3 66/61/3 38/62/3 26/63/3
f 9/64/1 72/65/1 48/66/1 31/67/1
f 12/31/3 19/30/3 57/68/3 81/69/3
f 56/70/17 60/71/17 91/72/18 80/73/18
f 37/74/1 41/75/1 69/76/1 11/77/1
f 25/78/19 24/79/20 33/80/21 35/39/12 43/43/16 39/81/22
f 30/82/23 29/83/24 18/84/25 20/29/7 46/33/11 49/85/26
f 17/45/27 28/44/28 30/82/23 49/85/26 73/86/29
f 17/45/1 16/87/1 89/88/1 90/46/1
f 78/55/3 63/54/3 65/89/3 77/90/3
f 14/57/3 13/91/3 83/92/3 84/58/3
f 16/87/1 15/41/1 87/93/1 89/88/1
f 15/41/1 34/40/1 54/94/1 87/93/1
f 10/95/1 71/96/1 72/65/1 9/64/1
f 10/97/5 76/98/5 74/35/5 11/34/5
f 31/99/5 32/100/5 22/101/5 79/102/5 9/103/5
f 77/90/3 65/89/3 66/61/3 75/60/3
f 11/77/1 69/76/1 71/96/1 10/95/1
f 33/80/4 24/79/4 50/104/30 55/105/30
f 12/31/9 13/91/31 64/106/31 62/32/10
f 13/91/31 14/57/32 67/107/33 64/106/31
f 32/108/2 47/109/2 45/110/2 22/111/2
f 13/91/3 12/31/3 81/69/3 83/92/3
f 9/103/5 79/102/5 76/98/5 10/97/5
f 85/112/34 86/113/34 53/114/35 52/115/35
f 15/41/14 16/87/36 70/116/36 68/42/15
f 16/87/36 17/45/27 73/86/29 70/116/36
f 14/57/32 23/56/37 25/78/19 39/81/22 67/107/33
f 82/117/38 88/118/38 86/113/34 85/112/34
f 80/73/18 91/72/18 88/118/39 82/117/39
f 18/84/25 19/119/8 20/29/7
f 23/56/37 24/120/20 25/78/19
f 28/44/28 29/121/24 30/82/23
f 33/80/21 34/122/13 35/39/12
f 38/123/40 39/124/40 40/49/40
f 41/125/41 42/50/41 43/126/41
f 44/127/42 45/110/42 46/128/42
f 47/109/43 48/129/43 49/130/43
f 50/104/44 51/59/45 52/115/46
f 53/114/47 54/94/48 55/105/49
f 56/70/50 57/68/51 58/131/52
f 59/47/53 60/71/54 61/132/55
f 44/53/56 21/52/56 22/111/56 45/110/56
f 36/51/57 42/50/57 41/125/57 37/133/57
f 40/49/58 27/48/58 26/63/58 38/62/58
f 47/109/59 32/108/59 31/67/59 48/66/59
f 39/124/60 43/126/60 42/50/60 40/49/60
f 67/107/61 39/81/62 38/62/62 66/61/63
f 73/134/64 49/135/65 48/66/65 72/65/66
f 49/130/67 46/128/67 45/110/67 47/109/67
f 79/102/68 22/101/68 21/52/68 78/55/68
f 52/115/35 53/114/35 55/105/30 50/104/30
f 85/112/69 52/115/46 51/59/45 84/58/70
f 91/72/71 60/71/54 59/47/53 90/46/72
f 60/71/17 56/70/17 58/131/73 61/132/73
f 18/84/56 58/131/52 57/68/51 19/30/56
f 50/104/44 24/79/58 23/56/58 51/59/45
f 33/80/57 55/105/49 54/94/48 34/40/57
f 61/132/55 29/83/59 28/44/59 59/47/53
f 46/33/74 62/32/75 63/54/76 44/53/74
f 62/32/75 64/106/77 65/89/77 63/54/76
f 64/106/77 67/107/61 66/61/63 65/89/77
f 43/136/78 68/137/79 69/76/80 41/75/78
f 68/138/79 70/139/81 71/96/81 69/76/80
f 70/139/81 73/140/64 72/65/66 71/96/81
f 27/36/68 74/35/68 75/60/68 26/63/68
f 74/35/68 76/98/68 77/90/68 75/60/68
f 76/98/68 79/102/68 78/55/68 77/90/68
f 56/70/50 80/73/82 81/69/83 57/68/51
f 80/73/82 82/117/84 83/92/84 81/69/83
f 82/117/85 85/112/69 84/58/70 83/92/85
f 53/114/47 86/113/86 87/93/87 54/94/48
f 86/113/86 88/118/88 89/88/88 87/93/87
f 88/118/89 91/72/71 90/46/72 89/88/89
f 18/84/2 29/83/2 61/132/73 58/131/73
