# Blender v3.6.4 OBJ File: 'grimreaper.blend'
# www.blender.org
mtllib scythe.mtl
o scythe_Cylinder.004
v 1.946428 0.120812 2.676119
v -2.186343 8.549465 0.949649
v 1.969689 0.132789 2.678908
v -2.163081 8.561441 0.952438
v 1.989408 0.145002 2.691330
v -2.143362 8.573654 0.964860
v 2.002583 0.155592 2.711494
v -2.130187 8.584246 0.985024
v 2.007208 0.162947 2.736330
v -2.125562 8.591600 1.009860
v 2.002579 0.165947 2.762057
v -2.130192 8.594601 1.035587
v 1.989400 0.164135 2.784759
v -2.143370 8.592789 1.058289
v 1.969679 0.157788 2.800978
v -2.163092 8.586441 1.074509
v 1.946416 0.147871 2.808247
v -2.186354 8.576523 1.081777
v 1.923155 0.135894 2.805458
v -2.209615 8.564547 1.078988
v 1.903436 0.123681 2.793036
v -2.229335 8.552334 1.066566
v 1.890261 0.113090 2.772872
v -2.242510 8.541742 1.046402
v 1.885636 0.105735 2.748036
v -2.247135 8.534388 1.021566
v 1.890265 0.102735 2.722309
v -2.242505 8.531387 0.995839
v 1.903444 0.104547 2.699607
v -2.229327 8.533199 0.973137
v 1.923165 0.110895 2.683388
v -2.209605 8.539547 0.956918
v -1.825211 7.812948 1.100512
v -1.801950 7.824925 1.103301
v -1.782231 7.837138 1.115723
v -1.769056 7.847729 1.135887
v -1.764431 7.855083 1.160723
v -1.769060 7.858084 1.186450
v -1.782239 7.856272 1.209152
v -1.801960 7.849924 1.225372
v -1.825223 7.840007 1.232641
v -1.848484 7.828030 1.229852
v -1.868203 7.815817 1.217430
v -1.881378 7.805226 1.197266
v -1.886003 7.797872 1.172429
v -1.881374 7.794871 1.146702
v -1.868195 7.796683 1.124001
v -1.848474 7.803031 1.107781
v -1.914426 7.911780 0.954333
v -1.867903 7.933674 0.949853
v -2.209594 8.513765 0.831026
v -1.825200 7.787167 0.974620
v -2.186332 8.523684 0.823757
v -2.163070 8.535660 0.826546
v -1.606370 6.951627 -0.848157
v -1.601858 6.943891 -0.839108
v -1.607284 6.951130 -0.848254
v -1.608220 6.950756 -0.847978
v -1.603708 6.943020 -0.838930
v -1.601763 6.941664 -0.837184
v -1.597019 6.929786 -0.845966
v -2.174931 8.434166 0.504656
v -2.186109 8.499346 0.707128
v -2.180447 8.458776 0.567654
v -2.184538 8.482634 0.641763
v -1.825312 7.773961 0.908917
v -1.822061 7.724771 0.702281
v -1.824942 7.759681 0.842975
v -1.823752 7.741676 0.767341
v -1.909900 7.844662 0.673313
v -1.914551 7.896692 0.879293
v -1.912289 7.862983 0.738036
v -1.913992 7.882027 0.813430
v -2.209445 8.489566 0.714307
v -2.198330 8.424528 0.511866
v -2.207906 8.472925 0.648955
v -2.203838 8.449120 0.574856
v -2.151807 8.446422 0.507386
v -2.162921 8.511459 0.709828
v -2.157315 8.471014 0.570376
v -2.161382 8.494820 0.644475
v -1.868028 7.918586 0.874813
v -1.863376 7.866556 0.668834
v -1.867468 7.903921 0.808950
v -1.865765 7.884877 0.733556
v -2.099924 8.253145 0.101593
v -2.127793 8.351542 0.293069
v -2.109843 8.286476 0.161488
v -2.120044 8.322493 0.231573
v -1.852995 7.799851 0.450636
v -1.835862 7.722983 0.252883
v -1.848933 7.778202 0.387013
v -1.842662 7.750067 0.314630
v -2.122993 8.240807 0.099037
v -2.150925 8.339308 0.290354
v -2.132944 8.274190 0.158848
v -2.143168 8.310244 0.228875
v -2.174317 8.329649 0.297548
v -2.146448 8.231251 0.106073
v -2.166567 8.300598 0.236053
v -2.156366 8.264583 0.165968
v -1.882386 7.701089 0.257363
v -1.899518 7.777957 0.455116
v -1.889186 7.728173 0.319110
v -1.895457 7.756308 0.391492
v -1.814696 7.664260 0.483027
v -1.800371 7.593061 0.283816
v -1.811521 7.644404 0.418956
v -1.806278 7.618344 0.346040
v -1.994711 7.935523 -0.358066
v -2.045126 8.074624 -0.201805
v -2.013920 7.985532 -0.313144
v -2.032373 8.036448 -0.255949
v -1.813556 7.639865 0.078311
v -1.783470 7.538870 -0.102832
v -1.805050 7.609660 0.019021
v -1.794038 7.572693 -0.047282
v -2.017503 7.922652 -0.360347
v -2.067911 8.061716 -0.204203
v -2.036678 7.972582 -0.315465
v -2.055129 8.023483 -0.258313
v -2.091650 8.052730 -0.197325
v -2.041235 7.913629 -0.353586
v -2.078897 8.014553 -0.251469
v -2.060444 7.963638 -0.308665
v -1.829993 7.516976 -0.098352
v -1.860080 7.617971 0.082791
v -1.840561 7.550798 -0.042803
v -1.851574 7.587766 0.023500
v -1.784109 7.528853 0.138895
v -1.759823 7.438846 -0.048789
v -1.776867 7.501045 0.078202
v -1.767977 7.468100 0.009505
v -1.781287 7.395584 -0.722496
v -1.853529 7.579888 -0.629960
v -1.805654 7.458127 -0.698864
v -1.832097 7.525588 -0.664994
v -1.726524 7.362111 -0.375315
v -1.689842 7.238617 -0.539666
v -1.714808 7.324453 -0.429881
v -1.701381 7.279251 -0.490038
v -1.799908 7.385788 -0.724397
v -1.876494 7.567361 -0.632355
v -1.826454 7.446976 -0.701037
v -1.854486 7.513435 -0.667348
v -1.900053 7.557994 -0.625480
v -1.818741 7.377957 -0.718889
v -1.877405 7.504266 -0.660631
v -1.847643 7.438367 -0.694821
v -1.727251 7.221013 -0.536064
v -1.773048 7.340218 -0.370835
v -1.743347 7.259501 -0.485997
v -1.760110 7.303134 -0.425519
v -1.719811 7.298438 -0.319463
v -1.687902 7.193514 -0.500888
v -1.710321 7.266082 -0.379046
v -1.698642 7.227677 -0.445452
v -1.619904 6.984876 -0.839751
v -1.702955 7.193727 -0.782404
v -1.646741 7.051449 -0.822312
v -1.677140 7.127893 -0.801321
v -1.654870 7.111453 -0.685417
v -1.610047 6.967757 -0.820751
v -1.642240 7.068112 -0.731158
v -1.625834 7.015516 -0.780694
v -1.622018 6.984154 -0.839873
v -1.712592 7.188148 -0.783531
v -1.651021 7.049291 -0.822731
v -1.684173 7.123957 -0.802108
v -1.722706 7.184432 -0.780502
v -1.623872 6.983008 -0.839369
v -1.691456 7.121156 -0.799943
v -1.655280 7.047430 -0.821489
v -1.613969 6.965912 -0.820373
v -1.674667 7.102137 -0.683511
v -1.634357 7.011505 -0.779873
v -1.656574 7.061367 -0.729778
v -1.653886 7.087717 -0.664691
v -1.609784 6.962873 -0.816831
v -1.641514 7.050885 -0.716203
v -1.625371 7.005189 -0.771891
vt 0.937500 1.000000
vt 0.937500 0.956309
vt 0.937500 0.956309
vt 0.937500 1.000000
vt 0.250000 0.490000
vt 0.341844 0.471731
vt 0.341844 0.471731
vt 0.250000 0.490000
vt 0.937500 1.000000
vt 0.937500 0.956309
vt 0.937500 0.956309
vt 0.937500 1.000000
vt 0.062500 0.956309
vt 0.062500 1.000000
vt 0.062500 1.000000
vt 0.062500 0.956309
vt 0.000000 0.956309
vt 0.062500 0.956309
vt 0.000000 0.956309
vt 0.937500 0.956309
vt 1.000000 0.956309
vt 1.000000 0.956309
vt 0.000000 0.956309
vt 0.062500 0.956309
vt 0.062500 0.956309
vt 0.000000 0.956309
vt 0.937500 1.000000
vt 0.158156 0.471731
vt 0.250000 0.490000
vt 0.250000 0.490000
vt 0.158156 0.471731
vt 0.158156 0.471731
vt 0.158156 0.471731
vt 0.937500 1.000000
vt 0.937500 0.956309
vt 0.937500 0.956309
vt 0.937500 1.000000
vt 0.062500 1.000000
vt 0.062500 1.000000
vt 0.062500 1.000000
vt 0.341844 0.471731
vt 0.250000 0.490000
vt 1.000000 0.956309
vt 1.000000 0.956309
vt 0.062500 0.956309
vt 0.062500 1.000000
vt 0.062500 1.000000
vt 0.062500 0.956309
vt 0.000000 0.956309
vt 0.158156 0.471731
vt 1.000000 0.956309
vt 1.000000 0.956309
vt 1.000000 0.956309
vt 0.158156 0.471731
vt 0.250000 0.490000
vt 0.250000 0.490000
vt 0.158156 0.471731
vt 0.937500 1.000000
vt 0.937500 0.956309
vt 0.937500 0.956309
vt 0.937500 1.000000
vt 0.937500 1.000000
vt 0.937500 0.956309
vt 0.937500 0.956309
vt 0.937500 1.000000
vt 0.158156 0.471731
vt 0.250000 0.490000
vt 0.250000 0.490000
vt 0.158156 0.471731
vt 0.000000 0.956309
vt 0.000000 0.956309
vt 0.341844 0.471731
vt 0.341844 0.471731
vt 0.158156 0.471731
vt 0.250000 0.490000
vt 0.250000 0.490000
vt 0.158156 0.471731
vt 0.937500 1.000000
vt 0.937500 0.956309
vt 0.937500 0.956309
vt 0.937500 1.000000
vt 0.000000 0.956309
vt 0.062500 0.956309
vt 0.062500 0.956309
vt 0.000000 0.956309
vt 0.341844 0.471731
vt 0.341844 0.471731
vt 0.062500 1.000000
vt 0.062500 1.000000
vt 1.000000 0.956309
vt 1.000000 0.956309
vt 1.000000 0.956309
vt 1.000000 0.956309
vt 0.062500 0.956309
vt 0.062500 1.000000
vt 0.062500 1.000000
vt 0.062500 0.956309
vt 0.000000 0.956309
vt 0.062500 0.956309
vt 0.062500 0.956309
vt 0.000000 0.956309
vt 0.341844 0.471731
vt 0.341844 0.471731
vt 0.062500 1.000000
vt 0.062500 1.000000
vt 1.000000 0.956309
vt 1.000000 0.956309
vt 0.937500 0.956309
vt 0.000000 0.956309
vt 0.000000 0.956309
vt 0.158156 0.471731
vt 0.250000 0.490000
vt 0.250000 0.490000
vt 0.158156 0.471731
vt 0.000002 0.956309
vt 0.341844 0.471731
vt 0.341844 0.471731
vt 0.062500 0.956309
vt 0.937500 1.000000
vt 0.158156 0.471731
vt 0.250000 0.490000
vt 0.937808 0.956259
vt 0.937500 0.999785
vt 0.937815 0.956257
vt 0.937500 0.999778
vt 0.341844 0.471731
vt 0.250000 0.489918
vt 0.342259 0.471649
vt 0.250000 0.490013
vt 0.341778 0.471744
vt 0.062185 0.956257
vt 0.062500 0.999778
vt 0.062192 0.956259
vt 0.062500 0.999785
vt 0.157741 0.471649
vt 0.158222 0.471744
vt 1.000455 0.956309
vt 1.000445 0.956309
vt -0.000455 0.956309
vt -0.000445 0.956309
vt 0.938000 0.956229
vt 0.937500 0.999874
vt 0.938020 0.956223
vt 0.937500 0.999865
vt 0.250000 0.489948
vt 0.342104 0.471679
vt 0.250000 0.489954
vt 0.342074 0.471685
vt 0.341844 0.471731
vt 0.061980 0.956223
vt 0.062500 0.999865
vt 0.062000 0.956230
vt 0.062500 0.999874
vt 0.157896 0.471679
vt 0.157926 0.471685
vt 1.001043 0.956309
vt 1.000995 0.956309
vt -0.001043 0.956309
vt -0.000995 0.956309
vt 0.937968 0.956234
vt 0.937500 0.999542
vt 0.938015 0.956215
vt 0.937500 0.999480
vt 0.250000 0.489587
vt 0.343930 0.471316
vt 0.250000 0.489830
vt 0.342705 0.471560
vt 0.061985 0.956215
vt 0.062500 0.999480
vt 0.062032 0.956234
vt 0.062500 0.999542
vt 0.156070 0.471316
vt 0.157295 0.471560
vt 1.000490 0.956309
vt 1.000441 0.956309
vt -0.000490 0.956309
vt -0.000441 0.956309
vt 0.938255 0.956205
vt 0.937500 0.999378
vt 0.938447 0.956139
vt 0.937500 0.999142
vt 0.250000 0.489402
vt 0.342562 0.471588
vt 0.250000 0.489610
vt 0.341405 0.471818
vt 0.061553 0.956139
vt 0.062500 0.999142
vt 0.061745 0.956205
vt 0.062500 0.999378
vt 0.157438 0.471588
vt 0.158595 0.471818
vt 1.001332 0.956309
vt 1.001079 0.956309
vt -0.001332 0.956309
vt -0.001079 0.956309
vt 0.941149 0.955733
vt 0.937500 0.999744
vt 0.943801 0.954988
vt 0.937500 0.999456
vt 0.250000 0.489610
vt 0.347511 0.470604
vt 0.250000 0.489772
vt 0.345177 0.471068
vt 0.056198 0.954988
vt 0.062500 0.999456
vt 0.058850 0.955733
vt 0.062500 0.999744
vt 0.152489 0.470604
vt 0.154823 0.471068
vt 1.015485 0.956309
vt 1.008336 0.956309
vt -0.015484 0.956309
vt -0.008336 0.956309
vt 0.875000 1.000000
vt 0.875000 0.956309
vt 0.812500 1.000000
vt 0.812500 0.956309
vt 0.750000 1.000000
vt 0.750000 0.956309
vt 0.687500 1.000000
vt 0.687500 0.956309
vt 0.625000 1.000000
vt 0.625000 0.956309
vt 0.562500 1.000000
vt 0.562500 0.956309
vt 0.500000 1.000000
vt 0.500000 0.956309
vt 0.437500 1.000000
vt 0.437500 0.956309
vt 0.375000 1.000000
vt 0.375000 0.956309
vt 0.312500 1.000000
vt 0.312500 0.956309
vt 0.250000 1.000000
vt 0.250000 0.956309
vt 0.187500 1.000000
vt 0.187500 0.956309
vt 0.125000 1.000000
vt 0.125000 0.956309
vt 0.080294 0.419706
vt 0.028269 0.341844
vt 0.010000 0.250000
vt 0.028269 0.158156
vt 0.080294 0.080294
vt 0.158156 0.028269
vt 0.250000 0.010000
vt 0.341844 0.028269
vt 0.419706 0.080294
vt 0.471731 0.158156
vt 0.490000 0.250000
vt 0.471731 0.341844
vt 0.419706 0.419706
vt 0.750000 0.490000
vt 0.841844 0.471731
vt 0.919706 0.419706
vt 0.971731 0.341844
vt 0.990000 0.250000
vt 0.971731 0.158156
vt 0.919706 0.080294
vt 0.841844 0.028269
vt 0.750000 0.010000
vt 0.658156 0.028269
vt 0.580294 0.080294
vt 0.528269 0.158156
vt 0.510000 0.250000
vt 0.528269 0.341844
vt 0.580294 0.419706
vt 0.658156 0.471731
vt 0.062500 0.500000
vt 0.000000 0.500000
vt 0.125000 0.500000
vt 0.187500 0.500000
vt 0.250000 0.500000
vt 0.312500 0.500000
vt 0.375000 0.500000
vt 0.437500 0.500000
vt 0.500000 0.500000
vt 0.562500 0.500000
vt 0.625000 0.500000
vt 0.687500 0.500000
vt 0.750000 0.500000
vt 0.812500 0.500000
vt 0.875000 0.500000
vt 0.937500 0.500000
vt 1.000000 0.500000
vn 0.9014 0.4242 -0.0868
vn -0.4330 0.8831 -0.1809
vn -0.9014 -0.4242 0.0868
vn -0.7110 -0.7020 -0.0406
vn 0.9749 0.0914 -0.2030
vn -0.8122 -0.5682 0.1323
vn -0.4522 0.7957 -0.4029
vn -0.4330 0.8830 -0.1809
vn -0.4353 0.8813 -0.1840
vn 0.9658 0.2592 -0.0029
vn -0.8164 -0.5658 0.1151
vn -0.4307 0.8835 -0.1845
vn 0.9610 0.2706 -0.0560
vn 0.9629 0.2672 -0.0386
vn -0.4044 0.4491 -0.7968
vn 0.9127 0.3902 -0.1215
vn -0.4407 0.7361 -0.5138
vn -0.8024 -0.5729 0.1673
vn -0.3679 0.7704 -0.5208
vn -0.3292 0.1342 -0.9347
vn 0.9100 0.3989 -0.1127
vn -0.7657 -0.6055 0.2169
vn -0.2154 0.5380 -0.8150
vn 0.9756 0.2140 0.0492
vn 0.9647 0.1944 0.1776
vn -0.8915 -0.4489 0.0608
vn -0.7041 -0.6541 0.2763
vn -0.0432 0.2688 -0.9622
vn -0.8879 -0.4571 0.0519
vn 0.9836 0.1401 0.1138
vn 0.9515 0.2234 0.2116
vn -0.7324 -0.5690 0.3738
vn -0.3172 0.0979 -0.9433
vn -0.7239 -0.6002 0.3402
vn -0.0243 0.2357 -0.9715
vn -0.8829 -0.4677 0.0404
vn 0.9159 0.3788 -0.1329
vn -0.2025 -0.2001 -0.9586
vn 0.1297 -0.0439 -0.9906
vn -0.4022 0.8404 -0.3634
vn -0.4177 0.8580 -0.2989
vn -0.4302 0.8722 -0.2328
vn -0.4482 0.8187 -0.3589
vn -0.4419 0.8466 -0.2966
vn -0.4346 0.8701 -0.2324
vn 0.9616 0.2710 -0.0433
vn 0.9613 0.2714 -0.0482
vn 0.9611 0.2712 -0.0528
vn -0.8150 -0.5651 0.1278
vn -0.8159 -0.5650 0.1230
vn -0.8163 -0.5653 0.1184
vn -0.3635 0.7868 -0.4988
vn -0.3719 0.8023 -0.4669
vn -0.3813 0.8163 -0.4338
vn -0.4525 0.7449 -0.4902
vn -0.4541 0.7636 -0.4590
vn -0.4538 0.7822 -0.4269
vn 0.9649 0.2622 -0.0119
vn 0.9646 0.2629 -0.0216
vn 0.9641 0.2636 -0.0310
vn -0.8055 -0.5709 0.1586
vn -0.8074 -0.5710 0.1490
vn -0.8090 -0.5709 0.1397
vn -0.2568 0.5895 -0.7658
vn -0.3052 0.6602 -0.6863
vn -0.3495 0.7246 -0.5939
vn -0.4101 0.5174 -0.7511
vn -0.4215 0.6055 -0.6751
vn -0.4286 0.6874 -0.5863
vn 0.9687 0.2474 0.0222
vn 0.9675 0.2526 0.0118
vn 0.9668 0.2555 0.0034
vn -0.7911 -0.5808 0.1917
vn -0.7960 -0.5773 0.1816
vn -0.7992 -0.5756 0.1734
vn 0.9039 0.4173 -0.0939
vn 0.9072 0.4077 -0.1038
vn 0.9104 0.3977 -0.1139
vn -0.0761 0.3265 -0.9421
vn -0.1243 0.4062 -0.9053
vn -0.1740 0.4848 -0.8572
vn -0.8910 -0.4500 0.0595
vn -0.8951 -0.4405 0.0697
vn -0.8988 -0.4310 0.0797
vn -0.3495 0.1978 -0.9158
vn -0.3746 0.2884 -0.8812
vn -0.3961 0.3803 -0.8358
vn 0.9841 0.1410 0.1083
vn 0.9841 0.1488 0.0969
vn 0.9832 0.1627 0.0829
vn -0.7060 -0.6543 0.2710
vn -0.7137 -0.6502 0.2604
vn -0.7260 -0.6417 0.2474
vn 0.9121 0.3921 -0.1196
vn 0.9114 0.3946 -0.1171
vn 0.9106 0.3971 -0.1146
vn -0.0273 0.2430 -0.9696
vn -0.0329 0.2524 -0.9670
vn -0.0388 0.2619 -0.9643
vn -0.8908 -0.4506 0.0588
vn -0.8897 -0.4530 0.0563
vn -0.8887 -0.4554 0.0538
vn -0.3204 0.1051 -0.9414
vn -0.3238 0.1156 -0.9390
vn -0.3269 0.1263 -0.9366
vn 0.9694 0.1832 0.1637
vn 0.9751 0.1674 0.1453
vn 0.9802 0.1516 0.1270
vn -0.7204 -0.6120 0.3264
vn -0.7148 -0.6279 0.3080
vn -0.7087 -0.6432 0.2897
vn -0.3889 0.8255 -0.4090
vn 0.5009 0.0689 -0.8628
vn 0.7495 0.2412 -0.6164
vn 0.8841 0.3769 -0.2762
vn 0.8841 0.4552 0.1060
vn 0.7494 0.4642 0.4721
vn 0.5007 0.4025 0.7663
vn 0.1758 0.2795 0.9439
vn -0.1759 0.1140 0.9778
vn -0.5009 -0.0689 0.8628
vn -0.7495 -0.2412 0.6164
vn -0.8841 -0.3769 0.2763
vn -0.8841 -0.4552 -0.1060
vn -0.7494 -0.4642 -0.4721
vn -0.5007 -0.4025 -0.7663
vn 0.4330 -0.8831 0.1809
vn -0.1758 -0.2795 -0.9439
vn -0.8841 -0.3769 0.2762
vn 0.1759 -0.1140 -0.9778
usemtl blade
s off
f 54/1/1 50/2/1 82/3/1 79/4/1
f 2/5/2 4/6/2 54/7/2 53/8/2
f 86/9/1 91/10/1 114/11/1 111/12/1
f 49/13/3 51/14/3 74/15/3 71/16/3
f 33/17/4 48/18/4 49/13/4 52/19/4
f 34/20/5 33/21/5 52/22/5 50/2/5
f 67/23/6 70/24/6 103/25/6 106/26/6
f 4/27/1 34/20/1 50/2/1 54/1/1
f 75/28/7 62/29/7 95/30/7 98/31/7
f 32/32/8 2/5/8 53/8/8 51/33/8
f 78/34/1 83/35/1 90/36/1 87/37/1
f 48/18/3 32/38/3 51/14/3 49/13/3
f 70/24/3 75/39/3 98/40/3 103/25/3
f 53/8/9 54/7/9 79/41/9 63/42/9
f 91/10/10 107/43/10 130/44/10 114/11/10
f 102/45/3 99/46/3 122/47/3 127/48/3
f 52/19/11 49/13/11 71/16/11 66/49/11
f 51/33/12 53/8/12 63/42/12 74/50/12
f 50/2/13 52/22/13 66/51/13 82/3/13
f 83/35/14 67/52/14 106/53/14 90/36/14
f 123/54/15 118/55/15 143/56/15 146/57/15
f 134/58/16 139/59/16 162/60/16 159/61/16
f 110/62/1 115/63/1 138/64/1 135/65/1
f 99/66/17 94/67/17 119/68/17 122/69/17
f 107/70/18 102/45/18 127/48/18 130/71/18
f 94/67/19 86/72/19 111/73/19 119/68/19
f 147/74/20 142/75/20 167/76/20 170/77/20
f 158/78/21 163/79/21 56/80/21 55/81/21
f 131/82/22 126/83/22 151/84/22 154/85/22
f 118/55/23 110/86/23 135/87/23 143/56/23
f 126/83/3 123/88/3 146/89/3 151/84/3
f 115/63/24 131/90/24 154/91/24 138/64/24
f 163/79/25 179/92/25 60/93/25 56/80/25
f 174/94/26 171/95/26 58/96/26 59/97/26
f 155/98/27 150/99/27 175/100/27 178/101/27
f 142/75/28 134/102/28 159/103/28 167/76/28
f 150/99/29 147/104/29 170/105/29 175/100/29
f 139/59/30 155/106/30 178/107/30 162/60/30
f 56/80/31 60/93/31 61/108/31
f 60/109/32 59/97/32 61/110/32
f 171/111/33 166/112/33 57/113/33 58/114/33
f 179/115/34 174/94/34 59/97/34 60/109/34
f 166/112/35 158/116/35 55/117/35 57/113/35
f 59/97/36 58/96/36 61/118/36
f 55/81/37 56/80/37 61/119/37
f 58/114/38 57/113/38 61/120/38
f 57/113/39 55/117/39 61/121/39
f 79/4/1 82/3/1 84/122/1 81/123/1
f 81/123/1 84/122/1 85/124/1 80/125/1
f 80/125/1 85/124/1 83/35/1 78/34/1
f 78/126/40 62/29/40 64/127/40 80/128/40
f 80/128/41 64/127/41 65/129/41 81/130/41
f 81/130/42 65/129/42 63/42/42 79/41/42
f 75/39/3 70/24/3 72/131/3 77/132/3
f 77/132/3 72/131/3 73/133/3 76/134/3
f 76/134/3 73/133/3 71/16/3 74/15/3
f 62/29/43 75/28/43 77/135/43 64/127/43
f 64/127/44 77/135/44 76/136/44 65/129/44
f 65/129/45 76/136/45 74/50/45 63/42/45
f 67/52/46 83/35/46 85/124/46 69/137/46
f 69/137/47 85/124/47 84/122/47 68/138/47
f 68/138/48 84/122/48 82/3/48 66/51/48
f 70/24/49 67/23/49 69/139/49 72/131/49
f 72/131/50 69/139/50 68/140/50 73/133/50
f 73/133/51 68/140/51 66/49/51 71/16/51
f 87/37/1 90/36/1 92/141/1 89/142/1
f 89/142/1 92/141/1 93/143/1 88/144/1
f 88/144/1 93/143/1 91/10/1 86/9/1
f 86/72/52 94/67/52 96/145/52 88/146/52
f 88/146/53 96/145/53 97/147/53 89/148/53
f 89/148/54 97/147/54 95/30/54 87/149/54
f 99/46/3 102/45/3 104/150/3 101/151/3
f 101/151/3 104/150/3 105/152/3 100/153/3
f 100/153/3 105/152/3 103/25/3 98/40/3
f 94/67/55 99/66/55 101/154/55 96/145/55
f 96/145/56 101/154/56 100/155/56 97/147/56
f 97/147/57 100/155/57 98/31/57 95/30/57
f 107/43/58 91/10/58 93/143/58 109/156/58
f 109/156/59 93/143/59 92/141/59 108/157/59
f 108/157/60 92/141/60 90/36/60 106/53/60
f 102/45/61 107/70/61 109/158/61 104/150/61
f 104/150/62 109/158/62 108/159/62 105/152/62
f 105/152/63 108/159/63 106/26/63 103/25/63
f 111/12/1 114/11/1 116/160/1 113/161/1
f 113/161/1 116/160/1 117/162/1 112/163/1
f 112/163/1 117/162/1 115/63/1 110/62/1
f 110/86/64 118/55/64 120/164/64 112/165/64
f 112/165/65 120/164/65 121/166/65 113/167/65
f 113/167/66 121/166/66 119/68/66 111/73/66
f 123/88/3 126/83/3 128/168/3 125/169/3
f 125/169/3 128/168/3 129/170/3 124/171/3
f 124/171/3 129/170/3 127/48/3 122/47/3
f 118/55/67 123/54/67 125/172/67 120/164/67
f 120/164/68 125/172/68 124/173/68 121/166/68
f 121/166/69 124/173/69 122/69/69 119/68/69
f 131/90/70 115/63/70 117/162/70 133/174/70
f 133/174/71 117/162/71 116/160/71 132/175/71
f 132/175/72 116/160/72 114/11/72 130/44/72
f 126/83/73 131/82/73 133/176/73 128/168/73
f 128/168/74 133/176/74 132/177/74 129/170/74
f 129/170/75 132/177/75 130/71/75 127/48/75
f 135/65/76 138/64/76 140/178/76 137/179/76
f 137/179/77 140/178/77 141/180/77 136/181/77
f 136/181/78 141/180/78 139/59/78 134/58/78
f 134/102/79 142/75/79 144/182/79 136/183/79
f 136/183/80 144/182/80 145/184/80 137/185/80
f 137/185/81 145/184/81 143/56/81 135/87/81
f 147/104/82 150/99/82 152/186/82 149/187/82
f 149/187/83 152/186/83 153/188/83 148/189/83
f 148/189/84 153/188/84 151/84/84 146/89/84
f 142/75/85 147/74/85 149/190/85 144/182/85
f 144/182/86 149/190/86 148/191/86 145/184/86
f 145/184/87 148/191/87 146/57/87 143/56/87
f 155/106/88 139/59/88 141/180/88 157/192/88
f 157/192/89 141/180/89 140/178/89 156/193/89
f 156/193/90 140/178/90 138/64/90 154/91/90
f 150/99/91 155/98/91 157/194/91 152/186/91
f 152/186/92 157/194/92 156/195/92 153/188/92
f 153/188/93 156/195/93 154/85/93 151/84/93
f 159/61/94 162/60/94 164/196/94 161/197/94
f 161/197/95 164/196/95 165/198/95 160/199/95
f 160/199/96 165/198/96 163/79/96 158/78/96
f 158/116/97 166/112/97 168/200/97 160/201/97
f 160/201/98 168/200/98 169/202/98 161/203/98
f 161/203/99 169/202/99 167/76/99 159/103/99
f 171/95/100 174/94/100 176/204/100 173/205/100
f 173/205/101 176/204/101 177/206/101 172/207/101
f 172/207/102 177/206/102 175/100/102 170/105/102
f 166/112/103 171/111/103 173/208/103 168/200/103
f 168/200/104 173/208/104 172/209/104 169/202/104
f 169/202/105 172/209/105 170/77/105 167/76/105
f 179/92/106 163/79/106 165/198/106 181/210/106
f 181/210/107 165/198/107 164/196/107 180/211/107
f 180/211/108 164/196/108 162/60/108 178/107/108
f 174/94/109 179/115/109 181/212/109 176/204/109
f 176/204/110 181/212/110 180/213/110 177/206/110
f 177/206/111 180/213/111 178/101/111 175/100/111
f 62/29/112 78/126/112 87/149/112 95/30/112
usemtl staff
f 34/20/113 4/27/113 6/214/113 35/215/113
f 35/215/114 6/214/114 8/216/114 36/217/114
f 36/217/115 8/216/115 10/218/115 37/219/115
f 37/219/116 10/218/116 12/220/116 38/221/116
f 38/221/117 12/220/117 14/222/117 39/223/117
f 39/223/118 14/222/118 16/224/118 40/225/118
f 40/225/119 16/224/119 18/226/119 41/227/119
f 41/227/120 18/226/120 20/228/120 42/229/120
f 42/229/121 20/228/121 22/230/121 43/231/121
f 43/231/122 22/230/122 24/232/122 44/233/122
f 44/233/123 24/232/123 26/234/123 45/235/123
f 45/235/124 26/234/124 28/236/124 46/237/124
f 46/237/125 28/236/125 30/238/125 47/239/125
f 4/6/2 2/5/2 32/32/2 30/240/2 28/241/2 26/242/2 24/243/2 22/244/2 20/245/2 18/246/2 16/247/2 14/248/2 12/249/2 10/250/2 8/251/2 6/252/2
f 47/239/126 30/238/126 32/38/126 48/18/126
f 1/253/127 3/254/127 5/255/127 7/256/127 9/257/127 11/258/127 13/259/127 15/260/127 17/261/127 19/262/127 21/263/127 23/264/127 25/265/127 27/266/127 29/267/127 31/268/127
f 31/269/128 48/18/128 33/17/128 1/270/128
f 29/271/126 47/239/126 48/18/126 31/269/126
f 27/272/125 46/237/125 47/239/125 29/271/125
f 25/273/124 45/235/124 46/237/124 27/272/124
f 23/274/129 44/233/129 45/235/129 25/273/129
f 21/275/122 43/231/122 44/233/122 23/274/122
f 19/276/121 42/229/121 43/231/121 21/275/121
f 17/277/120 41/227/120 42/229/120 19/276/120
f 15/278/119 40/225/119 41/227/119 17/277/119
f 13/279/118 39/223/118 40/225/118 15/278/118
f 11/280/117 38/221/117 39/223/117 13/279/117
f 9/281/116 37/219/116 38/221/116 11/280/116
f 7/282/115 36/217/115 37/219/115 9/281/115
f 5/283/114 35/215/114 36/217/114 7/282/114
f 3/284/113 34/20/113 35/215/113 5/283/113
f 1/285/130 33/21/130 34/20/130 3/284/130
