# Blender 4.0.2
# www.blender.org
mtllib foodStorage.mtl
o FoodStorage
v 1.000000 -2.064425 -0.068567
v 1.000000 1.233903 0.009185
v 1.000000 0.364856 -0.326109
v 1.000000 -0.083737 -0.008681
v 0.863966 1.783592 -1.000000
v 0.863966 -1.783592 -1.000000
v 1.000000 -2.064425 -0.863966
v -0.863966 1.783592 -1.000000
v -0.863966 -1.783592 -1.000000
v -1.000000 -2.064425 -0.863966
v 0.817680 1.688038 1.000000
v 0.817680 -1.688038 1.000000
v 1.000000 -2.064425 0.817680
v -0.817680 1.688038 1.000000
v -1.000000 -2.064425 0.817680
v -0.817680 -1.688038 1.000000
v 0.888158 2.064425 0.031403
v 1.000000 1.833535 0.025226
v 0.888158 2.064425 -0.752123
v 0.960458 1.867348 -0.903508
v -0.888158 2.064425 -0.752123
v -0.960458 1.867348 -0.903508
v 0.888158 2.064425 0.705837
v 0.960458 1.867348 0.857222
v -0.888158 2.064425 0.705837
v -0.960458 1.867348 0.857222
vn -0.0000 1.0000 -0.0000
vn -0.0000 0.7552 -0.6555
vn -0.0000 0.6229 0.7823
vn -0.0000 -1.0000 -0.0000
vn -0.0000 -0.0000 1.0000
vn -0.0000 -0.4359 -0.9000
vn -0.7071 -0.0000 -0.7071
vn -0.9999 0.0101 -0.0000
vn 0.7071 -0.0000 -0.7071
vn -0.0000 -0.0000 -1.0000
vn -0.7071 -0.0000 0.7071
vn 0.7071 -0.0000 0.7071
vn -0.0000 -0.4359 0.9000
vn 0.9997 0.0055 -0.0242
vn -0.0000 0.6092 -0.7930
vn 0.9167 0.3993 -0.0133
vn -0.0000 0.6092 0.7930
vn 0.9166 0.3995 0.0151
vn -0.9388 0.3444 -0.0000
vn 0.9998 0.0044 0.0217
vt 0.638980 0.530985
vt 0.861020 0.530985
vt 0.861020 0.713230
vt 0.638980 0.713230
vt 0.638980 0.628925
vt 0.616562 0.254943
vt 0.616562 0.495057
vt 0.607996 0.482996
vt 0.607996 0.267004
vt 0.616562 0.754943
vt 0.616562 0.995057
vt 0.602210 0.977210
vt 0.602210 0.772790
vt 0.125000 0.517004
vt 0.375000 0.517004
vt 0.375000 0.616429
vt 0.375000 0.727210
vt 0.125000 0.727210
vt 0.397790 0.772790
vt 0.397790 0.977210
vt 0.375000 0.500000
vt 0.375000 0.250000
vt 0.392004 0.267004
vt 0.392004 0.482996
vt 0.375000 0.232996
vt 0.613067 0.242881
vt 0.375000 0.022790
vt 0.613067 0.017847
vt 0.613067 0.237938
vt 0.613067 0.507119
vt 0.613067 0.995057
vt 0.375000 1.000000
vt 0.375000 0.727210
vt 0.613067 0.737095
vt 0.375000 0.750000
vt 0.613067 0.512061
vt 0.611020 0.628153
vt 0.574712 0.626148
vt 0.522092 0.584236
vt 0.494930 0.623915
vt 0.629943 0.517004
vt 0.870057 0.517004
vt 0.870057 0.727210
vt 0.629943 0.727210
vt 0.613067 0.732153
vt 0.611020 0.628153
vt 0.875000 0.517004
vt 0.875000 0.727210
s 0
g FoodStorage_FoodStorageMat
usemtl FoodStorageMat
f 19/1/1 21/2/1 25/3/1 23/4/1 17/5/1
f 22/6/2 20/7/2 5/8/2 8/9/2
f 24/10/3 26/11/3 14/12/3 11/13/3
f 10/14/4 7/15/4 1/16/4 13/17/4 15/18/4
f 12/19/5 11/13/5 14/12/5 16/20/5
f 7/21/6 10/22/6 9/23/6 6/24/6
f 8/9/7 9/23/7 10/25/7 22/26/7
f 15/27/8 26/28/8 22/29/8 10/25/8
f 20/30/9 7/15/9 6/24/9 5/8/9
f 9/23/10 8/9/10 5/8/10 6/24/10
f 16/20/11 14/12/11 26/31/11 15/32/11
f 11/13/12 12/19/12 13/33/12 24/34/12
f 15/32/13 13/35/13 12/19/13 16/20/13
f 7/15/14 20/36/14 18/37/14 2/38/14 3/39/14 4/40/14 1/16/14
f 21/2/15 19/1/15 20/41/15 22/42/15
f 18/37/16 20/36/16 19/1/16 17/5/16
f 23/4/17 25/3/17 26/43/17 24/44/17
f 17/5/18 23/4/18 24/45/18 18/46/18
f 22/47/19 26/48/19 25/3/19 21/2/19
f 1/16/20 4/40/20 3/39/20 2/38/20 18/46/20 24/45/20 13/33/20
