# Blender 4.0.2
# www.blender.org
mtllib futuristicdoor.mtl
o RightDoorSide
v 0.280963 -1.286906 -0.294467
v 0.280963 1.340834 0.064551
v 0.280963 0.641977 0.042647
v 0.280963 -0.071587 -0.251729
v 0.381909 1.340834 0.064551
v 0.381909 -1.286906 -0.294467
v 0.381909 0.641977 0.042647
v 0.381909 -0.071587 -0.251729
v 0.373823 -1.286906 -0.294467
v 0.373823 1.340834 0.064551
v 0.373823 0.641977 0.042647
v 0.373823 -0.071587 -0.251729
v 0.280963 1.340834 -0.627378
v 0.280963 0.859280 -0.993893
v 0.373823 0.859280 -0.993893
v 0.373823 1.340834 -0.627378
v 0.280963 -0.864456 -0.993893
v 0.280963 -1.286906 -0.672362
v 0.373823 -1.286906 -0.672362
v 0.373823 -0.864456 -0.993893
v 0.115011 1.340834 0.064551
v 0.115011 0.641977 0.042647
v 0.115011 -0.071587 -0.251729
v 0.115011 -1.286906 -0.294467
v 0.115011 0.859280 -0.993893
v 0.115011 1.340834 -0.627378
v 0.115011 -1.286906 -0.672362
v 0.115011 -0.864456 -0.993893
vn -0.0000 0.3814 -0.9244
vn -0.0000 0.0351 -0.9994
vn -0.0000 0.0313 -0.9995
vn -0.0000 -0.3814 0.9244
vn 1.0000 -0.0000 -0.0000
vn -0.0000 -0.0000 -1.0000
vn -0.0000 -0.0351 0.9994
vn -0.0000 -0.0313 0.9995
vn -0.0000 1.0000 -0.0000
vn -0.0000 0.6056 -0.7957
vn -0.0000 -1.0000 -0.0000
vn -0.0000 -0.6056 -0.7957
vn -1.0000 -0.0000 -0.0000
vt 0.490624 0.592771
vt 0.558512 0.629568
vt 0.375000 0.587428
vt 0.625000 0.632306
vt 0.375000 0.540191
vt 0.415191 0.500000
vt 0.579186 0.500000
vt 0.625000 0.545814
vt 0.415191 0.500000
vt 0.625000 0.545814
vt 0.000000 0.000000
s 0
g RightDoorSide_DoorSide1
usemtl DoorSide1
f 4/1/1 3/2/1 7/2/1 8/1/1
f 1/3/2 4/1/2 8/1/2 6/3/2
f 3/2/3 2/4/3 5/4/3 7/2/3
f 3/2/4 4/1/4 12/1/4 11/2/4
f 19/5/5 20/6/5 15/7/5 16/8/5 10/4/5 11/2/5 12/1/5 9/3/5
f 17/6/6 14/7/6 15/7/6 20/9/6
f 4/1/7 1/3/7 9/3/7 12/1/7
f 2/4/8 3/2/8 11/2/8 10/4/8
f 13/8/9 2/4/9 10/4/9 16/10/9
f 13/8/10 16/10/10 15/7/10 14/7/10
f 1/3/11 18/5/11 19/5/11 9/3/11
f 19/5/12 18/5/12 17/6/12 20/9/12
f 14/7/6 17/6/6 28/6/6 25/7/6
f 21/11/13 26/11/13 25/11/13 28/11/13 27/11/13 24/11/13 23/11/13 22/11/13
f 17/6/12 18/5/12 27/5/12 28/6/12
f 4/1/4 3/2/4 22/2/4 23/1/4
f 2/4/9 13/8/9 26/8/9 21/4/9
f 18/5/11 1/3/11 24/3/11 27/5/11
f 13/8/10 14/7/10 25/7/10 26/8/10
f 1/3/7 4/1/7 23/1/7 24/3/7
f 3/2/8 2/4/8 21/4/8 22/2/8
o LeftSideDoor
v 0.108312 0.636938 0.042138
v 0.277768 -1.291945 -0.294975
v 0.277768 1.335795 0.064042
v 0.277768 0.636938 0.042138
v 0.277768 -0.076626 -0.252237
v 0.378714 1.335795 0.064042
v 0.108312 1.335795 0.064042
v 0.378714 -1.291945 -0.294975
v 0.378714 0.636938 0.042138
v 0.378714 -0.076626 -0.252237
v 0.277768 0.858155 1.005598
v 0.277768 1.335795 0.642062
v 0.378714 1.335795 0.642062
v 0.378714 0.858155 1.005598
v 0.277768 -1.291945 0.699116
v 0.277768 -0.889266 1.005598
v 0.378714 -0.889266 1.005598
v 0.378714 -1.291945 0.699116
v 0.108312 -0.076626 -0.252237
v 0.108312 -1.291945 -0.294975
v 0.108312 1.335795 0.642062
v 0.108312 0.858155 1.005598
v 0.108312 -0.889266 1.005598
v 0.108312 -1.291945 0.699116
v 0.378714 -1.291945 -0.180172
v 0.378714 1.335795 0.224850
v 0.378714 0.641187 0.208671
v 0.378714 -0.138560 -0.123456
v 0.333384 1.335795 0.064042
v 0.333384 0.636938 0.042138
v 0.333384 -0.076626 -0.252237
v 0.333384 -1.291945 -0.294975
v 0.333384 1.335795 0.224850
v 0.333384 -1.291945 -0.180172
v 0.333384 0.641187 0.208671
v 0.333384 -0.138560 -0.123456
vn -1.0000 -0.0000 -0.0000
vn -0.0000 0.3814 -0.9244
vn -0.0000 1.0000 -0.0000
vn -0.0000 0.0351 -0.9994
vn -0.0000 0.0313 -0.9995
vn -0.0000 -0.0000 1.0000
vn -0.0000 -0.3814 0.9244
vn -0.0000 0.6056 0.7957
vn -0.0000 -1.0000 -0.0000
vn -0.0000 -0.6056 0.7957
vn 1.0000 -0.0000 -0.0000
vn -0.0000 0.0491 -0.9988
vn -0.0000 0.0233 -0.9997
vn -0.0000 -0.0351 0.9994
vn -0.0000 -0.0313 0.9995
vn -0.0000 0.3919 -0.9200
vt 0.579558 0.750000
vt 0.625000 0.704558
vt 0.625000 0.632306
vt 0.558512 0.629568
vt 0.490624 0.592771
vt 0.375000 0.587428
vt 0.375000 0.711690
vt 0.413310 0.750000
vt 0.625000 0.704558
vt 0.625000 0.652406
vt 0.413310 0.750000
vt 0.579558 0.750000
vt 0.375000 0.601779
vt 0.484732 0.608868
vt 0.558916 0.650384
s 0
g LeftSideDoor_DoorSide2
usemtl DoorSide2
f 50/12/14 49/13/14 35/14/14 29/15/14 47/16/14 48/17/14 52/18/14 51/19/14
f 33/16/15 32/15/15 37/15/15 38/16/15
f 31/14/16 40/20/16 41/13/16 54/21/16 34/14/16
f 30/17/17 33/16/17 38/16/17 36/17/17
f 32/15/18 31/14/18 34/14/18 37/15/18
f 39/12/19 44/19/19 45/22/19 42/23/19
f 38/16/20 37/15/20 58/15/20 59/16/20
f 39/12/21 42/23/21 41/13/21 40/20/21
f 43/18/22 30/17/22 36/17/22 53/24/22 46/18/22
f 43/18/23 46/18/23 45/22/23 44/19/23
f 32/15/15 33/16/15 47/16/15 29/15/15
f 39/12/21 40/20/21 49/20/21 50/12/21
f 40/20/16 31/14/16 35/14/16 49/20/16
f 44/19/19 39/12/19 50/12/19 51/19/19
f 33/16/17 30/17/17 48/17/17 47/16/17
f 31/14/18 32/15/18 29/15/18 35/14/18
f 43/18/23 44/19/23 51/19/23 52/18/23
f 30/17/22 43/18/22 52/18/22 48/17/22
f 53/24/24 56/25/24 55/26/24 54/21/24 41/20/24 42/23/24 45/22/24 46/18/24
f 60/17/24 59/16/24 58/15/24 57/14/24 61/21/24 63/26/24 64/25/24 62/24/24
f 56/25/25 53/24/25 62/24/25 64/25/25
f 54/21/26 55/26/26 63/26/26 61/21/26
f 34/14/22 54/21/22 61/21/22 57/14/22
f 53/24/16 36/17/16 60/17/16 62/24/16
f 36/17/27 38/16/27 59/16/27 60/17/27
f 37/15/28 34/14/28 57/14/28 58/15/28
f 55/26/29 56/25/29 64/25/29 63/26/29
o leftSideCover
v 0.390675 -1.290379 0.666108
v 0.355721 -1.286540 1.128196
v 0.089076 -1.292367 0.695517
v 0.090808 -1.305157 1.160760
v 0.397493 1.324227 0.630818
v 0.430536 0.863107 0.960775
v 0.388595 1.504249 0.633104
v 0.421637 0.874572 1.127562
v 0.132473 1.324227 0.630818
v 0.099431 0.863107 0.994072
v 0.123575 1.504249 0.633104
v 0.090532 0.874572 1.160858
v 0.359893 1.344410 0.056170
v 0.388595 1.524431 0.058457
v 0.123575 1.524431 0.058457
v 0.094873 1.344410 0.056170
v 0.378205 -0.907440 0.996088
v 0.092154 -0.971538 0.965772
v 0.090532 -0.893257 1.160858
v 0.362863 -0.827912 1.170070
v 0.095792 -0.028065 0.889124
v 0.404190 0.053850 0.942846
v 0.090532 -0.009343 1.160858
v 0.398945 0.068299 1.213908
vn 0.9979 -0.0544 -0.0346
vn -1.0000 0.0039 -0.0002
vn 0.9961 -0.0302 0.0827
vn 0.0354 -0.9993 -0.0084
vn 0.0509 -0.0485 0.9975
vn 0.9970 0.0753 0.0197
vn 0.0433 0.6296 0.7757
vn -0.9959 -0.0131 -0.0899
vn -0.0446 -0.6003 -0.7986
vn -0.0716 0.6467 -0.7594
vn -0.0000 0.0127 -0.9999
vn -0.0000 -0.9994 -0.0351
vn -0.0000 0.9994 0.0351
vn -0.9979 0.0544 0.0346
vn 0.9990 -0.0289 0.0340
vn 0.0227 0.0717 -0.9972
vn -0.0371 0.0515 0.9980
vn -0.9995 0.0040 -0.0325
vn -0.9999 0.0014 -0.0150
vn -0.1011 -0.0224 0.9946
vn 0.1564 -0.0696 -0.9852
vn 0.9980 -0.0331 0.0532
vt 0.845022 0.529978
vt 0.845022 0.720022
vt 0.375000 0.500000
vt 0.415165 0.500000
vt 0.415087 0.750000
vt 0.375000 0.750000
vt 0.375000 0.000000
vt 0.415123 0.000000
vt 0.415250 0.250000
vt 0.375000 0.250000
vt 0.125000 0.500000
vt 0.125000 0.750000
vt 0.875000 0.500000
vt 0.875000 0.750000
vt 0.654978 0.529978
vt 0.625000 0.500000
vt 0.654978 0.720022
vt 0.595022 0.750000
vt 0.595022 0.500000
vt 0.625000 0.750000
vt 0.415123 1.000000
vt 0.375000 1.000000
vt 0.505136 0.250000
vt 0.505073 0.000000
vt 0.595022 0.000000
vt 0.595022 0.250000
vt 0.505073 1.000000
vt 0.505054 0.750000
vt 0.595022 1.000000
vt 0.505094 0.500000
s 0
g leftSideCover_DoorCover2
usemtl DoorCover2
f 71/27/30 69/28/30 77/28/30 78/27/30
f 68/29/31 83/30/31 82/31/31 67/32/31
f 65/33/32 81/34/32 84/35/32 66/36/32
f 66/37/33 68/29/33 67/32/33 65/38/33
f 66/36/34 84/35/34 83/30/34 68/29/34
f 69/28/35 71/27/35 72/39/35 70/40/35
f 71/27/36 75/41/36 76/42/36 72/39/36
f 75/41/37 73/43/37 74/44/37 76/45/37
f 73/43/38 69/28/38 70/40/38 74/46/38
f 67/32/39 82/31/39 81/47/39 65/48/39
f 79/41/40 78/27/40 77/28/40 80/43/40
f 69/28/41 73/43/41 80/43/41 77/28/41
f 75/41/42 71/27/42 78/27/42 79/41/42
f 73/43/43 75/41/43 79/41/43 80/43/43
f 88/49/44 86/50/44 70/51/44 72/52/44
f 86/53/45 85/54/45 74/44/45 70/55/45
f 87/56/46 88/49/46 72/52/46 76/45/46
f 85/54/47 87/56/47 76/45/47 74/44/47
f 82/31/48 83/30/48 87/56/48 85/54/48
f 83/30/49 84/35/49 88/49/49 87/56/49
f 81/47/50 82/31/50 85/54/50 86/53/50
f 84/35/51 81/34/51 86/50/51 88/49/51
o rightSideCover
v 0.120330 -1.289491 -0.960141
v 0.112307 0.861781 -0.989515
v 0.120330 -1.289491 -1.212157
v 0.112307 1.004619 -1.188509
v 0.404263 -1.289491 -0.960141
v 0.376967 0.861781 -0.989515
v 0.404263 -1.289491 -1.212157
v 0.376967 1.004619 -1.188509
v 0.112307 1.325446 -0.537361
v 0.112307 1.536636 -0.535806
v 0.376967 1.536636 -0.535806
v 0.376967 1.325446 -0.537361
v 0.112307 1.020168 -1.202458
v 0.376967 1.020168 -1.202458
v 0.112307 1.527404 -0.637037
v 0.376967 1.527404 -0.637037
v 0.118984 -0.904521 -1.208189
v 0.399768 -0.911736 -1.208263
v 0.399504 -0.914410 -0.965262
v 0.118888 -0.902755 -0.965421
v 0.399504 -0.985206 -0.887949
v 0.404263 -1.293961 -0.674917
v 0.120330 -1.293961 -0.674917
v 0.118888 -0.975612 -0.894568
v 0.112307 1.321044 0.060378
v 0.112307 1.532234 0.061933
v 0.376967 1.532234 0.061933
v 0.376967 1.321044 0.060378
vn -1.0000 -0.0036 -0.0002
vn -0.0000 0.0103 -0.9999
vn 0.9999 0.0123 0.0006
vn -0.0000 -0.9999 -0.0157
vn -0.0000 -1.0000 -0.0000
vn 1.0000 -0.0000 -0.0000
vn -0.0000 -1.0000 -0.0074
vn -1.0000 -0.0000 -0.0000
vn -0.0000 -0.6982 0.7159
vn -0.0000 0.7444 -0.6678
vn -0.0000 0.9959 -0.0908
vn -0.0000 -0.6678 -0.7444
vn -0.0000 0.5679 0.8231
vn 0.9999 0.0123 0.0046
vn -0.0000 0.0137 0.9999
vn -1.0000 -0.0036 -0.0014
vn 0.0188 0.7178 0.6960
vn 0.9999 0.0149 0.0031
vn -1.0000 -0.0044 -0.0010
vn -0.0000 -0.0074 1.0000
vn -0.0000 1.0000 0.0074
vt 0.375000 0.000000
vt 0.419943 0.000000
vt 0.416952 0.250000
vt 0.375000 0.250000
vt 0.416166 0.500000
vt 0.375000 0.500000
vt 0.418588 0.750000
vt 0.375000 0.750000
vt 0.125000 0.750000
vt 0.125000 0.500000
vt 0.625000 0.750000
vt 0.625000 0.500000
vt 0.625000 1.000000
vt 0.625000 0.250000
vt 0.625000 0.000000
vt 0.875000 0.500000
vt 0.419943 1.000000
vt 0.375000 1.000000
vt 0.875000 0.750000
s 0
g rightSideCover_DoorCover1
usemtl DoorCover1
f 89/57/52 108/58/52 105/59/52 91/60/52
f 91/60/53 105/59/53 106/61/53 95/62/53
f 95/62/54 106/61/54 107/63/54 93/64/54
f 89/65/55 93/64/55 110/64/55 111/65/55
f 91/66/56 95/62/56 93/64/56 89/65/56
f 94/67/57 96/68/57 99/68/57 100/67/57
f 97/69/58 100/67/58 116/67/58 113/69/58
f 92/70/59 90/71/59 97/71/59 98/70/59
f 90/69/60 94/67/60 100/67/60 97/69/60
f 92/70/59 98/70/59 103/70/59 101/70/59
f 102/68/61 101/70/61 103/70/61 104/68/61
f 98/72/62 99/68/62 104/68/62 103/72/62
f 96/68/63 92/70/63 101/70/63 102/68/63
f 99/68/57 96/68/57 102/68/57 104/68/57
f 110/64/64 109/63/64 112/73/64 111/74/64
f 107/63/65 106/61/65 96/68/65 94/67/65
f 108/73/66 107/63/66 94/67/66 90/69/66
f 105/59/67 108/58/67 90/71/67 92/70/67
f 106/61/53 105/59/53 92/70/53 96/68/53
f 107/63/68 108/73/68 112/73/68 109/63/68
f 93/64/69 107/63/69 109/63/69 110/64/69
f 108/58/70 89/57/70 111/57/70 112/58/70
f 115/68/71 114/72/71 113/75/71 116/67/71
f 99/68/72 98/72/72 114/72/72 115/68/72
f 100/67/57 99/68/57 115/68/57 116/67/57
f 98/70/59 97/71/59 113/71/59 114/70/59
